<svg width="111" height="36" viewBox="0 0 111 36" xmlns="http://www.w3.org/2000/svg"><g fill="#fff" stroke="#000"><path d="M.66 1.386V8.8h.847V2.123h2.024V8.8h.847V1.386zM7.183 3.388c-.913 0-1.782.814-1.782 2.761 0 1.87.77 2.739 1.727 2.739.814 0 1.771-.693 1.771-2.75 0-1.859-.77-2.75-1.716-2.75zm-.033.682c.748 0 .891 1.254.891 2.068 0 .825-.143 2.079-.869 2.079-.77 0-.924-1.199-.924-2.079 0-.814.143-2.068.902-2.068zM10.307 3.476v1.562c0 .715-.077 1.364-.242 1.969-.11.396-.275.781-.495 1.133l-.352.011.044 2.068h.649L9.966 8.8h2.75l.055 1.419h.638l.055-2.068-.451-.011V3.476zm.748.682h1.122v3.971h-1.771c.187-.33.33-.693.429-1.078.176-.649.22-1.375.22-2.112zM14.311 10.912h.847v-2.64h.022c.143.297.429.616.924.616.836 0 1.65-.792 1.65-2.761 0-1.749-.616-2.739-1.54-2.739-.418 0-.836.198-1.122.77h-.022l-.044-.682h-.759c.011.374.044.847.044 1.661zm.847-5.423c0-.143 0-.275.022-.407.055-.484.396-.968.781-.968.671 0 .935.924.935 2.024 0 1.078-.22 2.046-.924 2.046-.231 0-.616-.143-.781-.902-.033-.121-.033-.275-.033-.44zM20.262 3.388c-.913 0-1.782.814-1.782 2.761 0 1.87.77 2.739 1.727 2.739.814 0 1.771-.693 1.771-2.75 0-1.859-.77-2.75-1.716-2.75zm-.033.682c.748 0 .891 1.254.891 2.068 0 .825-.143 2.079-.869 2.079-.77 0-.924-1.199-.924-2.079 0-.814.143-2.068.902-2.068zM25.894 1.1c-.264.11-.803.187-1.166.286-.682.176-1.155.561-1.485 1.221-.374.737-.506 1.804-.506 3.047 0 1.375.308 3.234 1.782 3.234 1.045 0 1.716-.935 1.716-2.794 0-1.87-.682-2.618-1.551-2.618-.561 0-1.034.407-1.21.88h-.022c.044-.451.132-.957.33-1.386.209-.451.517-.748 1.1-.88.363-.099.748-.165.968-.253zm-.506 5.082c0 .715-.121 2.013-.88 2.013-.836 0-.946-1.694-.946-2.31 0-.308.033-.759.176-1.122.121-.33.363-.594.748-.594.759 0 .902 1.232.902 2.013zM27.192 3.476V8.8h.847V6.457h1.573V8.8h.847V3.476h-.847v2.255h-1.573V3.476zM34.716 6.215c.011-.132.011-.275.011-.473 0-1.21-.429-2.354-1.518-2.354-1.067 0-1.793 1.078-1.793 2.805 0 1.628.66 2.673 1.936 2.673.418 0 .869-.088 1.166-.253l-.132-.627a1.79 1.79 0 01-.88.209c-.616 0-1.254-.352-1.265-1.98zm-2.464-.627c.033-.726.319-1.54.869-1.54.407 0 .814.473.792 1.54zM38.709 6.215c.011-.132.011-.275.011-.473 0-1.21-.429-2.354-1.518-2.354-1.067 0-1.793 1.078-1.793 2.805 0 1.628.66 2.673 1.936 2.673.418 0 .869-.088 1.166-.253l-.132-.627a1.79 1.79 0 01-.88.209c-.616 0-1.254-.352-1.265-1.98zm-2.464-.627c.033-.726.319-1.54.869-1.54.407 0 .814.473.792 1.54zM41.36 3.476V8.8h.847V6.457h1.573V8.8h.847V3.476h-.847v2.255h-1.573V3.476zM48.686 8.8c-.055-.341-.055-.803-.055-1.21V5.291c0-1.199-.462-1.903-1.529-1.903-.528 0-1.023.187-1.243.352l.187.594c.253-.165.55-.275.88-.275.671 0 .847.495.847 1.21v.165c-1.199.011-2.266.605-2.266 1.936 0 .913.55 1.518 1.265 1.518.451 0 .825-.242 1.056-.649h.033l.055.561zm-.891-1.672c0 .088 0 .198-.022.297-.099.528-.418.803-.792.803-.297 0-.649-.253-.649-.946 0-1.155 1.023-1.232 1.463-1.232zM51.733 2.31v1.166h-.649v.649h.649v3.08c0 .737.11 1.1.319 1.342.209.231.506.319.836.319.275 0 .473-.033.627-.088l-.033-.649a1.558 1.558 0 01-.341.033c-.308 0-.561-.187-.561-.88V4.125h1.023v-.649H52.58V2.068zM55.198 8.8V3.476h-.847V8.8zm-.44-7.249c-.275 0-.495.22-.495.55 0 .33.209.55.484.55.319 0 .528-.22.517-.55 0-.33-.198-.55-.506-.55zM56.375 8.8h.847V5.445c0-.176.011-.341.033-.473.11-.572.451-.869.803-.869.616 0 .737.638.737 1.265V8.8h.847V5.225c0-1.287-.55-1.837-1.287-1.837-.561 0-.99.297-1.221.726h-.022l-.044-.638h-.737c.011.429.044.748.044 1.375zM61.666 1.188h-.847V8.8h.847V6.787l.297-.495L63.118 8.8h.946l-1.529-3.08 1.408-2.244h-.913l-1.056 1.881c-.099.176-.187.385-.286.594h-.022zM66.11 3.388c-.913 0-1.782.814-1.782 2.761 0 1.87.77 2.739 1.727 2.739.814 0 1.771-.693 1.771-2.75 0-1.859-.77-2.75-1.716-2.75zm-.033.682c.748 0 .891 1.254.891 2.068 0 .825-.143 2.079-.869 2.079-.77 0-.924-1.199-.924-2.079 0-.814.143-2.068.902-2.068zM72.248 8.8V4.125h.968v-.649h-.968v-.33c0-.693.143-1.342.748-1.342.209 0 .363.044.462.088l.143-.66c-.154-.077-.374-.132-.671-.132-.319 0-.748.11-1.056.451-.385.44-.473 1.034-.473 1.606v.319h-1.606v-.308c0-.836.176-1.287.726-1.287.154 0 .297.033.396.077l.165-.671a1.64 1.64 0 00-.55-.099c-.484 0-.847.154-1.1.418-.33.352-.484.902-.484 1.562v.308h-.671v.649h.671V8.8h.847V4.125h1.606V8.8zM73.854 8.888c.352 0 .561-.253.561-.638s-.22-.638-.561-.638c-.308 0-.561.264-.561.638 0 .385.242.638.561.638zM75.471 8.8h.847V5.852c0-.176.011-.341.033-.484.088-.616.484-1.111 1.023-1.111a.89.89 0 01.176.011v-.869c-.055 0-.11-.011-.176-.011-.495 0-.946.418-1.122.924h-.022l-.044-.836h-.759c.011.396.044.924.044 1.375zM81.367 3.476h-.847v3.509c0 .176-.011.341-.044.484-.044.242-.264.704-.759.704-.583 0-.715-.616-.715-1.452V3.476h-.847v3.366c0 1.32.363 2.046 1.298 2.046.572 0 .979-.385 1.144-.649h.022l.055.561h.737c-.011-.396-.044-.858-.044-1.452zM82.984 8.888c.352 0 .561-.253.561-.638s-.22-.638-.561-.638c-.308 0-.561.264-.561.638 0 .385.242.638.561.638z" stroke-width=".011"/></g><g fill="#fff" stroke="#000"><path d="M3.19 18.678l.495 2.222h.836l-1.65-7.414h-.935L.242 20.9h.814l.495-2.222zm-1.518-.682l.385-1.881c.099-.495.209-1.133.297-1.694h.044c.088.55.187 1.166.297 1.694l.385 1.881zM7.095 13.398c-1.298 0-2.178 1.331-2.178 3.784 0 2.497.825 3.806 2.057 3.806 1.188 0 2.145-1.067 2.145-3.85 0-2.365-.759-3.74-2.024-3.74zm-.077.748c.968 0 1.221 1.639 1.221 3.025 0 1.452-.253 3.069-1.21 3.069-.935 0-1.232-1.518-1.232-3.047 0-1.507.297-3.047 1.221-3.047zM13.288 16.214h-.682l-1.133 1.914 1.122 1.914h.693l-1.144-1.914zm1.573 0h-.682l-1.144 1.914 1.133 1.914h.693l-1.144-1.914zM16.621 20.9h.847v-6.655h1.353v-.759h-3.553v.759h1.353zM18.656 15.576V20.9h.869c.396-.858.88-2.068 1.056-2.508.231-.583.44-1.177.638-1.837h.022a34.226 34.226 0 00-.077 2.596V20.9h.781v-5.324h-.891l-.891 2.31c-.231.605-.539 1.364-.781 2.068h-.022c.055-.836.066-1.628.066-2.552v-1.826zM23.122 15.576V20.9h.847v-2.343h1.573V20.9h.847v-5.324h-.847v2.255h-1.573v-2.255zM27.577 15.576v5.291a7.04 7.04 0 001.089.088c.638 0 1.254-.154 1.705-.517.352-.286.583-.726.583-1.298 0-1.188-.946-1.716-2.035-1.716-.143 0-.341.011-.506.033v-1.881zm.836 2.53c.11-.011.209-.022.352-.022.704 0 1.32.308 1.32 1.089 0 .77-.594 1.122-1.298 1.122-.132 0-.242-.011-.374-.022zM31.845 15.576V20.9h.825v-2.398h.088c.693 0 .99.429 1.199 1.155.121.473.242.913.385 1.243h.858c-.176-.407-.319-.968-.44-1.419-.198-.737-.561-1.386-1.287-1.507l1.661-2.398h-.946l-1.397 2.31h-.121v-2.31zM37.4 15.488c-.913 0-1.782.814-1.782 2.761 0 1.87.77 2.739 1.727 2.739.814 0 1.771-.693 1.771-2.75 0-1.859-.77-2.75-1.716-2.75zm-.033.682c.748 0 .891 1.254.891 2.068 0 .825-.143 2.079-.869 2.079-.77 0-.924-1.199-.924-2.079 0-.814.143-2.068.902-2.068zM41.712 13.288v2.222c-1.144.154-1.881 1.034-1.881 2.739 0 1.738.737 2.607 1.881 2.728v2.035h.759v-2.035c1.166-.132 1.892-1.012 1.892-2.728 0-1.738-.77-2.607-1.892-2.75v-2.211zm0 7.106c-.858-.209-1.089-1.265-1.089-2.156 0-.88.231-1.947 1.089-2.156zm.759-4.312c.869.231 1.089 1.276 1.089 2.156 0 .924-.231 1.947-1.089 2.156zM46.959 13.288v2.222c-1.144.154-1.881 1.034-1.881 2.739 0 1.738.737 2.607 1.881 2.728v2.035h.759v-2.035c1.166-.132 1.892-1.012 1.892-2.728 0-1.738-.77-2.607-1.892-2.75v-2.211zm0 7.106c-.858-.209-1.089-1.265-1.089-2.156 0-.88.231-1.947 1.089-2.156zm.759-4.312c.869.231 1.089 1.276 1.089 2.156 0 .924-.231 1.947-1.089 2.156zM52.349 13.486v7.381c.231.044.561.077 1.111.077.88 0 1.551-.253 1.98-.748.341-.385.528-.924.528-1.595 0-.693-.231-1.243-.627-1.617-.385-.374-.935-.583-1.584-.583-.187 0-.374.011-.561.044v-2.222h2.299v-.737zm.847 3.652c.143-.022.286-.033.418-.033.462 0 .836.176 1.089.451s.396.649.396 1.089c0 .44-.121.814-.341 1.1-.242.319-.627.506-1.133.506-.154 0-.286 0-.429-.033zM59.785 20.9c-.055-.341-.055-.803-.055-1.21v-2.299c0-1.199-.462-1.903-1.529-1.903-.528 0-1.023.187-1.243.352l.187.594c.253-.165.55-.275.88-.275.671 0 .847.495.847 1.21v.165c-1.199.011-2.266.605-2.266 1.936 0 .913.55 1.518 1.265 1.518.451 0 .825-.242 1.056-.649h.033l.055.561zm-.891-1.672c0 .088 0 .198-.022.297-.099.528-.418.803-.792.803-.297 0-.649-.253-.649-.946 0-1.155 1.023-1.232 1.463-1.232zM60.918 15.576V20.9h.847v-2.343h1.573V20.9h.847v-5.324h-.847v2.255h-1.573v-2.255zM65.373 15.576V20.9h.825v-2.398h.088c.693 0 .99.429 1.199 1.155.121.473.242.913.385 1.243h.858c-.176-.407-.319-.968-.44-1.419-.198-.737-.561-1.386-1.287-1.507l1.661-2.398h-.946l-1.397 2.31h-.121v-2.31zM70.191 18.128l-1.144 1.914h.704l1.111-1.914-1.133-1.914h-.682zm1.573 0l-1.144 1.914h.693l1.122-1.914-1.133-1.914h-.682zM73.48 22.209c.297-.495.77-1.705 1.012-2.596l-.957.11c-.11.759-.407 1.925-.638 2.563z" stroke-width=".011"/></g><g fill="#fff" stroke="#000"><path d="M.803 27.676v2.442c0 .979-.044 1.727-.352 2.035a.79.79 0 01-.451.253l.154.671c.198 0 .396-.044.561-.132.792-.374.902-1.375.902-2.882V28.38h1.166V33h.847v-5.324zM4.807 27.676V33h.869c.396-.858.88-2.068 1.056-2.508.231-.583.44-1.177.638-1.837h.022a34.226 34.226 0 00-.077 2.596V33h.781v-5.324h-.891l-.891 2.31c-.231.605-.539 1.364-.781 2.068h-.022c.055-.836.066-1.628.066-2.552v-1.826zM9.273 27.676V33h2.915l.055 1.419h.638l.055-2.068-.451-.011v-4.664h-.847v4.62H10.12v-4.62zM16.808 30.415c.011-.132.011-.275.011-.473 0-1.21-.429-2.354-1.518-2.354-1.067 0-1.793 1.078-1.793 2.805 0 1.628.66 2.673 1.936 2.673.418 0 .869-.088 1.166-.253l-.132-.627a1.79 1.79 0 01-.88.209c-.616 0-1.254-.352-1.265-1.98zm-2.464-.627c.033-.726.319-1.54.869-1.54.407 0 .814.473.792 1.54zM17.732 27.676V33h.847v-2.343h1.573V33h.847v-5.324h-.847v2.255h-1.573v-2.255zM22.572 30.547h.319c.605 0 1.254.253 1.254.979 0 .495-.451.924-1.166.924-.363 0-.737-.132-.99-.264l-.198.605c.352.187.814.297 1.254.297.979 0 1.958-.495 1.958-1.562 0-.759-.55-1.232-1.287-1.342v-.011c.616-.165 1.089-.605 1.089-1.254 0-.836-.627-1.331-1.496-1.331-.473 0-.968.132-1.32.374l.176.539c.264-.154.605-.275.935-.275.495 0 .858.264.858.792 0 .583-.572.913-1.089.913h-.297zM25.949 27.676V33h.869c.396-.858.88-2.068 1.056-2.508.231-.583.44-1.177.638-1.837h.022a34.226 34.226 0 00-.077 2.596V33h.781v-5.324h-.891l-.891 2.31c-.231.605-.539 1.364-.781 2.068h-.022c.055-.836.066-1.628.066-2.552v-1.826zM33.396 27.709a5.558 5.558 0 00-1.133-.099c-.572 0-1.155.143-1.463.396-.352.264-.55.605-.55 1.111 0 .77.561 1.177 1.177 1.309v.022a1.164 1.164 0 00-.649.352c-.374.407-.473 1.133-.616 1.65a2.123 2.123 0 01-.242.55h.891c.055-.11.11-.242.143-.396.187-.649.242-1.309.605-1.628.143-.154.385-.253.77-.253h.253V33h.814zm-.814 2.442h-.33c-.572 0-1.155-.363-1.155-1.012 0-.671.528-.946 1.122-.946.121 0 .242.011.363.044zM41.866 26.004c-.726 0-1.353.572-1.353 1.771 0 1.188.561 1.771 1.32 1.771.66 0 1.309-.462 1.309-1.782 0-1.155-.462-1.76-1.276-1.76zm-.033.495c.528 0 .649.726.649 1.276 0 .539-.11 1.265-.649 1.265-.473 0-.649-.682-.649-1.265 0-.517.154-1.276.649-1.276zm1.133 4.07v-.517h-2.277v.517zM37.125 33v-2.552c0-1.562-.022-2.31-.077-3.289h.022c.264.924.561 1.749.847 2.486L39.215 33h.792v-7.15h-.737v2.651c0 1.265.033 2.013.088 3.179h-.011c-.253-.803-.627-1.782-.935-2.563l-1.243-3.267h-.792V33zM47.267 33v-.748H44.88v-.022l.484-.66c.88-1.21 1.76-2.508 1.76-3.85 0-1.078-.517-1.958-1.705-1.958-.649 0-1.144.275-1.397.484l.209.638c.187-.121.517-.396 1.034-.396.671 0 1.023.484 1.023 1.276 0 1.342-1.012 2.684-1.859 3.861l-.605.825V33zM51.216 25.762c-.121.011-.308.022-.539.066a2.945 2.945 0 00-1.727 1.133c-.561.759-.924 1.837-.924 3.223 0 1.639.627 2.904 1.87 2.904 1.144 0 1.76-1.089 1.76-2.442 0-1.364-.627-2.2-1.54-2.2-.539 0-.935.275-1.21.682h-.033c.176-1.1.649-2.288 1.837-2.574.209-.044.363-.066.506-.077zm-1.32 6.666c-.572 0-1.023-.671-1.034-2.134 0-.209.033-.352.066-.429.209-.528.572-.77.924-.77.583 0 .957.539.957 1.617 0 1.243-.429 1.716-.913 1.716zM52.349 25.85v.748h2.574v.022L52.657 33h.825l2.31-6.644v-.506zM56.485 32.758c.286.198.792.33 1.254.33 1.298 0 2.046-.946 2.046-2.112 0-1.122-.616-1.694-1.254-1.87v-.022c.693-.33 1.067-.957 1.067-1.672 0-.924-.572-1.65-1.584-1.65-.539 0-1.023.198-1.287.407l.187.638c.231-.165.539-.341.891-.341.561 0 .946.385.946 1.1 0 .88-.781 1.265-1.287 1.276h-.165v.638h.198c.858 0 1.441.539 1.441 1.474 0 .891-.495 1.43-1.232 1.43-.429 0-.814-.165-1.034-.297zM61.512 33.088c.352 0 .561-.253.561-.638s-.22-.638-.561-.638c-.308 0-.561.264-.561.638 0 .385.242.638.561.638z" stroke-width=".011"/></g></svg>