<svg width="100%" height="100%" viewBox="0 0 193 55" fill="none" xmlns="http://www.w3.org/2000/svg" preserveAspectRatio="none"><rect x="-0.000244141" y="0.620422" width="193" height="53.5329" rx="7.0438" fill="white" data-color-group="0"/><path d="M43.1756 19.2282H41.0414L38.738 24.0884C37.9562 25.7367 37.1743 27.406 36.4136 29.0754H36.3713C35.6106 27.406 34.8287 25.7367 34.0469 24.0673L31.7858 19.2282H29.6515L35.3359 30.7659C34.6808 32.2029 33.8989 32.71 32.7156 32.71C32.293 32.71 31.9548 32.6678 31.6801 32.5832V34.2737C32.0394 34.3794 32.5254 34.4428 33.0537 34.4428C34.7653 34.4428 36.0543 33.6609 37.1743 31.3999L43.1756 19.2282ZM46.6095 23.2431C44.0103 23.2431 42.3621 24.5533 42.3621 26.7721H44.2639C44.2639 25.4408 45.088 24.7646 46.5461 24.7646C47.8562 24.7646 48.6804 25.3352 48.6804 26.4129C48.6804 27.4483 47.6872 28.1245 46.208 28.1245H45.1303V29.5826H46.208C47.9619 29.5826 48.9339 30.1954 48.9339 31.3999C48.9339 32.393 48.0464 33.0481 46.5672 33.0481C44.9401 33.0481 44.0737 32.393 44.0737 30.9772H42.1508C42.1508 33.2806 43.7567 34.5696 46.5672 34.5696C49.1875 34.5696 50.8358 33.3862 50.8358 31.4421C50.8358 29.9841 50.0116 29.2022 48.6804 28.7796V28.7373C49.906 28.2724 50.5611 27.554 50.5611 26.2649C50.5611 24.4054 49.0396 23.2431 46.6095 23.2431ZM62.5898 34.2737V23.539H60.7302V28.1456H55.2994V23.539H53.4399V34.2737H55.2994V29.6248H60.7302V34.2737H62.5898ZM69.7082 23.2431C66.9823 23.2431 65.5031 24.7857 65.3974 26.8144H67.257C67.3204 25.5465 68.1445 24.6801 69.7082 24.6801C71.1452 24.6801 72.1384 25.4197 72.1384 27.1947V27.6173C71.2931 27.6807 69.983 27.8287 69.032 27.9766C65.9469 28.4626 64.9537 29.5826 64.9537 31.3576C64.9537 33.1749 66.3484 34.5062 68.5883 34.5062C70.3211 34.5062 71.5678 33.8511 72.3074 32.71H72.3497C72.3497 33.196 72.3919 33.7877 72.4976 34.2737H74.1881C74.0402 33.6187 73.9345 32.71 73.9345 31.5267V27.406C73.9345 24.5744 72.3285 23.2431 69.7082 23.2431ZM72.1384 29.6882C72.1384 30.9561 71.927 31.5478 71.272 32.224C70.7437 32.7734 69.9196 33.0693 69.0532 33.0693C67.6585 33.0693 66.8555 32.3297 66.8555 31.2308C66.8555 30.1742 67.4895 29.646 69.3279 29.3713C70.152 29.2233 71.3142 29.0965 72.1384 29.0332V29.6882ZM84.4309 25.0182V23.5601L75.1965 23.539V25.0182H78.8733V34.2737H80.7752V25.0182H84.4309ZM87.822 27.5117V23.539H85.9624V34.2737H90.4423C93.1048 34.2737 94.5629 33.027 94.5629 30.8927C94.5629 28.7796 93.1048 27.5117 90.4423 27.5117H87.822ZM87.822 28.9486H90.3366C91.9004 28.9486 92.6822 29.5826 92.6822 30.8927C92.6822 32.2029 91.9004 32.8368 90.3366 32.8368H87.822V28.9486ZM106.08 23.2431C102.973 23.2431 101.029 25.4197 101.029 28.9064C101.029 32.393 102.973 34.5696 106.08 34.5696C108.7 34.5696 110.454 32.7734 110.665 30.3222H108.721C108.594 31.8648 107.538 33.0481 106.058 33.0481C104.157 33.0481 102.994 31.4844 102.994 28.9064C102.994 26.3495 104.157 24.7646 106.058 24.7646C107.538 24.7646 108.594 25.8212 108.721 27.3426H110.665C110.454 24.9337 108.658 23.2431 106.08 23.2431ZM121.448 23.539H119.483L116.356 32.0761H116.313L113.228 23.539H111.221L115.299 34.316C114.602 36.2178 114.052 36.725 112.637 36.725C112.298 36.725 112.003 36.6827 111.749 36.5982V38.1619C112.024 38.2464 112.362 38.2676 112.721 38.2676C115.024 38.2676 116.081 37.5068 117.138 34.7598L121.448 23.539ZM135.895 34.2737V23.539H132.895L130.951 28.4837C130.422 29.815 129.915 31.252 129.45 32.6044H129.408C128.943 31.252 128.415 29.815 127.887 28.4837L125.964 23.539H122.963V34.2737H124.738V29.0543C124.738 27.723 124.717 26.3917 124.696 25.0604H124.738C125.224 26.3917 125.731 27.7019 126.26 29.0754L128.309 34.2737H130.549L132.578 29.0754C133.127 27.7019 133.613 26.3917 134.12 25.0604H134.142C134.12 26.3917 134.099 27.723 134.099 29.0543V34.2737H135.895ZM152.115 34.2737V23.539H149.115L147.171 28.4837C146.642 29.815 146.135 31.252 145.67 32.6044H145.628C145.163 31.252 144.635 29.815 144.107 28.4837L142.184 23.539H139.183V34.2737H140.958V29.0543C140.958 27.723 140.937 26.3917 140.916 25.0604H140.958C141.444 26.3917 141.951 27.7019 142.48 29.0754L144.529 34.2737H146.769L148.798 29.0754C149.347 27.7019 149.833 26.3917 150.34 25.0604H150.362C150.34 26.3917 150.319 27.723 150.319 29.0543V34.2737H152.115ZM163.587 23.539H161.622L158.495 32.0761H158.452L155.367 23.539H153.36L157.438 34.316C156.741 36.2178 156.191 36.725 154.776 36.725C154.437 36.725 154.142 36.6827 153.888 36.5982V38.1619C154.163 38.2464 154.501 38.2676 154.86 38.2676C157.163 38.2676 158.22 37.5068 159.277 34.7598L163.587 23.539Z" fill="#333333" data-color-group="1"/></svg>