<svg width="100%" height="100%" viewBox="0 0 181 121" fill="none" xmlns="http://www.w3.org/2000/svg" preserveAspectRatio="none"><path d="M28.648 12.752V16.272H27.368V14H20.68V16.272H19.4V12.752H19.48C19.8533 12.7307 20.1573 12.6507 20.392 12.512C20.6373 12.3627 20.8293 12.16 20.968 11.904C21.1173 11.6373 21.2293 11.3173 21.304 10.944C21.3787 10.5707 21.4373 10.144 21.48 9.664C21.5333 9.056 21.5813 8.224 21.624 7.168C21.6667 6.10133 21.704 4.92267 21.736 3.632H27.448V12.752H28.648ZM26.04 12.752V4.88H23.048C23.016 5.904 22.9787 6.80533 22.936 7.584C22.8933 8.36267 22.8613 8.92267 22.84 9.264C22.808 9.648 22.7707 10.0107 22.728 10.352C22.6853 10.6933 22.6107 11.008 22.504 11.296C22.3973 11.584 22.2533 11.84 22.072 12.064C21.8907 12.288 21.6507 12.4693 21.352 12.608V12.752H26.04ZM33.0469 14.16C31.9802 14.16 31.1482 13.8027 30.5509 13.088C29.9535 12.3627 29.6549 11.3333 29.6549 10C29.6549 8.66667 29.9535 7.64267 30.5509 6.928C31.1482 6.20267 31.9802 5.84 33.0469 5.84C34.1135 5.84 34.9455 6.20267 35.5429 6.928C36.1402 7.64267 36.4389 8.66667 36.4389 10C36.4389 11.3333 36.1402 12.3627 35.5429 13.088C34.9455 13.8027 34.1135 14.16 33.0469 14.16ZM33.0469 13.088C33.6762 13.088 34.1669 12.832 34.5189 12.32C34.8709 11.808 35.0469 11.0347 35.0469 10C35.0469 8.976 34.8709 8.208 34.5189 7.696C34.1669 7.184 33.6762 6.928 33.0469 6.928C32.4069 6.928 31.9109 7.184 31.5589 7.696C31.2175 8.208 31.0469 8.976 31.0469 10C31.0469 11.0347 31.2175 11.808 31.5589 12.32C31.9109 12.832 32.4069 13.088 33.0469 13.088ZM47.5018 12.752V14H41.5018V12.56C42.2164 12.1973 42.8458 11.7867 43.3898 11.328C43.9444 10.8587 44.4084 10.3733 44.7818 9.872C45.1551 9.37067 45.4324 8.85867 45.6138 8.336C45.8058 7.81333 45.9018 7.30133 45.9018 6.8C45.9018 6.416 45.8538 6.09067 45.7578 5.824C45.6724 5.55733 45.5498 5.344 45.3898 5.184C45.2298 5.024 45.0431 4.90667 44.8298 4.832C44.6164 4.75733 44.3871 4.72 44.1418 4.72C43.6831 4.72 43.2991 4.832 42.9898 5.056C42.6804 5.28 42.5258 5.68 42.5258 6.256C42.5258 6.50133 42.5578 6.77333 42.6218 7.072H41.2778C41.1604 6.80533 41.1018 6.51733 41.1018 6.208C41.1018 5.78133 41.1818 5.39733 41.3418 5.056C41.5124 4.704 41.7364 4.41067 42.0138 4.176C42.2911 3.94133 42.6164 3.76 42.9898 3.632C43.3738 3.504 43.7844 3.44 44.2218 3.44C44.6804 3.44 45.1018 3.50933 45.4858 3.648C45.8804 3.776 46.2164 3.97333 46.4938 4.24C46.7711 4.50667 46.9898 4.84267 47.1498 5.248C47.3098 5.65333 47.3898 6.128 47.3898 6.672C47.3898 7.408 47.2404 8.096 46.9418 8.736C46.6538 9.376 46.2804 9.952 45.8218 10.464C45.3631 10.9653 44.8618 11.3973 44.3177 11.76C43.7738 12.1227 43.2564 12.4053 42.7658 12.608V12.752H47.5018ZM52.4383 14.176C51.9263 14.176 51.4676 14.0533 51.0623 13.808C50.6569 13.5627 50.3103 13.2107 50.0223 12.752C49.7343 12.2933 49.5103 11.7387 49.3503 11.088C49.2009 10.4373 49.1263 9.70667 49.1263 8.896C49.1263 8.064 49.2009 7.31733 49.3503 6.656C49.4996 5.984 49.7183 5.41333 50.0063 4.944C50.2943 4.47467 50.6409 4.11733 51.0463 3.872C51.4623 3.616 51.9316 3.488 52.4543 3.488C52.9556 3.488 53.4089 3.61067 53.8143 3.856C54.2196 4.10133 54.5609 4.45333 54.8383 4.912C55.1263 5.37067 55.3449 5.92533 55.4943 6.576C55.6543 7.22667 55.7343 7.95733 55.7343 8.768C55.7343 9.6 55.6596 10.352 55.5103 11.024C55.3716 11.6853 55.1583 12.2507 54.8703 12.72C54.5929 13.1893 54.2463 13.552 53.8303 13.808C53.4249 14.0533 52.9609 14.176 52.4383 14.176ZM52.4223 12.992C52.9983 12.992 53.4516 12.6347 53.7823 11.92C54.1236 11.2053 54.2943 10.2027 54.2943 8.912C54.2943 7.57867 54.1289 6.544 53.7983 5.808C53.4676 5.06133 53.0089 4.688 52.4223 4.688C51.8463 4.688 51.3876 5.056 51.0463 5.792C50.7156 6.51733 50.5503 7.53067 50.5503 8.832C50.5503 10.1547 50.7156 11.1787 51.0463 11.904C51.3876 12.6293 51.8463 12.992 52.4223 12.992ZM60.4851 14.176C59.9731 14.176 59.5145 14.0533 59.1091 13.808C58.7038 13.5627 58.3571 13.2107 58.0691 12.752C57.7811 12.2933 57.5571 11.7387 57.3971 11.088C57.2478 10.4373 57.1731 9.70667 57.1731 8.896C57.1731 8.064 57.2478 7.31733 57.3971 6.656C57.5465 5.984 57.7651 5.41333 58.0531 4.944C58.3411 4.47467 58.6878 4.11733 59.0931 3.872C59.5091 3.616 59.9785 3.488 60.5011 3.488C61.0025 3.488 61.4558 3.61067 61.8611 3.856C62.2665 4.10133 62.6078 4.45333 62.8851 4.912C63.1731 5.37067 63.3918 5.92533 63.5411 6.576C63.7011 7.22667 63.7811 7.95733 63.7811 8.768C63.7811 9.6 63.7065 10.352 63.5571 11.024C63.4185 11.6853 63.2051 12.2507 62.9171 12.72C62.6398 13.1893 62.2931 13.552 61.8771 13.808C61.4718 14.0533 61.0078 14.176 60.4851 14.176ZM60.4691 12.992C61.0451 12.992 61.4985 12.6347 61.8291 11.92C62.1705 11.2053 62.3411 10.2027 62.3411 8.912C62.3411 7.57867 62.1758 6.544 61.8451 5.808C61.5145 5.06133 61.0558 4.688 60.4691 4.688C59.8931 4.688 59.4345 5.056 59.0931 5.792C58.7625 6.51733 58.5971 7.53067 58.5971 8.832C58.5971 10.1547 58.7625 11.1787 59.0931 11.904C59.4345 12.6293 59.8931 12.992 60.4691 12.992ZM77.2269 14H75.8669L75.5309 9.568C75.5202 9.408 75.5042 9.232 75.4829 9.04C75.4722 8.83733 75.4615 8.62933 75.4509 8.416C75.4402 8.192 75.4295 7.97333 75.4189 7.76C75.4189 7.536 75.4189 7.328 75.4189 7.136H75.2269C75.1735 7.52 75.0935 7.952 74.9869 8.432C74.8802 8.90133 74.7469 9.392 74.5869 9.904L73.4669 13.52H71.7869L70.7949 9.824C70.6882 9.42933 70.5975 9.09867 70.5229 8.832C70.4482 8.56533 70.3842 8.336 70.3309 8.144C70.2882 7.952 70.2509 7.78133 70.2189 7.632C70.1975 7.48267 70.1762 7.31733 70.1549 7.136H69.9629C69.9735 7.31733 69.9735 7.52533 69.9629 7.76C69.9629 7.984 69.9522 8.21333 69.9309 8.448C69.9202 8.672 69.9042 8.89067 69.8829 9.104C69.8722 9.30667 69.8615 9.47733 69.8509 9.616L69.4989 14H68.2669L69.0189 6H70.9709L72.0429 9.936C72.2242 10.576 72.3575 11.1147 72.4429 11.552C72.5389 11.9787 72.6029 12.3147 72.6349 12.56H72.7949C72.8162 12.3147 72.8695 11.984 72.9549 11.568C73.0402 11.1413 73.1895 10.5973 73.4029 9.936L74.6349 6H76.5389L77.2269 14ZM78.1931 12.864C78.5451 12.9067 78.8171 12.8907 79.0091 12.816C79.2011 12.7307 79.3451 12.5227 79.4411 12.192C79.5371 11.8613 79.6011 11.3813 79.6331 10.752C79.6651 10.112 79.6918 9.25867 79.7131 8.192L79.7611 6H84.6251V14H83.2971V7.168H80.9771L80.9451 8.48C80.9131 9.78133 80.8651 10.8107 80.8011 11.568C80.7371 12.3253 80.6091 12.896 80.4171 13.28C80.2358 13.664 79.9691 13.8933 79.6171 13.968C79.2651 14.0427 78.7905 14.048 78.1931 13.984V12.864ZM86.7751 14V6H88.1351V9.328H91.4951V6H92.8551V14H91.4951V10.496H88.1351V14H86.7751ZM101.721 14.16C101.145 14.16 100.654 14.0053 100.249 13.696C99.8434 13.376 99.5341 12.8853 99.3207 12.224L99.1768 12.24C99.2301 12.528 99.2834 12.8373 99.3368 13.168C99.3901 13.488 99.4168 13.7493 99.4168 13.952V16.848H98.0888V6H99.4168V6.128C99.4168 6.33067 99.3901 6.59733 99.3368 6.928C99.2834 7.248 99.2301 7.552 99.1768 7.84L99.3207 7.856C99.5341 7.184 99.8541 6.68267 100.281 6.352C100.707 6.01067 101.193 5.84 101.737 5.84C102.131 5.84 102.505 5.92533 102.857 6.096C103.219 6.26667 103.534 6.528 103.801 6.88C104.078 7.22133 104.297 7.65333 104.457 8.176C104.617 8.688 104.697 9.296 104.697 10C104.697 10.7253 104.606 11.3493 104.425 11.872C104.254 12.3947 104.025 12.8267 103.737 13.168C103.459 13.5093 103.139 13.76 102.777 13.92C102.425 14.08 102.073 14.16 101.721 14.16ZM101.321 12.992C101.95 12.992 102.425 12.7413 102.745 12.24C103.075 11.7387 103.241 10.9973 103.241 10.016C103.241 9.04533 103.075 8.30933 102.745 7.808C102.425 7.296 101.95 7.04 101.321 7.04C100.681 7.04 100.201 7.296 99.8808 7.808C99.5608 8.30933 99.4008 9.04533 99.4008 10.016C99.4008 10.9973 99.5608 11.7387 99.8808 12.24C100.201 12.7413 100.681 12.992 101.321 12.992ZM108.944 12.8C108.987 12.5653 109.029 12.336 109.072 12.112C109.125 11.888 109.184 11.6533 109.248 11.408C109.323 11.152 109.403 10.88 109.488 10.592C109.573 10.2933 109.669 9.952 109.776 9.568L110.8 6H112.048L108.672 16.848H107.328L108.112 14.432L105.456 6H106.896L107.92 9.568C108.059 10.0693 108.176 10.4907 108.272 10.832C108.368 11.1733 108.448 11.4613 108.512 11.696C108.576 11.9307 108.624 12.1333 108.656 12.304C108.688 12.4747 108.72 12.64 108.752 12.8H108.944ZM116.588 6C117.143 6 117.612 6.11733 117.996 6.352C118.38 6.576 118.689 6.87467 118.924 7.248C119.169 7.62133 119.34 8.048 119.436 8.528C119.543 9.008 119.596 9.49867 119.596 10C119.596 10.5013 119.527 10.9973 119.388 11.488C119.249 11.9787 119.036 12.4267 118.748 12.832C118.471 13.2267 118.119 13.5467 117.692 13.792C117.276 14.0373 116.78 14.16 116.204 14.16C115.511 14.16 114.945 14.0213 114.508 13.744C114.071 13.456 113.724 13.0827 113.468 12.624C113.223 12.1547 113.052 11.616 112.956 11.008C112.86 10.4 112.812 9.76533 112.812 9.104C112.812 8.79467 112.817 8.45867 112.828 8.096C112.839 7.73333 112.871 7.37067 112.924 7.008C112.988 6.63467 113.073 6.26667 113.18 5.904C113.297 5.54133 113.457 5.20533 113.66 4.896C113.873 4.576 114.14 4.288 114.46 4.032C114.78 3.776 115.169 3.57333 115.628 3.424C115.98 3.30667 116.289 3.21067 116.556 3.136C116.833 3.06133 117.084 2.992 117.308 2.928C117.543 2.85333 117.761 2.77333 117.964 2.688C118.177 2.60267 118.391 2.49067 118.604 2.352L118.748 3.632C118.492 3.81333 118.161 3.97333 117.756 4.112C117.361 4.24 116.876 4.37867 116.3 4.528C115.447 4.74133 114.801 5.15733 114.364 5.776C113.937 6.384 113.724 7.26933 113.724 8.432V8.752H113.868C113.921 8.24 114.033 7.81333 114.204 7.472C114.385 7.12 114.599 6.83733 114.844 6.624C115.1 6.4 115.377 6.24 115.676 6.144C115.975 6.048 116.279 6 116.588 6ZM116.22 13.056C116.487 13.056 116.732 12.9973 116.956 12.88C117.191 12.752 117.393 12.56 117.564 12.304C117.735 12.048 117.868 11.728 117.964 11.344C118.071 10.96 118.124 10.512 118.124 10C118.124 8.976 117.937 8.208 117.564 7.696C117.201 7.184 116.748 6.928 116.204 6.928C115.649 6.928 115.191 7.184 114.828 7.696C114.465 8.208 114.284 8.97067 114.284 9.984C114.284 11.0293 114.46 11.8027 114.812 12.304C115.175 12.8053 115.644 13.056 116.22 13.056ZM120.443 12.864C120.795 12.9067 121.067 12.8907 121.259 12.816C121.451 12.7307 121.595 12.5227 121.691 12.192C121.787 11.8613 121.851 11.3813 121.883 10.752C121.915 10.112 121.942 9.25867 121.963 8.192L122.011 6H126.875V14H125.547V7.168H123.227L123.195 8.48C123.163 9.78133 123.115 10.8107 123.051 11.568C122.987 12.3253 122.859 12.896 122.667 13.28C122.486 13.664 122.219 13.8933 121.867 13.968C121.515 14.0427 121.04 14.048 120.443 13.984V12.864ZM134.881 11.344C134.902 11.7813 134.844 12.176 134.705 12.528C134.577 12.88 134.38 13.1787 134.113 13.424C133.846 13.6587 133.521 13.84 133.137 13.968C132.764 14.096 132.348 14.16 131.889 14.16C131.313 14.16 130.812 14.0533 130.385 13.84C129.969 13.6267 129.622 13.3333 129.345 12.96C129.078 12.5867 128.881 12.1493 128.753 11.648C128.625 11.136 128.561 10.5867 128.561 10C128.561 9.424 128.63 8.88533 128.769 8.384C128.908 7.872 129.116 7.42933 129.393 7.056C129.67 6.68267 130.017 6.38933 130.433 6.176C130.86 5.952 131.356 5.84 131.921 5.84C132.433 5.84 132.876 5.93067 133.249 6.112C133.622 6.29333 133.932 6.53867 134.177 6.848C134.422 7.14667 134.604 7.504 134.721 7.92C134.838 8.32533 134.897 8.75733 134.897 9.216C134.897 9.35467 134.892 9.50933 134.881 9.68C134.87 9.84 134.854 9.99467 134.833 10.144H129.953C129.974 11.1787 130.172 11.9307 130.545 12.4C130.929 12.8587 131.404 13.088 131.969 13.088C132.172 13.088 132.374 13.056 132.577 12.992C132.79 12.928 132.977 12.832 133.137 12.704C133.297 12.5653 133.42 12.384 133.505 12.16C133.59 11.936 133.622 11.664 133.601 11.344H134.881ZM131.857 6.928C131.281 6.928 130.833 7.12533 130.513 7.52C130.204 7.91467 130.022 8.464 129.969 9.168H133.553V9.072C133.553 8.35733 133.404 7.824 133.105 7.472C132.806 7.10933 132.39 6.928 131.857 6.928ZM137.721 3.712C138.404 3.872 139.097 3.952 139.801 3.952C140.484 3.952 141.177 3.872 141.881 3.712V4.752C141.177 4.912 140.484 4.992 139.801 4.992C139.097 4.992 138.404 4.912 137.721 4.752V3.712ZM136.681 14V6H138.009V9.248C138.009 9.536 138.004 9.84533 137.993 10.176C137.983 10.5067 137.967 10.8373 137.945 11.168C137.924 11.488 137.892 11.792 137.849 12.08C137.817 12.368 137.775 12.6027 137.721 12.784L137.881 12.832C137.956 12.6613 138.031 12.48 138.105 12.288C138.18 12.096 138.271 11.8773 138.377 11.632C138.484 11.3867 138.607 11.1093 138.745 10.8C138.884 10.4907 139.06 10.1333 139.273 9.728L141.209 6H142.777V14H141.449V10.752C141.449 10.464 141.455 10.1547 141.465 9.824C141.476 9.49333 141.492 9.168 141.513 8.848C141.535 8.51733 141.561 8.208 141.593 7.92C141.636 7.632 141.684 7.39733 141.737 7.216L141.577 7.168C141.503 7.33867 141.428 7.52 141.353 7.712C141.279 7.904 141.188 8.12267 141.081 8.368C140.975 8.61333 140.847 8.89067 140.697 9.2C140.559 9.50933 140.388 9.86667 140.185 10.272L138.249 14H136.681Z" fill="white" data-color-group="0"/><path d="M1.05553 6.05579H7.19053L4.12303 9.12329L1.05553 12.1908V6.05579Z" fill="white" data-color-group="0"/><path d="M1.05553 6.05579H7.19053L4.12303 9.12329L1.05553 12.1908V6.05579Z" fill="white" data-color-group="0"/><path d="M27.624 42.656C27.6453 43.168 27.5707 43.6427 27.4 44.08C27.24 44.5067 27 44.8747 26.68 45.184C26.36 45.4933 25.976 45.7387 25.528 45.92C25.08 46.0907 24.584 46.176 24.04 46.176C23.336 46.176 22.7173 46.048 22.184 45.792C21.6507 45.5253 21.2027 45.1573 20.84 44.688C20.488 44.208 20.2213 43.6427 20.04 42.992C19.8587 42.3413 19.768 41.6213 19.768 40.832C19.768 40.064 19.8587 39.3547 20.04 38.704C20.232 38.0427 20.5093 37.4773 20.872 37.008C21.2453 36.528 21.704 36.1547 22.248 35.888C22.792 35.6213 23.4267 35.488 24.152 35.488C24.7067 35.488 25.208 35.5787 25.656 35.76C26.1147 35.9307 26.4933 36.176 26.792 36.496C27.1013 36.8053 27.3253 37.1787 27.464 37.616C27.6133 38.0533 27.656 38.5387 27.592 39.072H26.168C26.2533 38.3787 26.104 37.8187 25.72 37.392C25.3467 36.9547 24.808 36.736 24.104 36.736C23.24 36.736 22.552 37.0933 22.04 37.808C21.528 38.512 21.272 39.52 21.272 40.832C21.272 42.1653 21.5333 43.184 22.056 43.888C22.5893 44.592 23.2987 44.944 24.184 44.944C24.4613 44.944 24.7227 44.9013 24.968 44.816C25.224 44.72 25.448 44.5813 25.64 44.4C25.832 44.2187 25.9813 43.984 26.088 43.696C26.2053 43.408 26.2587 43.0613 26.248 42.656H27.624ZM33.0333 46.16C32.4573 46.16 31.9666 46.0053 31.5613 45.696C31.1559 45.376 30.8466 44.8853 30.6332 44.224L30.4893 44.24C30.5426 44.528 30.5959 44.8373 30.6493 45.168C30.7026 45.488 30.7293 45.7493 30.7293 45.952V48.848H29.4013V38H30.7293V38.128C30.7293 38.3307 30.7026 38.5973 30.6493 38.928C30.5959 39.248 30.5426 39.552 30.4893 39.84L30.6332 39.856C30.8466 39.184 31.1666 38.6827 31.5933 38.352C32.0199 38.0107 32.5053 37.84 33.0493 37.84C33.4439 37.84 33.8173 37.9253 34.1693 38.096C34.5319 38.2667 34.8466 38.528 35.1133 38.88C35.3906 39.2213 35.6093 39.6533 35.7693 40.176C35.9293 40.688 36.0093 41.296 36.0093 42C36.0093 42.7253 35.9186 43.3493 35.7373 43.872C35.5666 44.3947 35.3373 44.8267 35.0493 45.168C34.7719 45.5093 34.4519 45.76 34.0893 45.92C33.7373 46.08 33.3853 46.16 33.0333 46.16ZM32.6333 44.992C33.2626 44.992 33.7373 44.7413 34.0573 44.24C34.3879 43.7387 34.5533 42.9973 34.5533 42.016C34.5533 41.0453 34.3879 40.3093 34.0573 39.808C33.7373 39.296 33.2626 39.04 32.6333 39.04C31.9933 39.04 31.5133 39.296 31.1933 39.808C30.8733 40.3093 30.7133 41.0453 30.7133 42.016C30.7133 42.9973 30.8733 43.7387 31.1933 44.24C31.5133 44.7413 31.9933 44.992 32.6333 44.992ZM40.6406 46.16C39.574 46.16 38.742 45.8027 38.1446 45.088C37.5473 44.3627 37.2486 43.3333 37.2486 42C37.2486 40.6667 37.5473 39.6427 38.1446 38.928C38.742 38.2027 39.574 37.84 40.6406 37.84C41.7073 37.84 42.5393 38.2027 43.1366 38.928C43.734 39.6427 44.0326 40.6667 44.0326 42C44.0326 43.3333 43.734 44.3627 43.1366 45.088C42.5393 45.8027 41.7073 46.16 40.6406 46.16ZM40.6406 45.088C41.27 45.088 41.7606 44.832 42.1126 44.32C42.4646 43.808 42.6406 43.0347 42.6406 42C42.6406 40.976 42.4646 40.208 42.1126 39.696C41.7606 39.184 41.27 38.928 40.6406 38.928C40.0006 38.928 39.5046 39.184 39.1526 39.696C38.8113 40.208 38.6406 40.976 38.6406 42C38.6406 43.0347 38.8113 43.808 39.1526 44.32C39.5046 44.832 40.0006 45.088 40.6406 45.088ZM45.7126 46V38H47.0726V41.44H47.8566C48.198 41.44 48.4593 41.3707 48.6406 41.232C48.8326 41.0933 48.9926 40.8533 49.1206 40.512C49.1953 40.3093 49.2753 40.0853 49.3606 39.84C49.4566 39.5947 49.5526 39.36 49.6486 39.136C49.7446 38.9013 49.8406 38.688 49.9366 38.496C50.0326 38.2933 50.1286 38.128 50.2246 38H51.7286C51.5473 38.1813 51.3926 38.384 51.2646 38.608C51.1366 38.832 51.0246 39.0667 50.9286 39.312C50.8326 39.5573 50.7366 39.808 50.6406 40.064C50.5446 40.32 50.438 40.5653 50.3206 40.8C50.1606 41.12 49.974 41.36 49.7606 41.52C49.558 41.6693 49.286 41.7813 48.9446 41.856V42C49.35 42.0747 49.654 42.1973 49.8566 42.368C50.07 42.5387 50.246 42.8053 50.3846 43.168C50.566 43.648 50.7686 44.1387 50.9926 44.64C51.2273 45.1413 51.5046 45.5947 51.8246 46H50.2246C50.1393 45.8933 50.0486 45.7547 49.9526 45.584C49.8673 45.4027 49.7766 45.2053 49.6806 44.992C49.5953 44.7787 49.51 44.5547 49.4246 44.32C49.3393 44.0853 49.2593 43.8507 49.1846 43.616C49.0673 43.2533 48.918 42.9707 48.7366 42.768C48.5553 42.5653 48.262 42.464 47.8566 42.464H47.0726V46H45.7126ZM62.5691 44.832V47.984H61.4011V46H56.2011V47.984H55.0331V44.832H55.1771C55.5611 44.832 55.8491 44.6827 56.0411 44.384C56.2438 44.0853 56.4038 43.6427 56.5211 43.056C56.5531 42.896 56.5798 42.64 56.6011 42.288C56.6331 41.9253 56.6545 41.5147 56.6651 41.056C56.6865 40.5973 56.7025 40.1013 56.7131 39.568C56.7345 39.0347 56.7505 38.512 56.7611 38H61.6411V44.832H62.5691ZM60.3131 44.832V39.168H57.9611C57.9398 39.5627 57.9238 39.9467 57.9131 40.32C57.9025 40.6933 57.8865 41.04 57.8651 41.36C57.8545 41.6693 57.8385 41.9467 57.8171 42.192C57.8065 42.4373 57.7958 42.624 57.7851 42.752C57.7318 43.2747 57.6145 43.6907 57.4331 44C57.2518 44.2987 57.0065 44.5387 56.6971 44.72V44.832H60.3131ZM66.8906 46.16C65.824 46.16 64.992 45.8027 64.3946 45.088C63.7973 44.3627 63.4986 43.3333 63.4986 42C63.4986 40.6667 63.7973 39.6427 64.3946 38.928C64.992 38.2027 65.824 37.84 66.8906 37.84C67.9573 37.84 68.7893 38.2027 69.3866 38.928C69.984 39.6427 70.2826 40.6667 70.2826 42C70.2826 43.3333 69.984 44.3627 69.3866 45.088C68.7893 45.8027 67.9573 46.16 66.8906 46.16ZM66.8906 45.088C67.52 45.088 68.0106 44.832 68.3626 44.32C68.7146 43.808 68.8906 43.0347 68.8906 42C68.8906 40.976 68.7146 40.208 68.3626 39.696C68.0106 39.184 67.52 38.928 66.8906 38.928C66.2506 38.928 65.7546 39.184 65.4026 39.696C65.0613 40.208 64.8906 40.976 64.8906 42C64.8906 43.0347 65.0613 43.808 65.4026 44.32C65.7546 44.832 66.2506 45.088 66.8906 45.088ZM71.9626 46V38H76.6346V39.168H73.2906V46H71.9626ZM80.5781 46.16C79.5115 46.16 78.6795 45.8027 78.0821 45.088C77.4848 44.3627 77.1861 43.3333 77.1861 42C77.1861 40.6667 77.4848 39.6427 78.0821 38.928C78.6795 38.2027 79.5115 37.84 80.5781 37.84C81.6448 37.84 82.4768 38.2027 83.0741 38.928C83.6715 39.6427 83.9701 40.6667 83.9701 42C83.9701 43.3333 83.6715 44.3627 83.0741 45.088C82.4768 45.8027 81.6448 46.16 80.5781 46.16ZM80.5781 45.088C81.2075 45.088 81.6981 44.832 82.0501 44.32C82.4021 43.808 82.5781 43.0347 82.5781 42C82.5781 40.976 82.4021 40.208 82.0501 39.696C81.6981 39.184 81.2075 38.928 80.5781 38.928C79.9381 38.928 79.4421 39.184 79.0901 39.696C78.7488 40.208 78.5781 40.976 78.5781 42C78.5781 43.0347 78.7488 43.808 79.0901 44.32C79.4421 44.832 79.9381 45.088 80.5781 45.088ZM85.6501 38H89.1061C89.4048 38 89.6928 38.0373 89.9701 38.112C90.2581 38.176 90.5088 38.288 90.7221 38.448C90.9461 38.608 91.1221 38.816 91.2501 39.072C91.3781 39.3173 91.4421 39.6213 91.4421 39.984C91.4421 40.1653 91.4101 40.352 91.3461 40.544C91.2821 40.7253 91.1808 40.9013 91.0421 41.072C90.9141 41.2427 90.7435 41.392 90.5301 41.52C90.3275 41.648 90.0821 41.744 89.7941 41.808V41.92C90.1568 41.9413 90.4608 42.016 90.7061 42.144C90.9621 42.2613 91.1648 42.4107 91.3141 42.592C91.4635 42.7627 91.5701 42.9547 91.6341 43.168C91.7088 43.3707 91.7461 43.568 91.7461 43.76C91.7461 44.2507 91.6181 44.6773 91.3621 45.04C91.1061 45.4027 90.7221 45.664 90.2101 45.824C89.9968 45.8987 89.7728 45.9467 89.5381 45.968C89.3035 45.9893 89.0421 46 88.7541 46H85.6501V38ZM88.8661 44.928C89.3141 44.928 89.6821 44.832 89.9701 44.64C90.2581 44.448 90.4021 44.128 90.4021 43.68C90.4021 43.456 90.3595 43.2693 90.2741 43.12C90.1888 42.9707 90.0768 42.848 89.9381 42.752C89.7995 42.656 89.6395 42.5867 89.4581 42.544C89.2768 42.5013 89.0955 42.48 88.9141 42.48H86.9781V44.928H88.8661ZM88.6261 41.408C89.0208 41.408 89.3675 41.3067 89.6661 41.104C89.9648 40.9013 90.1141 40.592 90.1141 40.176C90.1141 39.7707 89.9808 39.488 89.7141 39.328C89.4581 39.1573 89.1595 39.072 88.8181 39.072H86.9781V41.408H88.6261ZM96.4219 46.16C95.3552 46.16 94.5232 45.8027 93.9259 45.088C93.3285 44.3627 93.0299 43.3333 93.0299 42C93.0299 40.6667 93.3285 39.6427 93.9259 38.928C94.5232 38.2027 95.3552 37.84 96.4219 37.84C97.4885 37.84 98.3205 38.2027 98.9179 38.928C99.5152 39.6427 99.8139 40.6667 99.8139 42C99.8139 43.3333 99.5152 44.3627 98.9179 45.088C98.3205 45.8027 97.4885 46.16 96.4219 46.16ZM96.4219 45.088C97.0512 45.088 97.5419 44.832 97.8939 44.32C98.2459 43.808 98.4219 43.0347 98.4219 42C98.4219 40.976 98.2459 40.208 97.8939 39.696C97.5419 39.184 97.0512 38.928 96.4219 38.928C95.7819 38.928 95.2859 39.184 94.9339 39.696C94.5925 40.208 94.4219 40.976 94.4219 42C94.4219 43.0347 94.5925 43.808 94.9339 44.32C95.2859 44.832 95.7819 45.088 96.4219 45.088ZM105.174 46.16C104.598 46.16 104.107 46.0053 103.702 45.696C103.297 45.376 102.987 44.8853 102.774 44.224L102.63 44.24C102.683 44.528 102.737 44.8373 102.79 45.168C102.843 45.488 102.87 45.7493 102.87 45.952V48.848H101.542V38H102.87V38.128C102.87 38.3307 102.843 38.5973 102.79 38.928C102.737 39.248 102.683 39.552 102.63 39.84L102.774 39.856C102.987 39.184 103.307 38.6827 103.734 38.352C104.161 38.0107 104.646 37.84 105.19 37.84C105.585 37.84 105.958 37.9253 106.31 38.096C106.673 38.2667 106.987 38.528 107.254 38.88C107.531 39.2213 107.75 39.6533 107.91 40.176C108.07 40.688 108.15 41.296 108.15 42C108.15 42.7253 108.059 43.3493 107.878 43.872C107.707 44.3947 107.478 44.8267 107.19 45.168C106.913 45.5093 106.593 45.76 106.23 45.92C105.878 46.08 105.526 46.16 105.174 46.16ZM104.774 44.992C105.403 44.992 105.878 44.7413 106.198 44.24C106.529 43.7387 106.694 42.9973 106.694 42.016C106.694 41.0453 106.529 40.3093 106.198 39.808C105.878 39.296 105.403 39.04 104.774 39.04C104.134 39.04 103.654 39.296 103.334 39.808C103.014 40.3093 102.854 41.0453 102.854 42.016C102.854 42.9973 103.014 43.7387 103.334 44.24C103.654 44.7413 104.134 44.992 104.774 44.992ZM109.789 40.368C109.693 39.6107 109.901 39.0027 110.413 38.544C110.925 38.0747 111.667 37.84 112.637 37.84C113.139 37.84 113.56 37.904 113.901 38.032C114.243 38.16 114.52 38.352 114.733 38.608C114.947 38.8533 115.096 39.1573 115.181 39.52C115.277 39.872 115.325 40.272 115.325 40.72V46H113.965V45.872C113.965 45.7653 113.992 45.568 114.045 45.28C114.109 44.9813 114.168 44.6933 114.221 44.416H114.077C113.992 44.6613 113.885 44.8907 113.757 45.104C113.64 45.3173 113.485 45.504 113.293 45.664C113.112 45.8133 112.893 45.9307 112.637 46.016C112.381 46.112 112.083 46.16 111.741 46.16C111.325 46.16 110.968 46.096 110.669 45.968C110.381 45.84 110.141 45.6693 109.949 45.456C109.757 45.2427 109.613 45.0027 109.517 44.736C109.432 44.4587 109.389 44.176 109.389 43.888C109.389 43.2267 109.533 42.7093 109.821 42.336C110.12 41.952 110.493 41.6587 110.941 41.456C111.4 41.2533 111.896 41.12 112.429 41.056C112.973 40.992 113.496 40.9493 113.997 40.928V40.624C113.997 39.472 113.496 38.896 112.493 38.896C111.971 38.896 111.581 39.0293 111.325 39.296C111.08 39.5627 111 39.92 111.085 40.368H109.789ZM112.237 45.136C112.568 45.136 112.845 45.0667 113.069 44.928C113.293 44.7787 113.475 44.5867 113.613 44.352C113.752 44.1067 113.848 43.8347 113.901 43.536C113.965 43.2267 113.997 42.9067 113.997 42.576V41.776C113.357 41.7973 112.824 41.8613 112.397 41.968C111.981 42.0747 111.645 42.2133 111.389 42.384C111.144 42.544 110.968 42.736 110.861 42.96C110.755 43.184 110.701 43.424 110.701 43.68C110.701 44.1173 110.845 44.4693 111.133 44.736C111.421 45.0027 111.789 45.136 112.237 45.136ZM26.616 63.832V66.984H25.448V65H20.248V66.984H19.08V63.832H19.224C19.608 63.832 19.896 63.6827 20.088 63.384C20.2907 63.0853 20.4507 62.6427 20.568 62.056C20.6 61.896 20.6267 61.64 20.648 61.288C20.68 60.9253 20.7013 60.5147 20.712 60.056C20.7333 59.5973 20.7493 59.1013 20.76 58.568C20.7813 58.0347 20.7973 57.512 20.808 57H25.688V63.832H26.616ZM24.36 63.832V58.168H22.008C21.9867 58.5627 21.9707 58.9467 21.96 59.32C21.9493 59.6933 21.9333 60.04 21.912 60.36C21.9013 60.6693 21.8853 60.9467 21.864 61.192C21.8533 61.4373 21.8427 61.624 21.832 61.752C21.7787 62.2747 21.6613 62.6907 21.48 63C21.2987 63.2987 21.0533 63.5387 20.744 63.72V63.832H24.36ZM30.9375 65.16C29.8708 65.16 29.0388 64.8027 28.4415 64.088C27.8442 63.3627 27.5455 62.3333 27.5455 61C27.5455 59.6667 27.8442 58.6427 28.4415 57.928C29.0388 57.2027 29.8708 56.84 30.9375 56.84C32.0042 56.84 32.8362 57.2027 33.4335 57.928C34.0308 58.6427 34.3295 59.6667 34.3295 61C34.3295 62.3333 34.0308 63.3627 33.4335 64.088C32.8362 64.8027 32.0042 65.16 30.9375 65.16ZM30.9375 64.088C31.5668 64.088 32.0575 63.832 32.4095 63.32C32.7615 62.808 32.9375 62.0347 32.9375 61C32.9375 59.976 32.7615 59.208 32.4095 58.696C32.0575 58.184 31.5668 57.928 30.9375 57.928C30.2975 57.928 29.8015 58.184 29.4495 58.696C29.1082 59.208 28.9375 59.976 28.9375 61C28.9375 62.0347 29.1082 62.808 29.4495 63.32C29.8015 63.832 30.2975 64.088 30.9375 64.088ZM41.7284 63.752V56.248H41.6324C41.419 56.7173 41.115 57.0853 40.7204 57.352C40.3257 57.608 39.8884 57.736 39.4084 57.736V56.408C40.0804 56.3653 40.635 56.1787 41.0724 55.848C41.5204 55.5067 41.835 55.1013 42.0164 54.632H43.1204V63.752H45.5364V65H39.2804V63.752H41.7284ZM50.3289 65.176C49.8169 65.176 49.3582 65.0533 48.9529 64.808C48.5475 64.5627 48.2009 64.2107 47.9129 63.752C47.6249 63.2933 47.4009 62.7387 47.2409 62.088C47.0915 61.4373 47.0169 60.7067 47.0169 59.896C47.0169 59.064 47.0915 58.3173 47.2409 57.656C47.3902 56.984 47.6089 56.4133 47.8969 55.944C48.1849 55.4747 48.5315 55.1173 48.9369 54.872C49.3529 54.616 49.8222 54.488 50.3449 54.488C50.8462 54.488 51.2995 54.6107 51.7049 54.856C52.1102 55.1013 52.4515 55.4533 52.7289 55.912C53.0169 56.3707 53.2355 56.9253 53.3849 57.576C53.5449 58.2267 53.6249 58.9573 53.6249 59.768C53.6249 60.6 53.5502 61.352 53.4009 62.024C53.2622 62.6853 53.0489 63.2507 52.7609 63.72C52.4835 64.1893 52.1369 64.552 51.7209 64.808C51.3155 65.0533 50.8515 65.176 50.3289 65.176ZM50.3129 63.992C50.8889 63.992 51.3422 63.6347 51.6729 62.92C52.0142 62.2053 52.1849 61.2027 52.1849 59.912C52.1849 58.5787 52.0195 57.544 51.6889 56.808C51.3582 56.0613 50.8995 55.688 50.3129 55.688C49.7369 55.688 49.2782 56.056 48.9369 56.792C48.6062 57.5173 48.4409 58.5307 48.4409 59.832C48.4409 61.1547 48.6062 62.1787 48.9369 62.904C49.2782 63.6293 49.7369 63.992 50.3129 63.992ZM57.6306 63.864C57.9826 63.9067 58.2546 63.8907 58.4466 63.816C58.6386 63.7307 58.7826 63.5227 58.8786 63.192C58.9746 62.8613 59.0386 62.3813 59.0706 61.752C59.1026 61.112 59.1293 60.2587 59.1506 59.192L59.1986 57H64.0626V65H62.7346V58.168H60.4146L60.3826 59.48C60.3506 60.7813 60.3026 61.8107 60.2386 62.568C60.1746 63.3253 60.0466 63.896 59.8546 64.28C59.6733 64.664 59.4066 64.8933 59.0546 64.968C58.7026 65.0427 58.228 65.048 57.6306 64.984V63.864ZM72.0686 62.344C72.09 62.7813 72.0313 63.176 71.8926 63.528C71.7646 63.88 71.5673 64.1787 71.3006 64.424C71.034 64.6587 70.7086 64.84 70.3246 64.968C69.9513 65.096 69.5353 65.16 69.0766 65.16C68.5006 65.16 67.9993 65.0533 67.5726 64.84C67.1566 64.6267 66.81 64.3333 66.5326 63.96C66.266 63.5867 66.0686 63.1493 65.9406 62.648C65.8126 62.136 65.7486 61.5867 65.7486 61C65.7486 60.424 65.818 59.8853 65.9566 59.384C66.0953 58.872 66.3033 58.4293 66.5806 58.056C66.858 57.6827 67.2046 57.3893 67.6206 57.176C68.0473 56.952 68.5433 56.84 69.1086 56.84C69.6206 56.84 70.0633 56.9307 70.4366 57.112C70.81 57.2933 71.1193 57.5387 71.3646 57.848C71.61 58.1467 71.7913 58.504 71.9086 58.92C72.026 59.3253 72.0846 59.7573 72.0846 60.216C72.0846 60.3547 72.0793 60.5093 72.0686 60.68C72.058 60.84 72.042 60.9947 72.0206 61.144H67.1406C67.162 62.1787 67.3593 62.9307 67.7326 63.4C68.1166 63.8587 68.5913 64.088 69.1566 64.088C69.3593 64.088 69.562 64.056 69.7646 63.992C69.978 63.928 70.1646 63.832 70.3246 63.704C70.4846 63.5653 70.6073 63.384 70.6926 63.16C70.778 62.936 70.81 62.664 70.7886 62.344H72.0686ZM69.0446 57.928C68.4686 57.928 68.0206 58.1253 67.7006 58.52C67.3913 58.9147 67.21 59.464 67.1566 60.168H70.7406V60.072C70.7406 59.3573 70.5913 58.824 70.2926 58.472C69.994 58.1093 69.578 57.928 69.0446 57.928ZM75.3409 65V58.168H72.9569V57H79.0849V58.168H76.7009V65H75.3409Z" fill="white" data-color-group="0"/><path d="M1.05553 38.0558H7.19053L4.12303 41.1233L1.05553 44.1908V38.0558Z" fill="white" data-color-group="0"/><path d="M1.05553 38.0558H7.19053L4.12303 41.1233L1.05553 44.1908V38.0558Z" fill="white" data-color-group="0"/><path d="M21.688 95.752C21.688 95.752 21.7253 95.656 21.8 95.464C21.8853 95.272 21.992 95.0267 22.12 94.728C22.248 94.4187 22.3973 94.072 22.568 93.688C22.7493 93.2933 22.9413 92.904 23.144 92.52L26.232 86.632H27.96V97H26.568V91.192C26.568 90.6587 26.5787 90.1253 26.6 89.592C26.6213 89.0587 26.6907 88.4987 26.808 87.912L26.648 87.88C26.5733 88.1253 26.4987 88.3547 26.424 88.568C26.3493 88.7813 26.264 89 26.168 89.224C26.072 89.4373 25.96 89.672 25.832 89.928C25.7147 90.1733 25.576 90.4507 25.416 90.76L22.136 97H20.392V86.632H21.784V92.6C21.784 93.1227 21.768 93.6347 21.736 94.136C21.7147 94.6267 21.656 95.1547 21.56 95.72L21.688 95.752ZM30.4314 97V89H31.7914V92.328H35.1514V89H36.5114V97H35.1514V93.496H31.7914V97H30.4314ZM45.1941 95.832V98.984H44.0261V97H38.8261V98.984H37.6581V95.832H37.8021C38.1861 95.832 38.4741 95.6827 38.6661 95.384C38.8688 95.0853 39.0288 94.6427 39.1461 94.056C39.1781 93.896 39.2048 93.64 39.2261 93.288C39.2581 92.9253 39.2795 92.5147 39.2901 92.056C39.3115 91.5973 39.3275 91.1013 39.3381 90.568C39.3595 90.0347 39.3755 89.512 39.3861 89H44.2661V95.832H45.1941ZM42.9381 95.832V90.168H40.5861C40.5648 90.5627 40.5488 90.9467 40.5381 91.32C40.5275 91.6933 40.5115 92.04 40.4901 92.36C40.4795 92.6693 40.4635 92.9467 40.4421 93.192C40.4315 93.4373 40.4208 93.624 40.4101 93.752C40.3568 94.2747 40.2395 94.6907 40.0581 95C39.8768 95.2987 39.6315 95.5387 39.3221 95.72V95.832H42.9381ZM46.5876 97V89H47.9156V92.248C47.9156 92.536 47.9103 92.8453 47.8996 93.176C47.889 93.5067 47.873 93.8373 47.8516 94.168C47.8303 94.488 47.7983 94.792 47.7556 95.08C47.7236 95.368 47.681 95.6027 47.6276 95.784L47.7876 95.832C47.8623 95.6613 47.937 95.48 48.0116 95.288C48.0863 95.096 48.177 94.8773 48.2836 94.632C48.3903 94.3867 48.513 94.1093 48.6516 93.8C48.7903 93.4907 48.9663 93.1333 49.1796 92.728L51.1156 89H52.6836V97H51.3556V93.752C51.3556 93.464 51.361 93.1547 51.3716 92.824C51.3823 92.4933 51.3983 92.168 51.4196 91.848C51.441 91.5173 51.4676 91.208 51.4996 90.92C51.5423 90.632 51.5903 90.3973 51.6436 90.216L51.4836 90.168C51.409 90.3387 51.3343 90.52 51.2596 90.712C51.185 90.904 51.0943 91.1227 50.9876 91.368C50.881 91.6133 50.753 91.8907 50.6036 92.2C50.465 92.5093 50.2943 92.8667 50.0916 93.272L48.1556 97H46.5876ZM54.822 89H58.278C58.5767 89 58.8647 89.0373 59.142 89.112C59.43 89.176 59.6807 89.288 59.894 89.448C60.118 89.608 60.294 89.816 60.422 90.072C60.55 90.3173 60.614 90.6213 60.614 90.984C60.614 91.1653 60.582 91.352 60.518 91.544C60.454 91.7253 60.3527 91.9013 60.214 92.072C60.086 92.2427 59.9153 92.392 59.702 92.52C59.4993 92.648 59.254 92.744 58.966 92.808V92.92C59.3287 92.9413 59.6327 93.016 59.878 93.144C60.134 93.2613 60.3367 93.4107 60.486 93.592C60.6353 93.7627 60.742 93.9547 60.806 94.168C60.8807 94.3707 60.918 94.568 60.918 94.76C60.918 95.2507 60.79 95.6773 60.534 96.04C60.278 96.4027 59.894 96.664 59.382 96.824C59.1687 96.8987 58.9447 96.9467 58.71 96.968C58.4753 96.9893 58.214 97 57.926 97H54.822V89ZM58.038 95.928C58.486 95.928 58.854 95.832 59.142 95.64C59.43 95.448 59.574 95.128 59.574 94.68C59.574 94.456 59.5313 94.2693 59.446 94.12C59.3607 93.9707 59.2487 93.848 59.11 93.752C58.9713 93.656 58.8113 93.5867 58.63 93.544C58.4487 93.5013 58.2673 93.48 58.086 93.48H56.15V95.928H58.038ZM57.798 92.408C58.1927 92.408 58.5393 92.3067 58.838 92.104C59.1367 91.9013 59.286 91.592 59.286 91.176C59.286 90.7707 59.1527 90.488 58.886 90.328C58.63 90.1573 58.3313 90.072 57.99 90.072H56.15V92.408H57.798ZM62.6658 97V89H63.9938V92.248C63.9938 92.536 63.9884 92.8453 63.9778 93.176C63.9671 93.5067 63.9511 93.8373 63.9298 94.168C63.9084 94.488 63.8764 94.792 63.8338 95.08C63.8018 95.368 63.7591 95.6027 63.7057 95.784L63.8658 95.832C63.9404 95.6613 64.0151 95.48 64.0898 95.288C64.1644 95.096 64.2551 94.8773 64.3618 94.632C64.4684 94.3867 64.5911 94.1093 64.7298 93.8C64.8684 93.4907 65.0444 93.1333 65.2578 92.728L67.1938 89H68.7618V97H67.4338V93.752C67.4338 93.464 67.4391 93.1547 67.4498 92.824C67.4604 92.4933 67.4764 92.168 67.4978 91.848C67.5191 91.5173 67.5458 91.208 67.5778 90.92C67.6204 90.632 67.6684 90.3973 67.7218 90.216L67.5618 90.168C67.4871 90.3387 67.4124 90.52 67.3378 90.712C67.2631 90.904 67.1724 91.1227 67.0658 91.368C66.9591 91.6133 66.8311 91.8907 66.6818 92.2C66.5431 92.5093 66.3724 92.8667 66.1698 93.272L64.2338 97H62.6658ZM77.4441 95.832V98.984H76.2761V97H71.0761V98.984H69.9081V95.832H70.0521C70.4361 95.832 70.7241 95.6827 70.9161 95.384C71.1188 95.0853 71.2788 94.6427 71.3961 94.056C71.4281 93.896 71.4548 93.64 71.4761 93.288C71.5081 92.9253 71.5295 92.5147 71.5401 92.056C71.5615 91.5973 71.5775 91.1013 71.5881 90.568C71.6095 90.0347 71.6255 89.512 71.6361 89H76.5161V95.832H77.4441ZM75.1881 95.832V90.168H72.8361C72.8148 90.5627 72.7988 90.9467 72.7881 91.32C72.7775 91.6933 72.7615 92.04 72.7401 92.36C72.7295 92.6693 72.7135 92.9467 72.6921 93.192C72.6815 93.4373 72.6708 93.624 72.6601 93.752C72.6068 94.2747 72.4895 94.6907 72.3081 95C72.1268 95.2987 71.8815 95.5387 71.5721 95.72V95.832H75.1881ZM81.3816 95.8C81.4243 95.5653 81.467 95.336 81.5096 95.112C81.563 94.888 81.6216 94.6533 81.6856 94.408C81.7603 94.152 81.8403 93.88 81.9256 93.592C82.011 93.2933 82.107 92.952 82.2136 92.568L83.2376 89H84.4856L81.1096 99.848H79.7656L80.5496 97.432L77.8936 89H79.3336L80.3576 92.568C80.4963 93.0693 80.6136 93.4907 80.7096 93.832C80.8056 94.1733 80.8856 94.4613 80.9496 94.696C81.0136 94.9307 81.0616 95.1333 81.0936 95.304C81.1256 95.4747 81.1576 95.64 81.1896 95.8H81.3816ZM85.4611 91.368C85.3651 90.6107 85.5731 90.0027 86.0851 89.544C86.5971 89.0747 87.3385 88.84 88.3091 88.84C88.8105 88.84 89.2318 88.904 89.5731 89.032C89.9145 89.16 90.1918 89.352 90.4051 89.608C90.6185 89.8533 90.7678 90.1573 90.8531 90.52C90.9491 90.872 90.9971 91.272 90.9971 91.72V97H89.6371V96.872C89.6371 96.7653 89.6638 96.568 89.7171 96.28C89.7811 95.9813 89.8398 95.6933 89.8931 95.416H89.7491C89.6638 95.6613 89.5571 95.8907 89.4291 96.104C89.3118 96.3173 89.1571 96.504 88.9651 96.664C88.7838 96.8133 88.5651 96.9307 88.3091 97.016C88.0531 97.112 87.7545 97.16 87.4131 97.16C86.9971 97.16 86.6398 97.096 86.3411 96.968C86.0531 96.84 85.8131 96.6693 85.6211 96.456C85.4291 96.2427 85.2851 96.0027 85.1891 95.736C85.1038 95.4587 85.0611 95.176 85.0611 94.888C85.0611 94.2267 85.2051 93.7093 85.4931 93.336C85.7918 92.952 86.1651 92.6587 86.6131 92.456C87.0718 92.2533 87.5678 92.12 88.1011 92.056C88.6451 91.992 89.1678 91.9493 89.6691 91.928V91.624C89.6691 90.472 89.1678 89.896 88.1651 89.896C87.6425 89.896 87.2531 90.0293 86.9971 90.296C86.7518 90.5627 86.6718 90.92 86.7571 91.368H85.4611ZM87.9091 96.136C88.2398 96.136 88.5171 96.0667 88.7411 95.928C88.9651 95.7787 89.1465 95.5867 89.2851 95.352C89.4238 95.1067 89.5198 94.8347 89.5731 94.536C89.6371 94.2267 89.6691 93.9067 89.6691 93.576V92.776C89.0291 92.7973 88.4958 92.8613 88.0691 92.968C87.6531 93.0747 87.3171 93.2133 87.0611 93.384C86.8158 93.544 86.6398 93.736 86.5331 93.96C86.4265 94.184 86.3731 94.424 86.3731 94.68C86.3731 95.1173 86.5171 95.4693 86.8051 95.736C87.0931 96.0027 87.4611 96.136 87.9091 96.136ZM92.3025 95.864C92.6545 95.9067 92.9265 95.8907 93.1185 95.816C93.3105 95.7307 93.4545 95.5227 93.5505 95.192C93.6465 94.8613 93.7105 94.3813 93.7425 93.752C93.7745 93.112 93.8012 92.2587 93.8225 91.192L93.8705 89H98.7345V97H97.4065V90.168H95.0865L95.0545 91.48C95.0225 92.7813 94.9745 93.8107 94.9105 94.568C94.8465 95.3253 94.7185 95.896 94.5265 96.28C94.3452 96.664 94.0785 96.8933 93.7265 96.968C93.3745 97.0427 92.8998 97.048 92.3025 96.984V95.864ZM102.213 91.848H103.429C103.973 91.848 104.447 91.9173 104.853 92.056C105.258 92.184 105.594 92.3653 105.861 92.6C106.127 92.824 106.325 93.0907 106.453 93.4C106.581 93.7093 106.645 94.0453 106.645 94.408C106.645 94.7707 106.575 95.112 106.437 95.432C106.309 95.7413 106.111 96.0133 105.845 96.248C105.578 96.4827 105.242 96.6693 104.837 96.808C104.431 96.936 103.957 97 103.413 97H100.885V89H102.213V91.848ZM103.413 95.832C104.042 95.832 104.506 95.7253 104.805 95.512C105.103 95.288 105.253 94.9253 105.253 94.424C105.253 93.9227 105.103 93.5653 104.805 93.352C104.506 93.128 104.047 93.016 103.429 93.016H102.213V95.832H103.413ZM108.26 97V89H109.62V92.328H112.98V89H114.34V97H112.98V93.496H109.62V97H108.26ZM117.806 91.848H119.022C119.566 91.848 120.041 91.9173 120.446 92.056C120.852 92.184 121.188 92.3653 121.454 92.6C121.721 92.824 121.918 93.0907 122.046 93.4C122.174 93.7093 122.238 94.0453 122.238 94.408C122.238 94.7707 122.169 95.112 122.03 95.432C121.902 95.7413 121.705 96.0133 121.438 96.248C121.172 96.4827 120.836 96.6693 120.43 96.808C120.025 96.936 119.55 97 119.006 97H116.478V89H117.806V91.848ZM123.342 97V89H124.67V97H123.342ZM119.006 95.832C119.636 95.832 120.1 95.7253 120.398 95.512C120.697 95.288 120.846 94.9253 120.846 94.424C120.846 93.9227 120.697 93.5653 120.398 93.352C120.1 93.128 119.641 93.016 119.022 93.016H117.806V95.832H119.006ZM132.678 94.344C132.699 94.7813 132.641 95.176 132.502 95.528C132.374 95.88 132.177 96.1787 131.91 96.424C131.643 96.6587 131.318 96.84 130.934 96.968C130.561 97.096 130.145 97.16 129.686 97.16C129.11 97.16 128.609 97.0533 128.182 96.84C127.766 96.6267 127.419 96.3333 127.142 95.96C126.875 95.5867 126.678 95.1493 126.55 94.648C126.422 94.136 126.358 93.5867 126.358 93C126.358 92.424 126.427 91.8853 126.566 91.384C126.705 90.872 126.913 90.4293 127.19 90.056C127.467 89.6827 127.814 89.3893 128.23 89.176C128.657 88.952 129.153 88.84 129.718 88.84C130.23 88.84 130.673 88.9307 131.046 89.112C131.419 89.2933 131.729 89.5387 131.974 89.848C132.219 90.1467 132.401 90.504 132.518 90.92C132.635 91.3253 132.694 91.7573 132.694 92.216C132.694 92.3547 132.689 92.5093 132.678 92.68C132.667 92.84 132.651 92.9947 132.63 93.144H127.75C127.771 94.1787 127.969 94.9307 128.342 95.4C128.726 95.8587 129.201 96.088 129.766 96.088C129.969 96.088 130.171 96.056 130.374 95.992C130.587 95.928 130.774 95.832 130.934 95.704C131.094 95.5653 131.217 95.384 131.302 95.16C131.387 94.936 131.419 94.664 131.398 94.344H132.678ZM129.654 89.928C129.078 89.928 128.63 90.1253 128.31 90.52C128.001 90.9147 127.819 91.464 127.766 92.168H131.35V92.072C131.35 91.3573 131.201 90.824 130.902 90.472C130.603 90.1093 130.187 89.928 129.654 89.928ZM22.616 114.8C22.6587 114.565 22.7013 114.336 22.744 114.112C22.7973 113.888 22.856 113.653 22.92 113.408C22.9947 113.152 23.0747 112.88 23.16 112.592C23.2453 112.293 23.3413 111.952 23.448 111.568L24.472 108H25.72L22.344 118.848H21L21.784 116.432L19.128 108H20.568L21.592 111.568C21.7307 112.069 21.848 112.491 21.944 112.832C22.04 113.173 22.12 113.461 22.184 113.696C22.248 113.931 22.296 114.133 22.328 114.304C22.36 114.475 22.392 114.64 22.424 114.8H22.616ZM32.4738 112.928C32.5271 113.899 32.3084 114.683 31.8178 115.28C31.3378 115.867 30.5911 116.16 29.5778 116.16C28.9804 116.16 28.4684 116.059 28.0418 115.856C27.6151 115.653 27.2631 115.371 26.9858 115.008C26.7191 114.635 26.5218 114.192 26.3938 113.68C26.2764 113.168 26.2178 112.608 26.2178 112C26.2178 111.456 26.2764 110.933 26.3938 110.432C26.5218 109.931 26.7191 109.488 26.9858 109.104C27.2631 108.72 27.6151 108.416 28.0418 108.192C28.4684 107.957 28.9804 107.84 29.5778 107.84C30.0258 107.84 30.4364 107.915 30.8098 108.064C31.1938 108.203 31.5138 108.405 31.7698 108.672C32.0258 108.939 32.2124 109.269 32.3298 109.664C32.4578 110.059 32.5004 110.501 32.4578 110.992H31.1138C31.1564 110.651 31.1458 110.352 31.0818 110.096C31.0178 109.84 30.9111 109.627 30.7618 109.456C30.6231 109.285 30.4471 109.157 30.2338 109.072C30.0311 108.987 29.8124 108.944 29.5778 108.944C28.9591 108.944 28.4738 109.211 28.1218 109.744C27.7804 110.277 27.6098 111.029 27.6098 112C27.6098 113.035 27.7911 113.808 28.1538 114.32C28.5164 114.832 29.0018 115.088 29.6098 115.088C29.8231 115.088 30.0258 115.056 30.2178 114.992C30.4204 114.928 30.5911 114.816 30.7298 114.656C30.8791 114.485 30.9911 114.261 31.0658 113.984C31.1404 113.707 31.1671 113.355 31.1458 112.928H32.4738ZM33.3494 114.864C33.7014 114.907 33.9734 114.891 34.1654 114.816C34.3574 114.731 34.5014 114.523 34.5974 114.192C34.6934 113.861 34.7574 113.381 34.7894 112.752C34.8214 112.112 34.848 111.259 34.8694 110.192L34.9174 108H39.7814V116H38.4534V109.168H36.1334L36.1014 110.48C36.0694 111.781 36.0214 112.811 35.9574 113.568C35.8934 114.325 35.7654 114.896 35.5734 115.28C35.392 115.664 35.1254 115.893 34.7734 115.968C34.4214 116.043 33.9467 116.048 33.3494 115.984V114.864ZM44.8594 116.16C43.7927 116.16 42.9607 115.803 42.3634 115.088C41.766 114.363 41.4674 113.333 41.4674 112C41.4674 110.667 41.766 109.643 42.3634 108.928C42.9607 108.203 43.7927 107.84 44.8594 107.84C45.926 107.84 46.758 108.203 47.3554 108.928C47.9527 109.643 48.2514 110.667 48.2514 112C48.2514 113.333 47.9527 114.363 47.3554 115.088C46.758 115.803 45.926 116.16 44.8594 116.16ZM44.8594 115.088C45.4887 115.088 45.9794 114.832 46.3314 114.32C46.6834 113.808 46.8594 113.035 46.8594 112C46.8594 110.976 46.6834 110.208 46.3314 109.696C45.9794 109.184 45.4887 108.928 44.8594 108.928C44.2194 108.928 43.7234 109.184 43.3714 109.696C43.03 110.208 42.8594 110.976 42.8594 112C42.8594 113.035 43.03 113.808 43.3714 114.32C43.7234 114.832 44.2194 115.088 44.8594 115.088ZM49.9314 108H53.3874C53.686 108 53.974 108.037 54.2514 108.112C54.5394 108.176 54.79 108.288 55.0034 108.448C55.2274 108.608 55.4034 108.816 55.5314 109.072C55.6594 109.317 55.7234 109.621 55.7234 109.984C55.7234 110.165 55.6914 110.352 55.6274 110.544C55.5634 110.725 55.462 110.901 55.3234 111.072C55.1954 111.243 55.0247 111.392 54.8114 111.52C54.6087 111.648 54.3634 111.744 54.0754 111.808V111.92C54.438 111.941 54.742 112.016 54.9874 112.144C55.2434 112.261 55.446 112.411 55.5954 112.592C55.7447 112.763 55.8514 112.955 55.9154 113.168C55.99 113.371 56.0274 113.568 56.0274 113.76C56.0274 114.251 55.8994 114.677 55.6434 115.04C55.3874 115.403 55.0034 115.664 54.4914 115.824C54.278 115.899 54.054 115.947 53.8194 115.968C53.5847 115.989 53.3234 116 53.0354 116H49.9314V108ZM53.1474 114.928C53.5954 114.928 53.9634 114.832 54.2514 114.64C54.5394 114.448 54.6834 114.128 54.6834 113.68C54.6834 113.456 54.6407 113.269 54.5554 113.12C54.47 112.971 54.358 112.848 54.2194 112.752C54.0807 112.656 53.9207 112.587 53.7394 112.544C53.558 112.501 53.3767 112.48 53.1954 112.48H51.2594V114.928H53.1474ZM52.9074 111.408C53.302 111.408 53.6487 111.307 53.9474 111.104C54.246 110.901 54.3954 110.592 54.3954 110.176C54.3954 109.771 54.262 109.488 53.9954 109.328C53.7394 109.157 53.4407 109.072 53.0994 109.072H51.2594V111.408H52.9074ZM57.7751 116V108H59.1031V111.248C59.1031 111.536 59.0978 111.845 59.0871 112.176C59.0765 112.507 59.0605 112.837 59.0391 113.168C59.0178 113.488 58.9858 113.792 58.9431 114.08C58.9111 114.368 58.8685 114.603 58.8151 114.784L58.9751 114.832C59.0498 114.661 59.1245 114.48 59.1991 114.288C59.2738 114.096 59.3645 113.877 59.4711 113.632C59.5778 113.387 59.7005 113.109 59.8391 112.8C59.9778 112.491 60.1538 112.133 60.3671 111.728L62.3031 108H63.8711V116H62.5431V112.752C62.5431 112.464 62.5485 112.155 62.5591 111.824C62.5698 111.493 62.5858 111.168 62.6071 110.848C62.6285 110.517 62.6551 110.208 62.6871 109.92C62.7298 109.632 62.7778 109.397 62.8311 109.216L62.6711 109.168C62.5965 109.339 62.5218 109.52 62.4471 109.712C62.3725 109.904 62.2818 110.123 62.1751 110.368C62.0685 110.613 61.9405 110.891 61.7911 111.2C61.6525 111.509 61.4818 111.867 61.2791 112.272L59.3431 116H57.7751ZM66.9535 110.496C66.9535 110.731 66.9962 110.939 67.0815 111.12C67.1775 111.291 67.3002 111.435 67.4495 111.552C67.5988 111.659 67.7695 111.739 67.9615 111.792C68.1535 111.845 68.3508 111.872 68.5535 111.872H70.0095V109.168H68.4415C68.0468 109.168 67.7002 109.269 67.4015 109.472C67.1028 109.664 66.9535 110.005 66.9535 110.496ZM65.1295 116C65.2042 115.925 65.2842 115.803 65.3695 115.632C65.4655 115.461 65.5562 115.269 65.6415 115.056C65.7375 114.832 65.8228 114.608 65.8975 114.384C65.9828 114.16 66.0575 113.957 66.1215 113.776C66.2602 113.381 66.4575 113.077 66.7135 112.864C66.9802 112.64 67.3375 112.517 67.7855 112.496V112.336C67.3908 112.315 67.0548 112.245 66.7775 112.128C66.5002 112 66.2762 111.845 66.1055 111.664C65.9348 111.472 65.8068 111.264 65.7215 111.04C65.6468 110.805 65.6095 110.571 65.6095 110.336C65.6095 109.92 65.6842 109.568 65.8335 109.28C65.9935 108.981 66.2015 108.736 66.4575 108.544C66.7242 108.352 67.0282 108.213 67.3695 108.128C67.7108 108.043 68.0682 108 68.4415 108H71.3375V116H70.0095V112.976H68.7935C68.5908 112.976 68.4148 112.987 68.2655 113.008C68.1162 113.029 67.9882 113.072 67.8815 113.136C67.7748 113.2 67.6842 113.296 67.6095 113.424C67.5348 113.552 67.4655 113.723 67.4015 113.936C67.3162 114.224 67.2095 114.56 67.0815 114.944C66.9642 115.317 66.8308 115.669 66.6815 116H65.1295Z" fill="white" data-color-group="0"/><path d="M1.05553 89.0558H7.19053L4.12303 92.1233L1.05553 95.1908V89.0558Z" fill="white" data-color-group="0"/><path d="M1.05553 89.0558H7.19053L4.12303 92.1233L1.05553 95.1908V89.0558Z" fill="white" data-color-group="0"/></svg>