<svg width="197.576" height="137" viewBox="0 0 197.576 137" xmlns="http://www.w3.org/2000/svg"><g fill="#fff" stroke="#000"><path d="M10.95 4.99L9.575 8.415a28.848 28.848 0 00-.625 1.713 37.094 37.094 0 00-.487 1.6c-.142.508-.25.97-.325 1.387-.075.417-.121.775-.138 1.075h-.275c-.067-.583-.246-1.442-.537-2.575C6.896 10.482 6.4 9.09 5.7 7.44L4.65 4.99H.125l5.4 12.575L3.95 21.19H8.3l6.725-16.2zM25.375 17.74c0-.783-.25-1.433-.75-1.95-.5-.517-1.175-.85-2.025-1v-.325c.35-.067.68-.18.988-.337.308-.159.583-.363.825-.613a2.85 2.85 0 00.575-.875c.141-.333.212-.717.212-1.15 0-.6-.15-1.12-.45-1.562a3.64 3.64 0 00-1.2-1.1 5.646 5.646 0 00-1.738-.638c-.658-.133-1.354-.2-2.087-.2-.883 0-1.683.092-2.4.275-.717.183-1.312.458-1.787.825-.475.367-.813.83-1.013 1.388-.2.558-.225 1.212-.075 1.962h3.1c-.05-.317-.025-.58.075-.787.1-.209.242-.38.425-.513s.404-.23.663-.287c.258-.059.52-.088.787-.088.483 0 .896.113 1.238.338.341.225.512.579.512 1.062 0 .483-.167.83-.5 1.038-.333.208-.742.312-1.225.312H18.05v2.625h1.5c.5 0 .933.075 1.3.225.367.15.55.483.55 1 0 .5-.187.87-.562 1.113-.375.241-.83.362-1.363.362-.633 0-1.154-.154-1.562-.462-.409-.309-.563-.771-.463-1.388h-3.2c-.15.767-.117 1.433.1 2a3.207 3.207 0 001.05 1.413c.483.375 1.07.658 1.763.85a8.55 8.55 0 002.287.287c.9 0 1.713-.08 2.438-.237.725-.159 1.345-.396 1.862-.713a3.483 3.483 0 001.2-1.187c.283-.475.425-1.03.425-1.663zM27.125 21.19h4.1v-4.8H34.9v4.8H39V8.365h-4.1v4.775h-3.675V8.365h-4.1zM46.475 18.865c-.533 0-.97-.158-1.313-.475-.341-.317-.512-.725-.512-1.225 0-.3.063-.58.188-.838.124-.258.333-.483.624-.675.292-.191.684-.345 1.175-.462.492-.117 1.113-.192 1.863-.225v.925c0 .383-.033.754-.1 1.113a2.807 2.807 0 01-.35.95c-.167.275-.38.495-.638.662-.258.167-.57.25-.937.25zm-1.8 2.675c.567 0 1.063-.067 1.488-.2.425-.133.8-.308 1.125-.525.325-.217.6-.47.825-.762.225-.292.42-.605.587-.938l.325.175c-.1.317-.192.63-.275.938-.083.308-.125.579-.125.812v.15H52.6v-8.7c0-.667-.08-1.275-.237-1.825a3.202 3.202 0 00-.85-1.425c-.409-.4-.975-.708-1.7-.925-.725-.217-1.646-.325-2.763-.325-1.133 0-2.08.125-2.837.375-.759.25-1.355.583-1.788 1a3.132 3.132 0 00-.875 1.438 4.092 4.092 0 00-.1 1.687h3.4a2.439 2.439 0 01-.025-.775c.033-.25.12-.47.263-.662.141-.192.341-.346.6-.463.258-.117.579-.175.962-.175.633 0 1.1.154 1.4.463.3.308.45.745.45 1.312v.9c-.817.033-1.675.108-2.575.225-.9.117-1.725.342-2.475.675a4.717 4.717 0 00-1.85 1.438c-.483.625-.725 1.47-.725 2.537 0 .433.083.867.25 1.3.167.433.413.817.738 1.15.324.333.72.604 1.187.813.467.208 1.008.312 1.625.312zM54.85 21.19h5.225l1.775-3.925a48.872 48.872 0 001.288-3.338 41.867 41.867 0 00.813-2.638l.349.051c-.05.267-.108.642-.175 1.125-.067.483-.13 1.008-.188 1.575a55.934 55.934 0 00-.15 1.725c-.041.583-.062 1.1-.062 1.55v3.875h3.95V8.365h-5.2L60.7 12.29c-.233.517-.463 1.07-.688 1.662a65.441 65.441 0 00-.625 1.713 39.72 39.72 0 00-.812 2.6l-.325-.05a31.791 31.791 0 00.35-2.713c.05-.575.096-1.154.137-1.737a22.26 22.26 0 00.063-1.575V8.365h-3.95zm2.275-17.125V6.79c.667.133 1.33.233 1.988.3a19.688 19.688 0 003.974 0c.659-.067 1.33-.167 2.013-.3V4.065c-1.35.25-2.683.375-4 .375-1.333 0-2.658-.125-3.975-.375zM72.4 21.19h4.1v-9.575h3.1v-3.25H69.3v3.25h3.1zM92.65 16.915H89.1c.067.783-.092 1.333-.475 1.65-.383.317-.908.475-1.575.475-.433 0-.796-.092-1.088-.275a2.157 2.157 0 01-.712-.738 3.43 3.43 0 01-.4-1.075 6.564 6.564 0 01-.125-1.312h7.95c.05-.283.083-.625.1-1.025.017-.4.025-.717.025-.95a7.92 7.92 0 00-.288-2.15 4.617 4.617 0 00-.975-1.813c-.458-.524-1.062-.941-1.812-1.25-.75-.308-1.675-.462-2.775-.462-1.15 0-2.133.183-2.95.55-.817.367-1.488.87-2.013 1.513a6.151 6.151 0 00-1.15 2.225 9.693 9.693 0 00-.362 2.687c0 .967.125 1.85.375 2.65.25.8.633 1.492 1.15 2.075.517.583 1.18 1.038 1.987 1.363.809.325 1.771.487 2.888.487.95 0 1.804-.104 2.562-.312.759-.209 1.388-.513 1.888-.913s.867-.883 1.1-1.45c.233-.567.308-1.217.225-1.95zm-5.6-6.5c.75 0 1.267.238 1.55.713.283.474.425 1.187.425 2.137v.125h-4.3c.017-.917.217-1.642.6-2.175.383-.533.958-.8 1.725-.8z" stroke-width=".025"/></g><g fill="#fff" stroke="#000"><path d="M12.8 43.64h0-3.45c.083.6.08 1.08-.012 1.438-.092.358-.238.633-.438.824-.2.192-.43.321-.687.388a3.04 3.04 0 01-.763.1c-.4 0-.75-.058-1.05-.175-.3-.117-.546-.33-.737-.637-.192-.309-.338-.73-.438-1.263-.1-.533-.15-1.217-.15-2.05 0-.8.046-1.462.138-1.987.091-.525.229-.946.412-1.263a1.5 1.5 0 01.725-.662c.3-.125.65-.188 1.05-.188.3 0 .583.038.85.113.267.075.492.212.675.412.183.2.317.47.4.813.083.341.075.779-.025 1.312h3.45c.2-1.667-.162-2.97-1.087-3.912-.925-.942-2.346-1.413-4.263-1.413-1.017 0-1.937.138-2.762.413-.825.275-1.525.691-2.1 1.25-.575.558-1.017 1.262-1.325 2.112-.309.85-.463 1.85-.463 3 0 1.167.154 2.175.463 3.025.308.85.75 1.554 1.325 2.113.575.558 1.275.97 2.1 1.237.825.267 1.745.4 2.762.4 1.033 0 1.913-.138 2.638-.413.725-.275 1.308-.654 1.75-1.137a3.816 3.816 0 00.9-1.713c.158-.658.195-1.37.112-2.137zM19.75 45.79h0-.375c0-.217-.03-.567-.088-1.05a28.489 28.489 0 00-.274-1.738 65.321 65.321 0 00-.463-2.25c-.183-.824-.4-1.687-.65-2.587l-.65-2.3H13.1l4.325 14.45-.925 2.825h4.3l5.175-17.275h-4.05l-.65 2.375c-.25.883-.467 1.73-.65 2.538a60.537 60.537 0 00-.462 2.212 37.11 37.11 0 00-.288 1.725 18.2 18.2 0 00-.125 1.075zM32 43.115l1.025 4.15H37.2l1.025-4.15c.2-.8.362-1.583.487-2.35a27.24 27.24 0 00.263-2.025h.325c-.033.283-.058.654-.075 1.112-.017.459-.025.98-.025 1.563s.012 1.217.037 1.9c.025.683.071 1.392.138 2.125l.275 3.25h3.85l-.925-12.825H36.95l-1.1 5c-.083.35-.154.712-.213 1.087l-.162 1.063c-.05.333-.092.646-.125.937-.033.292-.05.521-.05.688h-.375c0-.167-.017-.396-.05-.688a26.789 26.789 0 00-.125-.937c-.05-.333-.108-.688-.175-1.063a90.105 90.105 0 00-.2-1.087l-1.1-5H27.65l-.925 12.825h3.85l.275-3.25a39.32 39.32 0 00.138-2.125c.025-.683.037-1.317.037-1.9s-.008-1.104-.025-1.563c-.017-.458-.042-.829-.075-1.112h.325c.05.583.138 1.258.263 2.025a28.8 28.8 0 00.487 2.35zM50.525 43.115l1.025 4.15h4.175l1.025-4.15c.2-.8.362-1.583.487-2.35a27.24 27.24 0 00.263-2.025h.325c-.033.283-.058.654-.075 1.112-.017.459-.025.98-.025 1.563s.012 1.217.037 1.9c.025.683.071 1.392.138 2.125l.275 3.25h3.85L61.1 35.865h-5.625l-1.1 5c-.083.35-.154.712-.213 1.087L54 43.015c-.05.333-.092.646-.125.937-.033.292-.05.521-.05.688h-.375c0-.167-.017-.396-.05-.688a26.789 26.789 0 00-.125-.937c-.05-.333-.108-.688-.175-1.063a90.105 90.105 0 00-.2-1.087l-1.1-5h-5.625L45.25 48.69h3.85l.275-3.25a39.32 39.32 0 00.138-2.125c.025-.683.037-1.317.037-1.9s-.008-1.104-.025-1.563c-.017-.458-.042-.829-.075-1.112h.325c.05.583.138 1.258.263 2.025a28.8 28.8 0 00.487 2.35zM69.425 45.79h0-.375c0-.217-.03-.567-.087-1.05a28.489 28.489 0 00-.275-1.738 65.321 65.321 0 00-.463-2.25c-.183-.824-.4-1.687-.65-2.587l-.65-2.3h-4.15l4.325 14.45-.925 2.825h4.3l5.175-17.275H71.6l-.65 2.375c-.25.883-.467 1.73-.65 2.538a60.537 60.537 0 00-.463 2.212 37.11 37.11 0 00-.287 1.725 18.2 18.2 0 00-.125 1.075z" stroke-width=".025"/></g><g fill="#fff" stroke="#000"><path d="M4.2 67.99h-.35v-.325c0-.667.05-1.263.15-1.788.1-.524.275-.987.525-1.387s.592-.738 1.025-1.012c.433-.276.983-.496 1.65-.663.45-.117.875-.213 1.275-.288l1.188-.225c.391-.075.783-.162 1.175-.262.391-.1.787-.225 1.187-.375l-.225-3.8c-.35.15-.68.283-.987.4-.309.117-.646.225-1.013.325-.367.1-.78.2-1.237.3-.459.1-1.021.225-1.688.375-1.217.267-2.212.675-2.987 1.225a6.312 6.312 0 00-1.838 1.987c-.45.775-.758 1.655-.925 2.638-.167.983-.25 2.033-.25 3.15 0 1.283.117 2.437.35 3.462.233 1.025.604 1.892 1.113 2.6a5.029 5.029 0 001.987 1.638c.817.383 1.8.575 2.95.575 1 0 1.883-.17 2.65-.513a5.549 5.549 0 001.925-1.387 5.94 5.94 0 001.175-2.05c.267-.783.4-1.617.4-2.5a7.87 7.87 0 00-.325-2.313c-.217-.708-.525-1.316-.925-1.825a4.268 4.268 0 00-1.487-1.2c-.592-.291-1.263-.437-2.013-.437-.7 0-1.304.087-1.812.262-.509.175-.942.421-1.3.738-.359.317-.65.7-.875 1.15-.225.45-.388.958-.488 1.525zm2.925 5.275c-.667 0-1.158-.208-1.475-.625-.317-.417-.475-1.117-.475-2.1 0-1 .167-1.733.5-2.2.333-.467.817-.7 1.45-.7.667 0 1.163.217 1.488.65.325.433.487 1.142.487 2.125 0 1-.167 1.725-.5 2.175-.333.45-.825.675-1.475.675zM27.225 71.915h-3.55c.067.783-.092 1.333-.475 1.65-.383.317-.908.475-1.575.475-.433 0-.796-.092-1.088-.275a2.157 2.157 0 01-.712-.738 3.43 3.43 0 01-.4-1.075 6.564 6.564 0 01-.125-1.312h7.95c.05-.283.083-.625.1-1.025.017-.4.025-.717.025-.95a7.92 7.92 0 00-.287-2.15 4.617 4.617 0 00-.975-1.813c-.459-.525-1.063-.941-1.813-1.25-.75-.308-1.675-.462-2.775-.462-1.15 0-2.133.183-2.95.55-.817.367-1.488.87-2.013 1.512a6.151 6.151 0 00-1.15 2.225 9.693 9.693 0 00-.362 2.688c0 .967.125 1.85.375 2.65.25.8.633 1.492 1.15 2.075.517.583 1.18 1.037 1.988 1.362.808.325 1.77.488 2.887.488.95 0 1.804-.104 2.563-.313.758-.208 1.387-.512 1.887-.912s.867-.883 1.1-1.45c.233-.567.308-1.217.225-1.95zm-5.6-6.5c.75 0 1.267.237 1.55.712.283.476.425 1.188.425 2.138v.125h-4.3c.017-.917.217-1.642.6-2.175.383-.533.958-.8 1.725-.8zM39.725 72.74c0-.783-.25-1.433-.75-1.95-.5-.517-1.175-.85-2.025-1v-.325c.35-.067.68-.18.988-.338.308-.158.583-.362.824-.612a2.85 2.85 0 00.576-.875c.141-.333.212-.717.212-1.15 0-.6-.15-1.12-.45-1.563a3.64 3.64 0 00-1.2-1.1 5.646 5.646 0 00-1.738-.637c-.658-.133-1.354-.2-2.087-.2-.883 0-1.683.092-2.4.275-.717.183-1.312.458-1.787.825-.475.367-.813.83-1.013 1.387-.2.559-.225 1.213-.075 1.963h3.1c-.05-.317-.025-.58.075-.788.1-.208.242-.379.425-.512s.404-.23.663-.288c.258-.058.52-.087.787-.087.483 0 .896.112 1.238.337.341.225.512.58.512 1.063s-.167.83-.5 1.037c-.333.209-.742.313-1.225.313H32.4v2.625h1.5c.5 0 .933.075 1.3.225.367.15.55.483.55 1 0 .5-.188.87-.563 1.112-.374.242-.829.363-1.362.363-.633 0-1.154-.154-1.563-.463-.408-.308-.562-.77-.462-1.387h-3.2c-.15.767-.117 1.433.1 2a3.207 3.207 0 001.05 1.412c.483.375 1.07.659 1.763.85a8.55 8.55 0 002.287.288c.9 0 1.713-.08 2.438-.238.725-.158 1.345-.395 1.862-.712a3.483 3.483 0 001.2-1.188c.283-.475.425-1.029.425-1.662zM52.05 76.565c2.117 0 3.733-.58 4.85-1.738 1.117-1.158 1.675-2.837 1.675-5.037 0-2.2-.558-3.883-1.675-5.05-1.117-1.167-2.733-1.75-4.85-1.75-2.15 0-3.783.583-4.9 1.75-1.117 1.167-1.675 2.85-1.675 5.05 0 2.2.558 3.88 1.675 5.038 1.117 1.158 2.75 1.737 4.9 1.737zm0-2.65c-.383 0-.717-.067-1-.2a1.616 1.616 0 01-.7-.663c-.183-.308-.32-.729-.413-1.262-.091-.533-.137-1.2-.137-2 0-.783.046-1.438.138-1.963.091-.525.229-.95.412-1.275.183-.325.417-.558.7-.7a2.21 2.21 0 011-.212c.367 0 .688.07.963.212s.504.375.687.7c.183.325.32.75.413 1.275.091.525.137 1.18.137 1.963 0 .8-.046 1.467-.137 2-.092.533-.23.954-.413 1.262-.183.309-.413.53-.688.663-.274.133-.595.2-.962.2zM62.55 76.19h4.1v-9.575h3.1v-3.25h-10.3v3.25h3.1zM71.375 76.19h4.1v-4.8h1.1c.333 0 .58.083.737.25.159.167.271.392.338.675a25.49 25.49 0 00.612 1.975c.142.4.292.775.45 1.125.159.35.305.608.438.775h4.5a9.64 9.64 0 01-1.288-2.212 62.593 62.593 0 01-.962-2.388c-.217-.567-.488-.983-.813-1.25-.325-.267-.804-.458-1.437-.575v-.225c.533-.117.962-.296 1.287-.537.325-.242.613-.613.863-1.113.183-.367.35-.758.5-1.175.15-.417.3-.825.45-1.225.15-.4.325-.783.525-1.15.2-.367.442-.692.725-.975h-4.35c-.15.2-.308.483-.475.85-.167.367-.333.75-.5 1.15-.167.4-.313.775-.438 1.125-.124.35-.212.6-.262.75-.117.35-.246.588-.388.713-.141.125-.345.187-.612.187h-1v-4.775h-4.1zM91.275 73.99c-.65 0-1.183-.325-1.6-.975-.417-.65-.625-1.717-.625-3.2 0-1.5.208-2.575.625-3.225.417-.65.95-.975 1.6-.975.633 0 1.158.325 1.575.975.417.65.625 1.725.625 3.225 0 1.483-.208 2.55-.625 3.2-.417.65-.942.975-1.575.975zm1.525-11c-.467 0-.88.062-1.237.187a3.44 3.44 0 00-.975.525 3.797 3.797 0 00-.763.788c-.217.3-.425.617-.625.95l-.375-.175c.1-.317.175-.63.225-.938.05-.308.075-.579.075-.812v-.15h-4.1V80.64h4.1v-3.75c0-.433-.046-.863-.137-1.288-.092-.424-.205-.829-.338-1.212l.4-.15c.1.2.25.43.45.688a4.396 4.396 0 001.85 1.362c.417.167.892.25 1.425.25.7 0 1.354-.138 1.963-.413a4.306 4.306 0 001.587-1.25c.45-.558.804-1.258 1.063-2.1.258-.841.387-1.829.387-2.962 0-2.2-.442-3.888-1.325-5.063-.883-1.174-2.1-1.762-3.65-1.762zM112.15 76.19h4.1V63.365h-4.1zm-8.275-9.475v-3.35h-4.1V76.19h5.525c1.1 0 2.013-.154 2.738-.463.725-.308 1.304-.695 1.737-1.162.433-.467.742-.98.925-1.538a5.095 5.095 0 00.275-1.587c0-.65-.087-1.263-.262-1.838a3.443 3.443 0 00-.925-1.5c-.442-.425-1.025-.762-1.75-1.012-.725-.25-1.638-.375-2.738-.375zm1.15 6.375h-1.15v-3.275h1.15c.533 0 .958.13 1.275.388.317.258.475.679.475 1.262s-.158 1-.475 1.25c-.317.25-.742.375-1.275.375zM120.975 76.19h4.1v-9.575h3.1v-3.25h-10.3v3.25h3.1zM129.8 76.19h5.225l1.775-3.925a48.872 48.872 0 001.287-3.338 41.867 41.867 0 00.813-2.638l.35.051c-.05.267-.108.642-.175 1.125-.067.483-.13 1.008-.188 1.575a55.934 55.934 0 00-.15 1.725c-.041.583-.062 1.1-.062 1.55v3.875h3.95V63.365h-5.2l-1.775 3.925c-.233.517-.463 1.07-.688 1.662a65.441 65.441 0 00-.625 1.713 39.72 39.72 0 00-.812 2.6l-.325-.05a31.791 31.791 0 00.35-2.713c.05-.575.096-1.154.138-1.737a22.26 22.26 0 00.062-1.575v-3.825h-3.95zM149.05 67.515c0-.55.15-.95.45-1.2.3-.25.65-.375 1.05-.375h1.75v3.025h-1.625c-.417 0-.792-.133-1.125-.4a1.28 1.28 0 01-.5-1.05zm-4.8 8.675h4.375c.233-.533.446-1.042.638-1.525.191-.483.329-.967.412-1.45.117-.6.287-1.013.512-1.238.225-.225.563-.337 1.013-.337h1.1v4.55h4.1V63.365h-6.825c-.6 0-1.18.075-1.738.225a4.757 4.757 0 00-1.487.675c-.433.3-.78.68-1.038 1.137-.258.459-.387.996-.387 1.613 0 .383.07.758.212 1.125s.367.7.675 1c.309.3.713.55 1.213.75.5.2 1.1.317 1.8.35v.325c-.85.067-1.52.312-2.013.737-.491.425-.854.988-1.087 1.688-.1.283-.208.587-.325.912-.117.325-.242.638-.375.938-.133.3-.267.57-.4.812a2.44 2.44 0 01-.375.538z" stroke-width=".025"/></g><g fill="#fff" stroke="#000"><path d="M12.8 98.64h0-3.45c.083.6.08 1.08-.012 1.438-.092.358-.238.633-.438.824-.2.192-.43.321-.687.388a3.04 3.04 0 01-.763.1c-.4 0-.75-.058-1.05-.175-.3-.117-.546-.33-.737-.638-.192-.308-.338-.729-.438-1.262-.1-.533-.15-1.217-.15-2.05 0-.8.046-1.463.138-1.988.091-.524.229-.945.412-1.262a1.5 1.5 0 01.725-.663c.3-.124.65-.187 1.05-.187.3 0 .583.038.85.113.267.074.492.212.675.412.183.2.317.47.4.813.083.341.075.779-.025 1.312h3.45c.2-1.667-.162-2.97-1.087-3.913-.925-.941-2.346-1.412-4.263-1.412-1.017 0-1.937.138-2.762.413-.825.274-1.525.691-2.1 1.25-.575.558-1.017 1.262-1.325 2.112-.309.85-.463 1.85-.463 3 0 1.167.154 2.175.463 3.025.308.85.75 1.554 1.325 2.113.575.558 1.275.97 2.1 1.237.825.267 1.745.4 2.762.4 1.033 0 1.913-.138 2.638-.413.725-.274 1.308-.654 1.75-1.137a3.816 3.816 0 00.9-1.712c.158-.659.195-1.371.112-2.138zM26 90.865h-4.1v5.525c-.25.1-.517.175-.8.225-.283.05-.567.075-.85.075-.45 0-.842-.088-1.175-.263-.333-.175-.5-.504-.5-.987v-4.575h-4.1v5.1c0 .783.125 1.43.375 1.937.25.509.587.917 1.012 1.225.425.309.909.525 1.45.65a7.483 7.483 0 001.688.188c.5 0 1-.033 1.5-.1s.967-.167 1.4-.3v4.125H26zM40.175 99.415h-3.55c.067.783-.092 1.333-.475 1.65-.383.317-.908.475-1.575.475-.433 0-.796-.092-1.088-.275a2.157 2.157 0 01-.712-.738 3.43 3.43 0 01-.4-1.075 6.564 6.564 0 01-.125-1.312h7.95c.05-.283.083-.625.1-1.025.017-.4.025-.717.025-.95a7.92 7.92 0 00-.288-2.15 4.617 4.617 0 00-.974-1.813c-.459-.525-1.063-.941-1.813-1.25-.75-.308-1.675-.462-2.775-.462-1.15 0-2.133.183-2.95.55-.817.367-1.487.87-2.012 1.512a6.151 6.151 0 00-1.15 2.225A9.693 9.693 0 0028 97.465c0 .967.125 1.85.375 2.65.25.8.633 1.492 1.15 2.075.517.583 1.18 1.037 1.988 1.362.808.325 1.77.488 2.887.488.95 0 1.804-.104 2.563-.313.758-.208 1.387-.512 1.887-.912s.867-.883 1.1-1.45c.233-.567.308-1.217.225-1.95zm-5.6-6.5c.75 0 1.267.237 1.55.712.283.476.425 1.188.425 2.138v.125h-4.3c.017-.917.217-1.642.6-2.175.383-.533.958-.8 1.725-.8zM44.3 103.69h4.1v-9.575h3.1v-3.25H41.2v3.25h3.1zM57.975 101.365c-.533 0-.97-.158-1.313-.475-.341-.317-.512-.725-.512-1.225 0-.3.063-.58.188-.838.124-.258.333-.483.624-.674.292-.192.684-.346 1.175-.463.492-.117 1.113-.192 1.863-.225v.925c0 .383-.033.754-.1 1.113a2.807 2.807 0 01-.35.95c-.167.274-.38.495-.638.662-.258.167-.57.25-.937.25zm-1.8 2.675c.567 0 1.063-.067 1.488-.2.425-.133.8-.308 1.125-.525.325-.217.6-.47.825-.763.225-.291.42-.604.587-.937l.325.175c-.1.317-.192.63-.275.937-.083.309-.125.58-.125.813v.15H64.1v-8.7c0-.667-.08-1.275-.237-1.825a3.202 3.202 0 00-.85-1.425c-.409-.4-.975-.708-1.7-.925-.725-.217-1.646-.325-2.763-.325-1.133 0-2.08.125-2.837.375-.759.25-1.355.583-1.788 1a3.132 3.132 0 00-.875 1.437 4.092 4.092 0 00-.1 1.688h3.4a2.439 2.439 0 01-.025-.775c.033-.25.12-.47.263-.663.141-.191.341-.345.6-.462.258-.117.579-.175.962-.175.633 0 1.1.154 1.4.462.3.309.45.746.45 1.313v.9c-.817.033-1.675.108-2.575.225-.9.117-1.725.342-2.475.675a4.717 4.717 0 00-1.85 1.437c-.483.625-.725 1.471-.725 2.538 0 .433.083.867.25 1.3.167.433.413.817.738 1.15.324.333.72.604 1.187.812.467.209 1.008.313 1.625.313z" stroke-width=".025"/></g></svg>