<svg width="242.424" height="137" viewBox="0 0 242.424 137" xmlns="http://www.w3.org/2000/svg"><g fill="#fff" stroke="#000"><path d="M1.5 21.19h4.275v-6.2H7c.6 0 1.075.142 1.425.425.35.283.633.783.85 1.5.1.333.225.7.375 1.1.15.4.308.8.475 1.2.167.4.338.775.513 1.125.174.35.329.633.462.85h4.7c-.283-.45-.57-.954-.863-1.512a52.283 52.283 0 01-.837-1.675 41.268 41.268 0 01-1.25-2.888c-.233-.617-.546-1.075-.938-1.375-.391-.3-.987-.517-1.787-.65v-.25c.767-.117 1.333-.333 1.7-.65s.675-.8.925-1.45c.233-.583.588-1.387 1.063-2.412a72.701 72.701 0 011.662-3.338h-4.45c-.15.25-.313.575-.488.975s-.345.817-.512 1.25c-.167.433-.317.858-.45 1.275-.133.417-.25.775-.35 1.075-.2.583-.475 1.033-.825 1.35-.35.317-.817.475-1.4.475H5.775v-6.4H1.5zM23.425 18.99c-.65 0-1.183-.325-1.6-.975-.417-.65-.625-1.717-.625-3.2 0-1.5.208-2.575.625-3.225.417-.65.95-.975 1.6-.975.633 0 1.158.325 1.575.975.417.65.625 1.725.625 3.225 0 1.483-.208 2.55-.625 3.2-.417.65-.942.975-1.575.975zm1.525-11c-.467 0-.88.063-1.238.188a3.44 3.44 0 00-.975.525 3.797 3.797 0 00-.762.787c-.217.3-.425.617-.625.95l-.375-.175c.1-.317.175-.63.225-.938.05-.308.075-.579.075-.812v-.15h-4.1V25.64h4.1v-3.75c0-.433-.046-.863-.138-1.288-.091-.425-.204-.829-.337-1.212l.4-.15c.1.2.25.43.45.688a4.396 4.396 0 001.85 1.363c.417.166.892.249 1.425.249.7 0 1.354-.137 1.962-.412a4.306 4.306 0 001.588-1.25c.45-.559.804-1.259 1.062-2.1.259-.842.388-1.83.388-2.963 0-2.2-.442-3.888-1.325-5.063-.883-1.175-2.1-1.762-3.65-1.762zM43.725 16.915h-3.55c.067.783-.092 1.333-.475 1.65-.383.317-.908.475-1.575.475-.433 0-.796-.092-1.088-.275a2.157 2.157 0 01-.712-.738 3.43 3.43 0 01-.4-1.075 6.564 6.564 0 01-.125-1.312h7.95c.05-.283.083-.625.1-1.025.017-.4.025-.717.025-.95a7.92 7.92 0 00-.287-2.15 4.617 4.617 0 00-.975-1.813c-.459-.524-1.063-.941-1.813-1.25-.75-.308-1.675-.462-2.775-.462-1.15 0-2.133.183-2.95.55-.817.367-1.488.87-2.013 1.513a6.151 6.151 0 00-1.15 2.225 9.693 9.693 0 00-.362 2.687c0 .967.125 1.85.375 2.65.25.8.633 1.492 1.15 2.075.517.583 1.18 1.038 1.988 1.363.808.325 1.77.487 2.887.487.95 0 1.804-.104 2.563-.312.758-.209 1.387-.513 1.887-.913s.867-.883 1.1-1.45c.233-.567.308-1.217.225-1.95zm-5.6-6.5c.75 0 1.267.238 1.55.713.283.474.425 1.187.425 2.137v.125h-4.3c.017-.917.217-1.642.6-2.175.383-.533.958-.8 1.725-.8zM58.725 17.94h-1.35V8.365h-10.25v3.3c0 .667-.02 1.367-.063 2.1a10.568 10.568 0 01-.3 2.025c-.158.617-.391 1.13-.7 1.538-.308.408-.72.612-1.237.612h-.2v6.35H48.4v-3.1h6.55v3.1h3.775zm-5.45 0h-4.45v-.25c.433-.2.783-.45 1.05-.75s.47-.688.612-1.163c.142-.474.234-1.05.275-1.724.042-.675.063-1.488.063-2.438h2.45zM60.35 21.19h5.225l1.775-3.925a48.872 48.872 0 001.287-3.338 41.867 41.867 0 00.813-2.638l.35.051c-.05.267-.108.642-.175 1.125-.067.483-.13 1.008-.188 1.575a55.934 55.934 0 00-.15 1.725c-.041.583-.062 1.1-.062 1.55v3.875h3.95V8.365h-5.2L66.2 12.29c-.233.517-.463 1.07-.688 1.662a65.441 65.441 0 00-.625 1.713 39.72 39.72 0 00-.812 2.6l-.325-.05a31.791 31.791 0 00.35-2.713c.05-.575.096-1.154.137-1.737a22.26 22.26 0 00.063-1.575V8.365h-3.95zM77.9 21.19H82v-9.575h3.1v-3.25H74.8v3.25h3.1z" stroke-width=".025"/></g><g fill="#fff" stroke="#000"><path d="M14.35 45.44H13v-9.575H2.75v3.3c0 .667-.02 1.367-.062 2.1a10.568 10.568 0 01-.3 2.025c-.159.617-.392 1.13-.7 1.537-.309.409-.721.613-1.238.613h-.2v6.35h3.775v-3.1h6.55v3.1h3.775zm-5.45 0H4.45v-.25c.433-.2.783-.45 1.05-.75s.47-.688.613-1.163c.141-.475.233-1.05.275-1.725.041-.675.062-1.487.062-2.437H8.9zM14.975 45.515h0v3.15c1.367.183 2.458.188 3.275.013.817-.175 1.442-.6 1.875-1.275.433-.675.717-1.638.85-2.888s.2-2.867.2-4.85v-.925H23.4v9.95h4.1V35.865H17.25v3.15c0 1.55-.03 2.77-.087 3.663-.059.891-.167 1.562-.325 2.012-.159.45-.388.72-.688.813-.3.091-.692.095-1.175.012zM33.925 40.015c0-.55.15-.95.45-1.2.3-.25.65-.375 1.05-.375h1.75v3.025H35.55c-.417 0-.792-.133-1.125-.4a1.28 1.28 0 01-.5-1.05zm-4.8 8.675H33.5c.233-.533.446-1.042.638-1.525.191-.483.329-.967.412-1.45.117-.6.288-1.013.513-1.238.225-.224.562-.337 1.012-.337h1.1v4.55h4.1V35.865H34.45c-.6 0-1.18.075-1.737.225a4.757 4.757 0 00-1.488.675c-.433.3-.78.68-1.037 1.137-.259.459-.388.996-.388 1.613 0 .383.07.758.213 1.125.141.367.366.7.675 1 .308.3.712.55 1.212.75.5.2 1.1.317 1.8.35v.325c-.85.067-1.52.313-2.012.738-.492.424-.855.987-1.088 1.687-.1.283-.208.587-.325.912-.117.325-.242.638-.375.938-.133.3-.267.57-.4.812a2.44 2.44 0 01-.375.538zM59.825 43.64h0-3.45c.083.6.08 1.08-.013 1.438-.091.358-.237.633-.437.824-.2.192-.43.321-.688.388a3.04 3.04 0 01-.762.1c-.4 0-.75-.058-1.05-.175-.3-.117-.546-.33-.738-.637-.191-.309-.337-.73-.437-1.263-.1-.533-.15-1.217-.15-2.05 0-.8.046-1.462.138-1.987.091-.525.229-.946.412-1.263a1.5 1.5 0 01.725-.662c.3-.125.65-.188 1.05-.188.3 0 .583.038.85.113.267.075.492.212.675.412.183.2.317.47.4.813.083.341.075.779-.025 1.312h3.45c.2-1.667-.162-2.97-1.087-3.912-.925-.942-2.346-1.413-4.263-1.413-1.017 0-1.937.138-2.762.413-.825.275-1.525.691-2.1 1.25-.576.558-1.017 1.262-1.326 2.112-.308.85-.462 1.85-.462 3 0 1.167.154 2.175.463 3.025.308.85.75 1.554 1.324 2.113.576.558 1.276.97 2.1 1.237.826.267 1.746.4 2.763.4 1.033 0 1.913-.138 2.638-.413.725-.275 1.308-.654 1.75-1.137a3.816 3.816 0 00.9-1.713c.158-.658.195-1.37.112-2.137zM68.125 46.49c-.65 0-1.183-.325-1.6-.975-.417-.65-.625-1.717-.625-3.2 0-1.5.208-2.575.625-3.225.417-.65.95-.975 1.6-.975.633 0 1.158.325 1.575.975.417.65.625 1.725.625 3.225 0 1.483-.208 2.55-.625 3.2-.417.65-.942.975-1.575.975zm1.525-11c-.467 0-.88.062-1.238.187a3.44 3.44 0 00-.974.525 3.797 3.797 0 00-.763.788c-.217.3-.425.617-.625.95l-.375-.175c.1-.317.175-.63.225-.938.05-.308.075-.579.075-.812v-.15h-4.1V53.14h4.1v-3.75c0-.433-.046-.863-.137-1.288-.092-.424-.205-.829-.338-1.212l.4-.15c.1.2.25.43.45.688a4.396 4.396 0 001.85 1.362c.417.167.892.25 1.425.25.7 0 1.354-.138 1.963-.413a4.306 4.306 0 001.587-1.25c.45-.558.804-1.258 1.063-2.1.258-.841.387-1.829.387-2.962 0-2.2-.442-3.888-1.325-5.063-.883-1.175-2.1-1.762-3.65-1.762zM88.425 44.415h-3.55c.067.783-.092 1.333-.475 1.65-.383.317-.908.475-1.575.475-.433 0-.796-.092-1.088-.275a2.157 2.157 0 01-.712-.738 3.43 3.43 0 01-.4-1.074 6.564 6.564 0 01-.125-1.313h7.95c.05-.283.083-.625.1-1.025.017-.4.025-.717.025-.95a7.92 7.92 0 00-.288-2.15 4.617 4.617 0 00-.975-1.813c-.458-.524-1.062-.941-1.812-1.25-.75-.308-1.675-.462-2.775-.462-1.15 0-2.133.183-2.95.55-.817.367-1.488.87-2.013 1.513a6.151 6.151 0 00-1.15 2.225 9.693 9.693 0 00-.362 2.687c0 .967.125 1.85.375 2.65.25.8.633 1.492 1.15 2.075.517.583 1.18 1.038 1.987 1.363.809.325 1.771.487 2.888.487.95 0 1.804-.104 2.562-.313.759-.208 1.388-.512 1.888-.912s.867-.883 1.1-1.45c.233-.567.308-1.217.225-1.95zm-5.6-6.5c.75 0 1.267.238 1.55.713.283.474.425 1.187.425 2.137v.125h-4.3c.017-.917.217-1.642.6-2.175.383-.533.958-.8 1.725-.8zM103.425 45.44h-1.35v-9.575h-10.25v3.3c0 .667-.02 1.367-.062 2.1a10.568 10.568 0 01-.3 2.025c-.159.617-.392 1.13-.7 1.537-.309.409-.721.613-1.238.613h-.2v6.35H93.1v-3.1h6.55v3.1h3.775zm-5.45 0h-4.45v-.25c.433-.2.783-.45 1.05-.75s.47-.688.613-1.163c.141-.475.233-1.05.274-1.725.042-.675.063-1.487.063-2.437h2.45zM105.05 48.69h4.1v-4.8h3.675v4.8h4.1V35.865h-4.1v4.775h-3.675v-4.775h-4.1zM131.1 44.415h-3.55c.067.783-.092 1.333-.475 1.65-.383.317-.908.475-1.575.475-.433 0-.796-.092-1.087-.275a2.157 2.157 0 01-.713-.738 3.43 3.43 0 01-.4-1.074 6.564 6.564 0 01-.125-1.313h7.95c.05-.283.083-.625.1-1.025.017-.4.025-.717.025-.95a7.92 7.92 0 00-.288-2.15 4.617 4.617 0 00-.974-1.813c-.459-.524-1.063-.941-1.813-1.25-.75-.308-1.675-.462-2.775-.462-1.15 0-2.133.183-2.95.55-.817.367-1.488.87-2.013 1.513a6.151 6.151 0 00-1.15 2.225 9.693 9.693 0 00-.362 2.687c0 .967.125 1.85.375 2.65.25.8.633 1.492 1.15 2.075.517.583 1.18 1.038 1.988 1.363.808.325 1.77.487 2.887.487.95 0 1.804-.104 2.563-.313.758-.208 1.387-.512 1.887-.912s.867-.883 1.1-1.45c.233-.567.308-1.217.225-1.95zm-5.6-6.5c.75 0 1.267.238 1.55.713.283.474.425 1.187.425 2.137v.125h-4.3c.017-.917.217-1.642.6-2.175.383-.533.958-.8 1.725-.8zM133.25 48.69h4.1v-9.575h4.4v-3.25h-8.5zM149.2 49.065c2.117 0 3.733-.58 4.85-1.738 1.117-1.158 1.675-2.837 1.675-5.037 0-2.2-.558-3.883-1.675-5.05-1.117-1.167-2.733-1.75-4.85-1.75-2.15 0-3.783.583-4.9 1.75-1.117 1.167-1.675 2.85-1.675 5.05 0 2.2.558 3.88 1.675 5.037 1.117 1.159 2.75 1.738 4.9 1.738zm0-2.65c-.383 0-.717-.067-1-.2a1.616 1.616 0 01-.7-.663c-.183-.308-.32-.729-.413-1.262-.091-.533-.137-1.2-.137-2 0-.783.046-1.438.138-1.963.091-.525.229-.95.412-1.275.183-.325.417-.558.7-.7a2.21 2.21 0 011-.212c.367 0 .688.07.963.212.274.142.504.375.687.7.183.325.32.75.413 1.275.091.525.137 1.18.137 1.963 0 .8-.046 1.467-.138 2-.091.533-.229.954-.412 1.262-.183.309-.413.53-.688.663-.275.133-.595.2-.962.2z" stroke-width=".025"/></g><g fill="#fff" stroke="#000"><path d="M1.25 76.19h5.225l1.775-3.925a48.872 48.872 0 001.287-3.338 41.867 41.867 0 00.813-2.638l.35.051c-.05.267-.108.642-.175 1.125-.067.483-.13 1.008-.188 1.575a55.934 55.934 0 00-.15 1.725c-.041.583-.062 1.1-.062 1.55v3.875h3.95V63.365h-5.2L7.1 67.29c-.233.517-.463 1.07-.688 1.662a65.441 65.441 0 00-.625 1.713 39.72 39.72 0 00-.812 2.6l-.325-.05A31.791 31.791 0 005 70.502c.05-.575.096-1.154.137-1.737A22.26 22.26 0 005.2 67.19v-3.825H1.25zM21.075 76.19h4.1v-4.8h1.1c.333 0 .58.083.738.25.158.167.27.392.337.675a25.49 25.49 0 00.613 1.975c.141.4.291.775.45 1.125.158.35.304.608.437.775h4.5a9.64 9.64 0 01-1.287-2.212 62.593 62.593 0 01-.963-2.388c-.217-.567-.487-.983-.812-1.25-.325-.267-.805-.458-1.438-.575v-.225c.533-.117.963-.296 1.288-.537.325-.242.612-.613.862-1.113.183-.367.35-.758.5-1.175.15-.417.3-.825.45-1.225.15-.4.325-.783.525-1.15.2-.367.442-.692.725-.975h-4.35c-.15.2-.308.483-.475.85-.167.367-.333.75-.5 1.15-.167.4-.312.775-.437 1.125s-.213.6-.263.75c-.117.35-.246.588-.387.713-.142.125-.346.187-.613.187h-1v-4.775h-4.1zM40.975 73.99c-.65 0-1.183-.325-1.6-.975-.417-.65-.625-1.717-.625-3.2 0-1.5.208-2.575.625-3.225.417-.65.95-.975 1.6-.975.633 0 1.158.325 1.575.975.417.65.625 1.725.625 3.225 0 1.483-.208 2.55-.625 3.2-.417.65-.942.975-1.575.975zm1.525-11c-.467 0-.88.062-1.238.187a3.44 3.44 0 00-.974.525 3.797 3.797 0 00-.763.788c-.217.3-.425.617-.625.95l-.375-.175c.1-.317.175-.63.225-.938.05-.308.075-.579.075-.812v-.15h-4.1V80.64h4.1v-3.75c0-.433-.046-.863-.138-1.288-.091-.424-.204-.829-.337-1.212l.4-.15c.1.2.25.43.45.688a4.396 4.396 0 001.85 1.362c.417.167.892.25 1.425.25.7 0 1.354-.138 1.963-.413a4.306 4.306 0 001.587-1.25c.45-.558.804-1.258 1.063-2.1.258-.841.387-1.829.387-2.962 0-2.2-.442-3.888-1.325-5.063-.883-1.174-2.1-1.762-3.65-1.762zM54.375 73.29h0H54c0-.217-.03-.567-.088-1.05a28.489 28.489 0 00-.274-1.738 65.321 65.321 0 00-.463-2.25c-.183-.824-.4-1.687-.65-2.587l-.65-2.3h-4.15l4.325 14.45-.925 2.825h4.3L60.6 63.365h-4.05l-.65 2.375c-.25.883-.467 1.73-.65 2.538a60.537 60.537 0 00-.462 2.212 37.11 37.11 0 00-.288 1.725 18.2 18.2 0 00-.125 1.075zM61.975 76.19h4.1v-9.575h3.45v9.575h4.1V63.365h-11.65zM76.125 76.19h4.1v-4.8H83.9v4.8H88V63.365h-4.1v4.775h-3.675v-4.775h-4.1zM96.575 76.565c2.117 0 3.733-.58 4.85-1.738 1.117-1.158 1.675-2.837 1.675-5.037 0-2.2-.558-3.883-1.675-5.05-1.117-1.167-2.733-1.75-4.85-1.75-2.15 0-3.783.583-4.9 1.75C90.558 65.907 90 67.59 90 69.79c0 2.2.558 3.88 1.675 5.038 1.117 1.158 2.75 1.737 4.9 1.737zm0-2.65c-.383 0-.717-.067-1-.2a1.616 1.616 0 01-.7-.663c-.183-.308-.32-.729-.413-1.262-.091-.533-.137-1.2-.137-2 0-.783.046-1.438.138-1.963.091-.525.229-.95.412-1.275.183-.325.417-.558.7-.7a2.21 2.21 0 011-.212c.367 0 .688.07.963.212s.504.375.687.7c.183.325.32.75.413 1.275.091.525.137 1.18.137 1.963 0 .8-.046 1.467-.138 2-.091.533-.229.954-.412 1.262-.183.309-.412.53-.687.663-.275.133-.596.2-.963.2zM105.1 76.19h4.1v-9.575h4.4v-3.25h-8.5zM121.05 76.565c2.117 0 3.733-.58 4.85-1.738 1.117-1.158 1.675-2.837 1.675-5.037 0-2.2-.558-3.883-1.675-5.05-1.117-1.167-2.733-1.75-4.85-1.75-2.15 0-3.783.583-4.9 1.75-1.117 1.167-1.675 2.85-1.675 5.05 0 2.2.558 3.88 1.675 5.038 1.117 1.158 2.75 1.737 4.9 1.737zm0-2.65c-.383 0-.717-.067-1-.2a1.616 1.616 0 01-.7-.663c-.183-.308-.32-.729-.413-1.262-.091-.533-.137-1.2-.137-2 0-.783.046-1.438.138-1.963.091-.525.229-.95.412-1.275.183-.325.417-.558.7-.7a2.21 2.21 0 011-.212c.367 0 .688.07.963.212.274.142.504.375.687.7.183.325.32.75.413 1.275.091.525.137 1.18.137 1.963 0 .8-.046 1.467-.138 2-.091.533-.229.954-.412 1.262-.183.309-.413.53-.688.663-.274.133-.595.2-.962.2z" stroke-width=".025"/></g><g fill="#fff" stroke="#000"><path d="M4.2 95.49h-.35v-.325c0-.667.05-1.263.15-1.788.1-.524.275-.987.525-1.387s.592-.738 1.025-1.012c.433-.276.983-.496 1.65-.663.45-.117.875-.213 1.275-.288.4-.074.796-.15 1.188-.224.391-.075.783-.163 1.175-.263.391-.1.787-.225 1.187-.375l-.225-3.8c-.35.15-.68.283-.987.4-.309.117-.646.225-1.013.325-.367.1-.78.2-1.237.3-.459.1-1.021.225-1.688.375-1.217.267-2.212.675-2.987 1.225a6.312 6.312 0 00-1.838 1.988c-.45.775-.758 1.654-.925 2.637-.167.983-.25 2.033-.25 3.15 0 1.283.117 2.438.35 3.463.233 1.025.604 1.891 1.113 2.6a5.029 5.029 0 001.987 1.637c.817.383 1.8.575 2.95.575 1 0 1.883-.17 2.65-.512a5.549 5.549 0 001.925-1.388 5.94 5.94 0 001.175-2.05c.267-.783.4-1.617.4-2.5a7.87 7.87 0 00-.325-2.312c-.217-.709-.525-1.317-.925-1.825a4.268 4.268 0 00-1.487-1.2c-.592-.292-1.263-.438-2.013-.438-.7 0-1.304.088-1.812.263-.509.175-.942.42-1.3.737-.359.317-.65.7-.875 1.15-.225.45-.388.958-.488 1.525zm2.925 5.275c-.667 0-1.158-.208-1.475-.625-.317-.417-.475-1.117-.475-2.1 0-1 .167-1.733.5-2.2.333-.467.817-.7 1.45-.7.667 0 1.163.217 1.488.65.325.433.487 1.142.487 2.125 0 1-.167 1.725-.5 2.175-.333.45-.825.675-1.475.675zM15.425 103.69h5.225l1.775-3.925a48.872 48.872 0 001.288-3.338 41.867 41.867 0 00.813-2.638l.349.051c-.05.267-.108.642-.175 1.125-.067.483-.13 1.008-.187 1.575a55.934 55.934 0 00-.15 1.725c-.042.583-.063 1.1-.063 1.55v3.875h3.95V90.865h-5.2l-1.775 3.925c-.233.517-.462 1.07-.687 1.662a65.441 65.441 0 00-.625 1.713 39.72 39.72 0 00-.813 2.6l-.325-.05a31.791 31.791 0 00.35-2.713c.05-.575.096-1.154.138-1.737a22.26 22.26 0 00.062-1.575v-3.825h-3.95zM41.1 100.24c0-.783-.25-1.433-.75-1.95-.5-.517-1.175-.85-2.025-1v-.325c.35-.067.68-.18.988-.338.308-.158.583-.362.824-.612a2.85 2.85 0 00.576-.875c.141-.333.212-.717.212-1.15 0-.6-.15-1.12-.45-1.563a3.64 3.64 0 00-1.2-1.1 5.646 5.646 0 00-1.738-.637c-.658-.133-1.354-.2-2.087-.2-.883 0-1.683.092-2.4.275-.717.183-1.312.458-1.787.825-.475.367-.813.83-1.013 1.387-.2.559-.225 1.213-.075 1.963h3.1c-.05-.317-.025-.58.075-.788.1-.208.242-.379.425-.512s.404-.23.663-.288c.258-.058.52-.087.787-.087.483 0 .896.113 1.238.338.341.225.512.579.512 1.062 0 .483-.167.83-.5 1.038-.333.208-.742.312-1.225.312h-1.475v2.625h1.5c.5 0 .933.075 1.3.225.367.15.55.483.55 1 0 .5-.188.87-.563 1.113-.374.241-.829.362-1.362.362-.633 0-1.154-.154-1.563-.463-.408-.308-.562-.77-.462-1.387h-3.2c-.15.767-.117 1.433.1 2a3.207 3.207 0 001.05 1.412c.483.375 1.07.659 1.763.85a8.55 8.55 0 002.287.288c.9 0 1.713-.08 2.438-.238.725-.158 1.345-.395 1.862-.712a3.483 3.483 0 001.2-1.188c.283-.475.425-1.029.425-1.662zM42.85 103.69h4.1v-4.8h3.675v4.8h4.1V90.865h-4.1v4.775H46.95v-4.775h-4.1zM68.9 99.415h-3.55c.067.783-.092 1.333-.475 1.65-.383.317-.908.475-1.575.475-.433 0-.796-.092-1.087-.275a2.157 2.157 0 01-.713-.738 3.43 3.43 0 01-.4-1.075 6.564 6.564 0 01-.125-1.312h7.95c.05-.283.083-.625.1-1.025.017-.4.025-.717.025-.95a7.92 7.92 0 00-.287-2.15 4.617 4.617 0 00-.975-1.813c-.459-.525-1.063-.941-1.813-1.25-.75-.308-1.675-.462-2.775-.462-1.15 0-2.133.183-2.95.55-.817.367-1.487.87-2.012 1.512a6.151 6.151 0 00-1.15 2.225 9.693 9.693 0 00-.363 2.688c0 .967.125 1.85.375 2.65.25.8.633 1.492 1.15 2.075.517.583 1.18 1.037 1.988 1.362.808.325 1.77.488 2.887.488.95 0 1.804-.104 2.563-.313.758-.208 1.387-.512 1.887-.912s.867-.883 1.1-1.45c.233-.567.308-1.217.225-1.95zm-5.6-6.5c.75 0 1.267.237 1.55.712.283.476.425 1.188.425 2.138v.125h-4.3c.017-.917.217-1.642.6-2.175.383-.533.958-.8 1.725-.8zM82.725 98.64h0-3.45c.083.6.08 1.08-.013 1.438-.091.358-.237.633-.437.824-.2.192-.43.321-.688.388a3.04 3.04 0 01-.762.1c-.4 0-.75-.058-1.05-.175-.3-.117-.546-.33-.738-.638-.191-.308-.337-.729-.437-1.262-.1-.533-.15-1.217-.15-2.05 0-.8.046-1.463.137-1.988.092-.524.23-.945.413-1.262a1.5 1.5 0 01.725-.663c.3-.124.65-.187 1.05-.187.3 0 .583.038.85.113.267.074.492.212.675.412.183.2.317.47.4.813.083.341.075.779-.025 1.312h3.45c.2-1.667-.163-2.97-1.088-3.913-.925-.941-2.345-1.412-4.262-1.412-1.017 0-1.938.138-2.763.413-.825.274-1.525.691-2.1 1.25-.575.558-1.016 1.262-1.325 2.112-.308.85-.462 1.85-.462 3 0 1.167.154 2.175.462 3.025.309.85.75 1.554 1.325 2.113.575.558 1.275.97 2.1 1.237.825.267 1.746.4 2.763.4 1.033 0 1.912-.138 2.637-.413.725-.274 1.309-.654 1.75-1.137a3.816 3.816 0 00.9-1.712c.159-.659.196-1.371.113-2.138zM89.75 101.365c-.533 0-.97-.158-1.313-.475-.341-.317-.512-.725-.512-1.225 0-.3.063-.58.188-.838.124-.258.333-.483.624-.674.292-.192.684-.346 1.176-.463.491-.117 1.112-.192 1.862-.225v.925c0 .383-.033.754-.1 1.113a2.807 2.807 0 01-.35.95c-.167.274-.38.495-.638.662-.258.167-.57.25-.937.25zm-1.8 2.675c.567 0 1.063-.067 1.488-.2.424-.133.8-.308 1.124-.525.326-.217.6-.47.826-.763.224-.291.42-.604.587-.937l.325.175c-.1.317-.192.63-.275.937-.083.309-.125.58-.125.813v.15h3.975v-8.7c0-.667-.08-1.275-.238-1.825a3.202 3.202 0 00-.85-1.425c-.408-.4-.974-.708-1.7-.925-.724-.217-1.645-.325-2.762-.325-1.133 0-2.08.125-2.838.375s-1.354.583-1.787 1a3.132 3.132 0 00-.875 1.437 4.092 4.092 0 00-.1 1.688h3.4a2.439 2.439 0 01-.025-.775c.033-.25.12-.47.263-.663.141-.191.341-.345.6-.462.258-.117.579-.175.962-.175.633 0 1.1.154 1.4.462.3.309.45.746.45 1.313v.9c-.817.033-1.675.108-2.575.225-.9.117-1.725.342-2.475.675a4.717 4.717 0 00-1.85 1.437c-.483.625-.725 1.471-.725 2.538 0 .433.083.867.25 1.3.167.433.413.817.738 1.15.325.333.72.604 1.187.812.467.209 1.008.313 1.625.313z" stroke-width=".025"/></g></svg>