<svg width="100%" height="100%" viewBox="0 0 121 33" fill="none" xmlns="http://www.w3.org/2000/svg" preserveAspectRatio="none"><path d="M35.4599 15.4363L35.9263 13.9008L34.3834 13.9505C34.253 13.9505 33.3055 13.9229 32.3863 13.2373C32.4548 13.2442 32.5234 13.2539 32.5933 13.2539C33.5394 13.2539 34.4546 12.6678 34.8216 11.8302L35.4855 10.3167C34.6535 10.3278 33.8929 10.22 33.8929 10.22C33.8862 10.2186 33.2867 10.1398 32.5933 9.4114C32.0961 8.88891 31.4805 8.61248 30.8139 8.61248C30.5222 8.61248 30.2616 8.66639 30.0371 8.73965C30.072 8.61658 30.1057 8.49222 30.1245 8.36369C30.3368 6.94693 29.4498 5.86604 29.4498 5.8674L28.29 4.38982L27.5709 6.12592C27.5683 6.13137 27.3868 6.53779 27.0616 6.73686C26.9635 6.22682 26.723 5.65315 26.2082 5.10448C25.2379 4.07059 24.0566 3.91715 23.4383 3.91715C23.1521 3.91715 22.9478 3.94896 22.8981 3.95723L21.4977 4.24057C21.5784 3.91851 21.7504 3.35875 22.0649 2.85425L22.8376 1.61574L20.893 1.84381L20.2733 0.490677L19.0746 1.12643L17.9658 0L16.8598 1.12643L15.657 0.490677L15.0387 1.84381L13.0954 1.61574L13.8695 2.85425C14.184 3.35875 14.356 3.91715 14.4353 4.2392L13.0994 3.96823L13.0537 3.95996C12.9865 3.94896 12.7836 3.91715 12.496 3.91715C11.8778 3.91715 10.6965 4.07195 9.72879 5.10448C9.21271 5.65179 8.97215 6.22682 8.87272 6.73686C8.55022 6.54051 8.37008 6.13974 8.37008 6.13974L7.64971 4.39401L6.47114 5.88122C6.32727 6.07338 5.61638 7.08928 5.80987 8.36642C5.83007 8.49359 5.86231 8.61803 5.89726 8.74102C5.67418 8.66775 5.41341 8.61385 5.12182 8.61385C4.4552 8.61385 3.8397 8.89028 3.34109 9.41277C2.65023 10.1384 2.05352 10.22 2.05897 10.22C2.05897 10.22 1.42862 10.336 0.452933 10.3181L1.11279 11.8316C1.47974 12.6706 2.39623 13.2553 3.34109 13.2553C3.41232 13.2553 3.48083 13.2456 3.55074 13.2386C2.63416 13.9242 1.68666 13.9519 1.5724 13.9533L0 13.9008L0.475768 15.435C0.715013 16.2256 1.51461 17.5359 3.04669 17.6769C2.88008 18.3957 2.5105 19.2001 1.69878 19.547L0.528201 20.0432L1.16654 21.1863C1.52673 21.8028 2.37208 22.5243 3.57621 22.5243C3.83698 22.5229 4.08825 22.4966 4.33022 22.4442C4.39205 22.7261 4.46996 23.0081 4.56139 23.2873C4.92017 24.3847 4.6111 25.1504 4.60706 25.1588L4.02914 26.4041L5.31935 26.7538C5.33551 26.7594 5.7252 26.8685 6.21309 26.8685C6.43477 26.8685 6.64583 26.8451 6.84467 26.7966C6.99521 26.7607 7.13907 26.7124 7.27749 26.6543C7.4441 26.9625 7.64707 27.2431 7.8836 27.4947C8.71007 28.3668 9.88065 28.8092 11.3644 28.8092H11.3698L12.4288 28.7953L10.2408 29.7297L11.9019 30.5549C12.5054 30.8576 13.2217 31.2155 13.9501 31.4892L13.7432 32.0725L14.3156 32.3407C14.3668 32.3642 15.4674 32.8715 17.2979 32.9793C17.2979 32.9793 17.74 33 17.9833 33C18.2266 33 18.6633 32.9779 18.6633 32.9779C20.4817 32.8673 21.5743 32.3655 21.6254 32.3407L22.1992 32.0712L21.9896 31.4865C22.7395 31.2045 23.4814 30.8327 24.0593 30.5424L25.6895 29.7283L23.5082 28.7926L24.5713 28.8064C26.0563 28.8064 27.2282 28.3641 28.0535 27.4906C28.2887 27.2404 28.4916 26.9598 28.6596 26.6516C28.798 26.7096 28.9432 26.758 29.0936 26.7939C29.2912 26.8423 29.5022 26.8658 29.724 26.8658C30.2038 26.8658 30.5975 26.7566 30.6083 26.7538L31.9039 26.4014L31.3394 25.1795C31.326 25.1477 31.0168 24.3833 31.3757 23.2845C31.467 23.0039 31.5437 22.722 31.6055 22.4413C31.8487 22.4939 32.1027 22.5215 32.3648 22.5215C33.8982 22.5215 34.6334 21.4116 34.7759 21.1711L35.4075 20.0405L34.237 19.5456C33.4238 19.1987 33.0556 18.3929 32.8903 17.6756C34.4009 17.5428 35.2127 16.2325 35.4599 15.4363ZM14.5374 4.7686L14.5213 4.77269L14.5348 4.7547L14.5374 4.7686Z" fill="white" data-color-group="0"/><path d="M17.9672 4.70087C16.7281 4.70223 15.7994 5.11964 15.5965 5.61032L17.9672 6.57231L20.3379 5.61032C20.1363 5.11964 19.2076 4.70223 17.9672 4.70087Z" fill="white" data-color-group="0"/><path d="M17.9914 30.1679H17.9887H17.9685H17.9456H17.9443C17.193 30.1734 16.1595 30.0145 15.6609 29.8652L15.0616 31.5335C15.4566 31.6786 16.7952 31.9551 17.9685 31.9551C19.139 31.9551 20.479 31.6772 20.8728 31.5335L20.2747 29.8652C19.7747 30.0159 18.7426 30.1734 17.9914 30.1679Z" fill="white" data-color-group="0"/><path d="M22.5269 28.5093C22.0807 28.7692 21.0848 29.159 20.5056 29.3401L20.9921 30.7181C21.8884 30.4666 22.6276 30.1722 23.2392 29.857L22.2298 29.5115L22.5269 28.5093Z" fill="white" data-color-group="0"/><path d="M13.4083 28.5093L13.7067 29.5115L12.696 29.857C13.3062 30.1722 14.0494 30.4666 14.9417 30.7181L15.4283 29.3401C14.8517 29.159 13.8545 28.7679 13.4083 28.5093Z" fill="white" data-color-group="0"/><path d="M17.9671 3.10584C18.9012 3.10584 19.8178 3.33527 20.522 3.73886C20.5865 3.51634 20.6766 3.24682 20.7988 2.96485L20.5328 2.99803L20.2532 3.02839L20.1349 2.76714L19.7788 1.99313L19.1296 2.34146L18.877 2.47417L18.6754 2.26956L17.9699 1.55081L17.2657 2.26956L17.064 2.47417L16.8114 2.34146L16.1582 1.99313L15.8061 2.76714L15.6852 3.02839L15.4056 2.99803L15.1395 2.96485C15.2618 3.24818 15.3505 3.51634 15.4163 3.73886C16.1219 3.33527 17.0358 3.10584 17.9671 3.10584Z" fill="white" data-color-group="0"/><path d="M32.2279 12.0516C32.3489 12.0945 32.4725 12.1138 32.5948 12.1138C33.1229 12.1138 33.6337 11.7627 33.8098 11.3604C33.8098 11.3604 32.8408 11.2996 31.7992 10.2118C31.4673 9.85941 31.1165 9.75433 30.8154 9.75433C30.3477 9.75433 29.9969 10.0087 29.9969 10.0087C31.2549 10.6971 31.5116 11.8028 32.2279 12.0516Z" fill="white" data-color-group="0"/><path d="M3.33969 12.1138C3.46194 12.1138 3.58561 12.0945 3.70391 12.0516C4.42288 11.8028 4.68092 10.6971 5.93889 10.0087C5.93889 10.0087 5.58678 9.75433 5.12173 9.75433C4.81934 9.75433 4.46855 9.85941 4.13533 10.2118C3.09508 11.2996 2.12607 11.3604 2.12607 11.3604C2.29944 11.7627 2.81148 12.1138 3.33969 12.1138Z" fill="white" data-color-group="0"/><path d="M32.5692 16.5449C32.5906 16.5462 32.6095 16.5462 32.6324 16.5462C33.9508 16.5462 34.3982 15.0936 34.3982 15.0936H34.3728C34.1308 15.0936 32.17 15.0355 30.7844 13.2234C29.8719 12.032 29.1247 10.9843 27.6476 10.5724L27.5025 10.5461L27.4702 10.3941C27.4299 10.1619 27.5845 9.94482 27.9353 9.70985C29.9726 8.33735 28.5898 6.58753 28.5898 6.58753C28.5898 6.58753 28.0078 7.98766 26.7056 7.98766C26.6747 7.98766 26.641 7.9863 26.6088 7.9863C26.461 7.97802 26.3185 7.97248 26.1747 7.94066L25.9341 7.89231C25.9341 7.89231 26.3051 6.85423 25.41 5.90051C24.7353 5.1804 23.9142 5.05878 23.4398 5.05878C23.2005 5.05878 23.0487 5.09059 23.0487 5.09059C23.4989 5.69599 23.8241 6.69943 23.3041 7.31864C22.8552 7.85085 21.7585 7.87713 21.7585 8.6705C21.7585 9.00637 22.0636 9.39888 22.6119 9.75139C24.261 10.8198 25.8978 12.2366 26.5779 14.1357C27.4286 16.5048 26.4704 18.0764 25.1022 18.9775C25.1022 18.9775 25.531 19.3839 26.1532 19.435C26.2795 19.4475 26.4032 19.453 26.5188 19.453C27.8318 19.453 28.5105 18.8199 28.5105 18.8199C28.5105 18.8199 28.3989 19.6949 27.7148 20.5077C27.0846 21.2581 26.2567 21.6991 24.9947 21.7184C24.9947 21.7184 24.9544 22.3211 25.5135 22.8421C25.871 23.1711 26.6975 23.2789 26.6975 23.2789C26.6975 23.2789 25.1506 23.601 24.9799 25.9507C24.8872 27.2237 24.5713 27.666 24.5713 27.666H24.5996C28.1893 27.666 28.0965 24.4994 28.0965 24.4994C28.0965 24.4994 28.3465 25.4365 29.3477 25.6812C29.4687 25.7144 29.5977 25.7269 29.7214 25.7269C30.0439 25.7269 30.3234 25.6494 30.3234 25.6494C30.3234 25.6494 29.7993 24.5119 30.3194 22.921C30.7508 21.6009 30.6809 20.6224 30.6809 20.6224C30.6809 20.6224 31.1647 21.3743 32.3635 21.3812H32.3756C33.3742 21.3812 33.8096 20.603 33.8096 20.603C31.4161 19.5816 31.6526 16.2836 31.6526 16.2836C31.6526 16.2836 31.963 16.5213 32.5692 16.5449ZM31.8488 19.9893C30.8758 19.4958 30.2603 18.1855 30.1111 17.7128C29.9498 20.3113 28.7161 22.1151 27.274 23.8511C26.5255 24.7509 26.2648 25.6259 26.2648 25.6259C26.2648 25.6259 26.4086 24.6349 27.0563 23.8277C28.4016 22.1649 29.6797 20.0957 29.7751 17.7031C29.841 16.0335 29.423 14.6789 28.7712 13.5635C29.1354 14.7259 29.0843 16.1496 27.8466 17.4779C27.8466 17.4779 30.31 14.4412 26.8655 11.3284C25.4866 10.1439 23.9787 9.4127 23.2019 8.89439C26.0081 9.83565 27.3776 8.79903 27.3776 8.79903C26.4811 9.59795 25.3213 9.58413 24.6023 9.46942C24.7972 9.5675 25.0001 9.66976 25.2192 9.79002C27.5845 11.1114 29.7106 13.2857 30.0735 16.2974V16.2739C30.6245 19.2305 31.8488 19.9893 31.8488 19.9893Z" fill="white" data-color-group="0"/><path d="M9.23672 23.2789C9.23672 23.2789 10.0633 23.1725 10.4207 22.8421C10.9784 22.3211 10.9395 21.7184 10.9395 21.7184C9.67621 21.7004 8.84966 21.2581 8.21536 20.509C7.53662 19.6963 7.42376 18.8214 7.42376 18.8214C7.42376 18.8214 8.10241 19.4544 9.41413 19.4544C9.53235 19.4544 9.65469 19.4489 9.78099 19.4364C10.4033 19.3853 10.8334 18.9789 10.8334 18.9789C9.46516 18.0777 8.50563 16.5048 9.35502 14.1357C10.0364 12.238 11.6719 10.8198 13.3209 9.75139C13.8692 9.39888 14.1744 9.00774 14.1744 8.6705C14.1744 7.87713 13.079 7.85085 12.6302 7.31864C12.11 6.69943 12.4367 5.69462 12.8855 5.09059C12.8855 5.09059 12.7363 5.05878 12.4958 5.05878C12.0227 5.05878 11.2015 5.1804 10.5269 5.90051C9.62914 6.85423 10.0014 7.89231 10.0014 7.89231L9.76088 7.94066C9.61702 7.97248 9.47324 7.97802 9.32674 7.9863C9.29319 7.9863 9.26359 7.98766 9.23136 7.98766C7.9264 7.98766 7.34717 6.58889 7.34717 6.58889C7.34717 6.58889 5.96422 8.33871 8.00026 9.7113C8.35105 9.94628 8.50431 10.1633 8.46391 10.3954L8.43168 10.5475L8.28386 10.5738C6.80957 10.9856 6.06101 12.0333 5.14846 13.2249C3.76551 15.0341 1.80737 15.0936 1.56286 15.0936H1.53598C1.53598 15.0936 1.98347 16.5462 3.30187 16.5462C3.32338 16.5462 3.34218 16.5462 3.36501 16.5449C3.97112 16.5228 4.28291 16.2836 4.28291 16.2836C4.28291 16.2836 4.5168 19.5802 2.12593 20.603C2.12593 20.603 2.56138 21.3812 3.55991 21.3812H3.57203C4.77212 21.3743 5.25465 20.6224 5.25465 20.6224C5.25465 20.6224 5.18474 21.6009 5.61483 22.921C6.13487 24.5119 5.61343 25.6494 5.61343 25.6494C5.61343 25.6494 5.89299 25.7269 6.21418 25.7269C6.33916 25.7269 6.46686 25.7144 6.58648 25.6812C7.58633 25.4365 7.83769 24.4994 7.83769 24.4994C7.83769 24.4994 7.74626 27.666 11.3359 27.666H11.3615C11.3615 27.666 11.047 27.2237 10.9556 25.9507C10.7836 23.601 9.23672 23.2789 9.23672 23.2789ZM8.66021 23.8511C7.21815 22.1151 5.98574 20.3113 5.82308 17.7128C5.67394 18.1842 5.06107 19.4958 4.08811 19.9893C4.08811 19.9893 5.31104 19.2305 5.86076 16.2739V16.2974C6.22498 13.287 8.34974 11.1114 10.7164 9.79002C10.9328 9.6684 11.1384 9.56614 11.332 9.46942C10.6129 9.58413 9.45313 9.59795 8.55666 8.79903C8.55666 8.79903 9.92617 9.83565 12.731 8.89439C11.9541 9.4127 10.4476 10.1439 9.0687 11.3284C5.62283 14.4412 8.08765 17.4779 8.08765 17.4779C6.84857 16.1482 6.79877 14.7259 7.16299 13.5635C6.5099 14.6803 6.09324 16.0335 6.16043 17.7031C6.25449 20.0957 7.53258 22.1649 8.87522 23.8277C9.52436 24.6335 9.67077 25.6259 9.67077 25.6259C9.67077 25.6259 9.40737 24.7509 8.66021 23.8511Z" fill="white" data-color-group="0"/><path d="M15.3128 11.7017C15.3719 11.7667 15.4297 11.8371 15.4848 11.9077C15.4983 11.9242 15.5103 11.9395 15.5237 11.9588C15.5749 12.0293 15.6273 12.1039 15.677 12.1799C15.6877 12.1952 15.6985 12.2131 15.7105 12.2311C15.7711 12.3251 15.8275 12.4218 15.8839 12.5213C16.4014 13.4405 17.2306 13.9893 17.9657 13.9906C18.7022 13.9893 19.5287 13.4405 20.0489 12.5213C20.1066 12.4191 20.1644 12.3195 20.2249 12.2269C20.2343 12.2131 20.2437 12.2006 20.2517 12.1868C20.3029 12.1081 20.3566 12.0307 20.4131 11.956C20.4251 11.9395 20.4359 11.9256 20.4466 11.9118C20.5044 11.8385 20.5635 11.7667 20.624 11.7003C20.6348 11.6892 20.6428 11.6796 20.6522 11.6713C20.9156 11.3935 21.2301 11.182 21.6414 11.0645L21.4586 10.9553H21.4479L20.7194 10.5199L19.9709 10.079L17.9711 11.1986L17.9657 11.1945L17.9617 11.1986L15.9606 10.079L15.2134 10.5185L14.4836 10.954H14.4755L14.29 11.0631C14.7026 11.1807 15.0157 11.3894 15.2805 11.6672C15.2927 11.6782 15.3007 11.6906 15.3128 11.7017ZM17.1566 11.6119H18.0033H18.8487V12.209C18.6498 11.9588 18.2628 12.0099 18.2628 12.0099V12.871C18.2628 12.871 18.2775 13.294 18.4213 13.4779H18.0033H17.584C17.7305 13.2953 17.744 12.871 17.744 12.871V12.0099C17.744 12.0099 17.3582 11.9588 17.1566 12.209V11.6119Z" fill="white" data-color-group="0"/><path d="M17.7938 10.4535V6.95784L15.6301 6.20319L16.2012 9.59093L17.7938 10.4535ZM17.3289 7.8162V8.37742L17.224 8.32761C17.2187 8.32352 17.0655 8.28752 16.7966 8.06918C16.3532 7.7153 16.3451 7.38907 16.3451 7.38907L17.3289 7.8162Z" fill="white" data-color-group="0"/><path d="M19.7343 9.59093L20.3028 6.20319L18.1404 6.95784V10.4535L19.7343 9.59093ZM18.6055 7.8162L19.5892 7.39052C19.5892 7.39052 19.5812 7.71667 19.1363 8.07054C18.8689 8.28888 18.7143 8.32488 18.7089 8.32897L18.6041 8.37878V7.8162H18.6055Z" fill="white" data-color-group="0"/><path d="M14.7336 18.5575C14.9447 18.6363 15.2 18.6528 15.3303 18.6528C15.3358 18.6363 15.3425 18.6156 15.3492 18.5906C15.3612 18.5506 15.372 18.5118 15.3801 18.4677C15.4164 18.2741 15.4298 18.0543 15.4325 17.9134C15.3438 17.8567 15.2188 17.7558 15.149 17.6051C15.0683 17.431 14.9541 17.3509 14.7861 17.3509C14.5683 17.3509 14.3345 17.4849 14.235 17.5485C14.1558 18.0309 14.5011 18.469 14.7336 18.5575Z" fill="white" data-color-group="0"/><path d="M19.5194 16.7023C19.1176 17.1515 18.3313 17.9338 18.2923 17.9739L18.2453 18.0237L15.7604 17.9836C15.759 18.2365 15.7187 18.4521 15.6798 18.6097C15.673 18.636 15.6663 18.6636 15.6596 18.6913L18.6162 19.2372C18.924 19.0161 19.7707 18.3803 20.0986 18.1315C19.8594 17.7721 19.8365 17.3464 19.8903 17.0464C19.7344 16.9428 19.6148 16.8267 19.5194 16.7023Z" fill="white" data-color-group="0"/><path d="M19.8569 13.6287C19.2844 14.2133 18.7347 14.4289 18.2442 14.4788C18.1555 14.4884 18.0655 14.4939 17.974 14.4939H17.9674H17.9619C17.8706 14.4939 17.7791 14.4884 17.6904 14.4788C17.6045 14.4704 17.5144 14.4566 17.4244 14.4359C17.3921 14.5672 17.3518 14.8423 17.4674 15.1021C17.5708 15.3385 17.7819 15.514 18.0896 15.6301L18.1931 15.6715L18.1945 15.7863C18.1945 15.8208 18.2186 16.5645 19.0075 16.7704C19.1365 16.6335 19.2534 16.5106 19.3395 16.4083C19.1782 16.0185 19.2628 15.6205 19.4967 15.4256C19.486 15.467 19.3839 16.4428 20.1445 16.805L20.2695 16.8658L20.2319 17.0026C20.2197 17.044 19.9657 17.9881 20.8864 18.3392L21.049 18.4028L20.9764 18.5659C20.9603 18.6018 20.5988 19.4588 21.4495 19.9453H23.2947V18.4387C22.6389 18.3558 22.3606 17.814 22.2894 17.4297C21.9844 17.3758 21.7479 17.2404 21.5865 17.0192C21.1995 16.4954 21.5328 16.0157 21.5368 15.9895C21.5355 15.9936 21.5368 16.505 21.8432 16.8202C21.9951 16.9722 22.1752 17.0897 22.448 17.1159L22.5824 17.1284L22.5945 17.2694C22.5972 17.2998 22.6711 17.9909 23.296 18.1001L23.2947 15.0233C23.2947 14.5465 23.4305 14.0668 23.5931 13.6245H19.8569V13.6287Z" fill="white" data-color-group="0"/><path d="M14.8911 15.0382L14.8413 16.9982L15.0577 17.0314L15.5872 15.1516L15.3184 14.5738L14.8911 15.0382Z" fill="white" data-color-group="0"/><path d="M20.729 24.0269C20.7451 24.0269 20.7639 24.0296 20.7814 24.0338C21.1107 24.1305 21.1939 25.3524 21.7718 25.4616C21.8283 25.474 21.8807 25.4768 21.9264 25.4768C22.093 25.4768 22.1925 25.4036 22.3 25.2736C22.3 25.2736 22.0098 24.8036 21.792 24.4871C21.5031 24.0725 21.2787 23.5708 20.7411 23.5708C20.729 23.5708 20.7128 23.5708 20.6994 23.5721C20.522 23.5819 20.4131 23.6703 20.4131 23.6703C20.1954 23.5293 19.9925 23.481 19.8083 23.481C19.4711 23.481 19.209 23.6399 19.0786 23.6399H19.0732L17.8717 23.5182C17.6836 23.5002 17.5358 23.3053 17.482 23.2293C17.4686 23.2086 17.4618 23.1962 17.4618 23.1962C17.4618 23.163 17.4618 23.1285 17.4592 23.0981C17.4189 22.0876 16.6582 21.6551 16.388 21.6481C16.388 21.6481 16.4203 21.456 16.3464 21.3827L16.0816 21.7131L15.2121 21.2638L15.8316 22.0088L15.3062 22.6157C15.2403 22.6848 15.2484 22.7788 15.2752 22.8175L15.5024 23.0234L15.79 22.8438C15.8048 22.8327 15.8303 22.8299 15.8625 22.8299C15.9419 22.8299 16.0615 22.8507 16.169 22.8507C16.2859 22.8507 16.388 22.8244 16.4001 22.711C16.3639 23.0856 16.0265 23.7367 16.2483 24.2481L16.4123 24.6337L15.3505 24.4761L14.8532 25.34C14.7 25.6275 14.6759 25.9384 14.8237 26.1071L15.0091 26.3462C15.0091 26.3462 15.2699 26.0615 15.329 25.8749L15.2443 25.7795C15.1731 25.6994 15.1771 25.6275 15.2202 25.5404L15.532 25.0083L16.7858 25.3123L16.8517 25.1962C16.9363 25.0511 17.0587 25.0069 17.1931 25.0069C17.2481 25.0069 17.3046 25.0138 17.3637 25.0234C17.5962 25.0704 17.9793 25.1341 18.3623 25.1341C18.7829 25.1341 19.1996 25.0566 19.4213 24.8009C19.8755 25.4934 20.7962 25.604 20.7236 25.9551L20.4817 27.141C20.6416 27.134 20.7962 27.123 20.9427 27.1023L21.1725 25.868C21.198 25.7339 21.2222 25.5528 21.2222 25.5528C21.1335 25.4602 20.9185 25.264 20.7975 25.0263C20.6349 24.7056 20.7236 24.5383 20.5717 24.1209C20.5771 24.1236 20.6228 24.0269 20.729 24.0269ZM16.0386 22.2936C15.9768 22.2923 15.9325 22.2384 15.9351 22.1747C15.9405 22.1139 15.9903 22.0656 16.0507 22.0711C16.1125 22.0738 16.1569 22.1291 16.1542 22.1899C16.1488 22.2507 16.0978 22.2977 16.0386 22.2936Z" fill="white" data-color-group="0"/><path d="M14.3267 25.1489C14.3267 25.1489 14.7419 24.9734 14.7795 24.8476L14.7245 24.7052C14.6855 24.6126 14.6908 24.5117 14.7661 24.4564L15.215 24.1372L15.965 24.2851C15.965 24.2851 15.8292 24.1109 15.8426 23.8773L15.1277 23.7211L14.453 24.1441C14.164 24.3666 14.1425 24.7301 14.238 24.9457L14.3267 25.1489Z" fill="white" data-color-group="0"/><path d="M19.627 27.1588C19.7614 27.1534 19.9092 27.1506 20.0718 27.1506C20.0718 27.1506 20.4576 25.9909 20.479 25.9536C20.2627 25.8554 19.8138 25.6108 19.6404 25.4988C19.7547 25.6743 20.0328 25.8762 19.9778 26.031L19.627 27.1588Z" fill="white" data-color-group="0"/><path d="M23.2986 20.281H12.637V24.4055C12.637 26.0917 13.8238 27.1477 15.5749 27.1477C17.0385 27.1477 17.4241 27.2058 17.9684 27.7614C18.3434 27.3772 18.6538 27.2334 19.2908 27.1795L19.3057 27.1159L19.6416 26.0475C19.6228 26.024 19.0732 25.3813 19.0732 25.3813C18.8555 25.4559 18.6727 25.4684 18.365 25.4684C18.0491 25.4684 17.693 25.4311 17.3072 25.3564C17.2682 25.3467 17.232 25.344 17.1957 25.344C17.1486 25.344 17.1446 25.3481 17.1325 25.3716L17.0654 25.485L16.943 25.6922L16.7132 25.6383L15.6905 25.391L15.5507 25.6287L15.5722 25.6536L15.6972 25.7946L15.6421 25.9784C15.5668 26.2189 15.3222 26.4995 15.2483 26.5769L14.9929 26.8589L14.7605 26.5562L14.5858 26.3309C14.4016 26.1194 14.3586 25.7946 14.4621 25.4545C14.4594 25.4573 14.4553 25.4587 14.4514 25.4587L14.1624 25.5817L14.032 25.2915L13.9407 25.0855C13.7835 24.7233 13.8412 24.1939 14.2646 23.8747L15.0884 23.3965L15.8719 23.5554C15.8907 23.478 15.9189 23.2016 15.9418 23.131C15.927 23.1297 15.9122 23.1255 15.8974 23.1255L15.4459 23.2983L15.0104 22.9887C15.0104 22.9887 14.8398 22.8201 14.9943 22.6515L15.4163 21.9949L14.3478 20.6155L15.9902 21.3093L16.0991 21.1697L16.3207 20.8975L16.5721 21.1434C16.6433 21.214 16.6836 21.3011 16.7038 21.3881C17.1567 21.5692 17.9671 22.1041 18.0383 22.9735L17.7843 23.0785V23.0854C17.8421 23.156 17.8905 23.185 17.9053 23.1878L19.0772 23.3066C19.1068 23.3011 19.1444 23.2872 19.1861 23.2749C19.3312 23.2237 19.5503 23.1504 19.8096 23.1504C20.0206 23.1504 20.2249 23.2002 20.4211 23.2942C20.4937 23.2665 20.5825 23.2458 20.6846 23.2389L20.741 23.2375C21.3686 23.2375 21.6804 23.7199 21.9304 24.1041C21.9721 24.1705 22.0137 24.234 22.0567 24.2963C22.2758 24.6142 22.562 25.0799 22.5741 25.0993L22.7032 25.3066L22.5445 25.496C22.4223 25.6412 22.2395 25.8111 21.925 25.8111C21.8605 25.8111 21.7893 25.8042 21.7126 25.7891C21.6454 25.7766 21.585 25.7559 21.5258 25.731C21.5164 25.7946 21.5044 25.8706 21.4923 25.9356L21.2867 27.0386C22.5164 26.7276 23.2971 25.7724 23.2971 24.4068L23.2986 20.281Z" fill="#FFDD2D" data-color-group="1"/><path d="M12.6369 19.9493H20.9277C20.5138 19.5098 20.5192 18.9527 20.6253 18.5906C20.5044 18.5311 20.405 18.4593 20.3162 18.3819C19.9923 18.6279 19.0032 19.3688 18.7452 19.554L18.6901 19.5927L15.4364 18.9873H15.3705C15.2926 18.9873 15.1784 18.9846 15.0534 18.9694C15.0184 19.12 14.8921 19.2236 14.7469 19.2236C14.7309 19.2236 14.712 19.2223 14.6945 19.2182C14.6098 19.2029 14.536 19.1587 14.4863 19.0854C14.4351 19.0135 14.415 18.9278 14.4298 18.8394L14.4419 18.7676C14.1059 18.5242 13.7968 17.981 13.9339 17.4088L13.9473 17.348L13.9943 17.3134C14.0011 17.3079 14.0575 17.2693 14.1408 17.2195L13.9043 17.1822C13.8156 17.1656 13.7565 17.0813 13.7699 16.9914C13.7847 16.9002 13.868 16.8352 13.9553 16.8532L14.5185 16.9444L14.5695 14.9042L15.4082 13.9921L15.931 15.124L15.3786 17.0867L15.8759 17.1669C15.9632 17.1807 16.0237 17.2651 16.0103 17.3577C15.9968 17.4393 15.9296 17.4959 15.8503 17.4959C15.8423 17.4959 15.8329 17.4959 15.8248 17.4945L15.4202 17.4268C15.4257 17.4393 15.4337 17.4462 15.4391 17.46C15.4821 17.5512 15.5775 17.6175 15.6339 17.6451L18.1149 17.6852C18.2197 17.5802 18.4805 17.3176 18.7479 17.0397C18.1377 16.802 17.916 16.2602 17.8783 15.9009C17.537 15.7516 17.3018 15.5276 17.1715 15.236C17.0128 14.8752 17.0693 14.5145 17.1109 14.3389C16.7803 14.2146 16.4323 13.9879 16.0775 13.6257H12.3413C12.5012 14.0681 12.6369 14.5476 12.6369 15.0245V19.9493Z" fill="#FFDD2D" data-color-group="1"/><path d="M16.0523 22.071C15.9919 22.0654 15.9408 22.1139 15.9367 22.1746C15.9327 22.2382 15.9784 22.2922 16.0402 22.2935C16.0993 22.2991 16.1517 22.2521 16.1571 22.1899C16.1571 22.1291 16.1141 22.0724 16.0523 22.071Z" fill="#333333" data-color-group="2"/><path d="M23.284 29.55L22.6698 29.3081L22.8391 28.6557L23.026 27.9439C23.026 27.9439 21.9374 28.5506 20.404 29.0068C19.9685 29.1353 19.6393 29.1934 19.6393 29.1934V29.6772C19.6393 29.6772 18.8195 29.8237 17.9902 29.8237H17.9808H17.9688H17.9526H17.9432C17.114 29.8237 16.2941 29.6772 16.2941 29.6772V29.1934C16.2941 29.1934 15.9636 29.1353 15.5295 29.0068C13.996 28.5506 12.9088 27.9439 12.9088 27.9439L13.0929 28.6557L13.2662 29.3081L12.6507 29.55L11.968 29.8126C12.7516 30.201 13.8361 30.7677 14.8292 31.0469L14.5954 31.7049C14.5954 31.7049 15.8547 32.295 17.9526 32.3005V32.3019H17.9593H17.9688H17.9768H17.9822V32.3005C20.0827 32.295 21.3407 31.7049 21.3407 31.7049L21.1055 31.0469C22.0987 30.7677 23.1859 30.201 23.9654 29.8126L23.284 29.55ZM12.6964 29.8569L13.7071 29.5113L13.4087 28.5092C13.8536 28.7691 14.8522 29.1588 15.43 29.3399L14.9422 30.718C14.0498 30.465 13.3066 30.1706 12.6964 29.8569ZM17.9688 31.955C16.7955 31.955 15.4556 31.6771 15.0618 31.5334L15.6612 29.8651C16.1584 30.0144 17.1932 30.1734 17.9445 30.1678H17.9458H17.9688H17.9889H17.9916C18.7428 30.1734 19.775 30.0144 20.275 29.8651L20.873 31.5334C20.4792 31.6786 19.1407 31.955 17.9688 31.955ZM20.9926 30.718L20.5061 29.3399C21.0854 29.1588 22.0812 28.7691 22.5273 28.5092L22.2304 29.5113L23.2396 29.8569C22.6282 30.1706 21.889 30.465 20.9926 30.718Z" fill="#333333" data-color-group="2"/><path d="M17.9672 3.50946C19.2171 3.50946 20.217 3.93514 20.7693 4.38992C20.7693 4.38992 20.9333 3.37402 21.4937 2.47693L20.4871 2.59446L19.9602 1.44303L18.9483 1.97934L17.9672 0.981445L16.9888 1.97934L15.9755 1.44303L15.4501 2.59446L14.4434 2.47693C15.0038 3.37402 15.1678 4.38992 15.1678 4.38992C15.7214 3.93514 16.7186 3.50946 17.9672 3.50946ZM15.4043 2.99806L15.6839 3.02842L15.8048 2.76717L16.1569 1.99316L16.8101 2.34012L17.0628 2.47284L17.2643 2.26822L17.9685 1.54948L18.6742 2.26822L18.8757 2.47284L19.1284 2.34012L19.7775 1.99316L20.1336 2.76717L20.2519 3.02842L20.5315 2.99806L20.7976 2.96488C20.6752 3.24821 20.5852 3.51637 20.5207 3.73889C19.8165 3.3353 18.8999 3.10586 17.9659 3.10586C17.0359 3.10586 16.1206 3.3353 15.4137 3.73889C15.3479 3.51637 15.2592 3.24685 15.1369 2.96488L15.4043 2.99806Z" fill="#333333" data-color-group="2"/><path d="M32.6308 16.99C34.2476 16.99 34.7879 15.2982 34.8108 15.2263L34.9908 14.6305L34.3847 14.6499H34.382C34.1683 14.6499 32.3849 14.6015 31.1203 12.9484L31.0007 12.795C30.1741 11.7141 29.3906 10.6871 27.9902 10.2186C28.0306 10.1813 28.0883 10.1343 28.1677 10.0817C28.9109 9.57859 29.3436 8.96774 29.4524 8.25863C29.611 7.19156 28.9498 6.34155 28.9203 6.30692L28.47 5.73471L28.1892 6.41336C28.1703 6.45627 27.6972 7.54261 26.7028 7.54261H26.6288C26.5603 7.53852 26.4957 7.5357 26.4313 7.53025C26.4662 7.04503 26.3802 6.29456 25.719 5.59099C24.9247 4.74372 23.949 4.61655 23.4383 4.61655C23.1655 4.61655 22.9841 4.65109 22.9652 4.65382L22.2852 4.79207L22.7045 5.3602C23.0338 5.79834 23.3322 6.60689 22.9786 7.02985C22.8658 7.16392 22.6333 7.27309 22.4102 7.38236C21.9519 7.59933 21.3269 7.90067 21.3269 8.66913C21.3269 9.16672 21.702 9.68648 22.3819 10.1287C24.3952 11.4308 25.637 12.7894 26.1732 14.2892C27.0024 16.5961 25.9206 17.9119 24.8696 18.6044L24.3979 18.9167L24.8105 19.3066C24.8656 19.3563 25.3709 19.8138 26.1168 19.8802C26.2579 19.8898 26.3936 19.8982 26.52 19.8982C26.9984 19.8982 27.4056 19.8207 27.7362 19.7171C27.6448 19.8815 27.5333 20.0488 27.3922 20.2174C26.7915 20.9334 26.0523 21.2596 24.9892 21.2762L24.5941 21.2831L24.5632 21.6908C24.5591 21.7724 24.5296 22.5284 25.2257 23.1712C25.3319 23.2707 25.4609 23.3523 25.5953 23.42C25.1236 23.8568 24.6438 24.617 24.5511 25.9204C24.4731 27.0082 24.2205 27.4104 24.2178 27.4145L23.781 28.1001L24.5699 28.1112C25.8736 28.1112 26.8721 27.7407 27.5642 27.0082C27.9728 26.5741 28.2066 26.0848 28.3451 25.6509C28.5722 25.8499 28.8651 26.024 29.2468 26.1166C29.392 26.1512 29.5505 26.1705 29.7213 26.1705C30.0894 26.1705 30.3973 26.0904 30.4321 26.0821L30.9362 25.9439L30.713 25.4601C30.6969 25.4214 30.2762 24.4511 30.7292 23.0661C30.9241 22.4676 31.0235 21.9313 31.0719 21.5139C31.389 21.6839 31.8138 21.8249 32.3634 21.8263C33.6106 21.8263 34.1603 20.8684 34.1858 20.8284L34.4318 20.3888L33.9761 20.1953C32.4898 19.5608 32.1605 17.8567 32.0947 16.9333C32.229 16.9596 32.3822 16.9845 32.5556 16.99H32.6308ZM33.8095 20.603C33.8095 20.603 33.3741 21.3812 32.3755 21.3812H32.3634C31.1646 21.3743 30.6808 20.6224 30.6808 20.6224C30.6808 20.6224 30.7507 21.601 30.318 22.921C29.7978 24.5119 30.322 25.6495 30.322 25.6495C30.322 25.6495 30.0424 25.7269 29.7199 25.7269C29.5963 25.7269 29.4673 25.7144 29.3463 25.6812C28.3451 25.4366 28.095 24.4994 28.095 24.4994C28.095 24.4994 28.1878 27.6661 24.5981 27.6661H24.5699C24.5699 27.6661 24.8858 27.2238 24.9798 25.9508C25.1505 23.6011 26.6974 23.279 26.6974 23.279C26.6974 23.279 25.8722 23.1726 25.5147 22.8422C24.9556 22.3211 24.9946 21.7185 24.9946 21.7185C26.2579 21.7005 27.0844 21.2582 27.7147 20.5077C28.3974 19.6949 28.5104 18.82 28.5104 18.82C28.5104 18.82 27.8316 19.453 26.5186 19.453C26.403 19.453 26.2794 19.4475 26.153 19.4351C25.5322 19.384 25.1021 18.9776 25.1021 18.9776C26.4689 18.0764 27.4285 16.5034 26.5778 14.1344C25.8964 12.2366 24.2594 10.8185 22.6118 9.75002C22.0635 9.3976 21.7583 9.00637 21.7583 8.66913C21.7583 7.87576 22.8551 7.85085 23.3053 7.31736C23.824 6.69815 23.4988 5.69325 23.0486 5.08923C23.0486 5.08923 23.2004 5.05741 23.4397 5.05741C23.914 5.05741 24.7352 5.18049 25.4098 5.89923C26.3063 6.85296 25.934 7.89094 25.934 7.89094L26.1746 7.9393C26.3183 7.97111 26.4608 7.97666 26.6087 7.98357C26.6409 7.98357 26.6732 7.98493 26.7054 7.98493C28.0077 7.98493 28.5897 6.5848 28.5897 6.5848C28.5897 6.5848 29.9739 8.33599 27.9365 9.70721C27.5857 9.94219 27.4311 10.1592 27.4714 10.3913L27.5038 10.5434L27.6488 10.5697C29.1259 10.9815 29.8731 12.0292 30.7857 13.2208C32.1712 15.0328 34.132 15.0908 34.374 15.0908H34.3995C34.3995 15.0908 33.952 16.5435 32.6336 16.5435C32.6121 16.5435 32.5933 16.5435 32.5704 16.5421C31.9642 16.5201 31.6538 16.2809 31.6538 16.2809C31.6538 16.2809 31.4159 19.5802 33.8095 20.603Z" fill="#333333" data-color-group="2"/><path d="M29.7911 10.401C30.3945 10.7314 30.7453 11.1736 31.053 11.5662C31.3554 11.9491 31.643 12.3181 32.0918 12.4716C32.2518 12.5282 32.4211 12.5545 32.5932 12.5545C33.2679 12.5545 33.9452 12.1302 34.2018 11.5427L34.4599 10.9539L33.835 10.9152C33.8054 10.9138 33.0018 10.8392 32.1067 9.89793C31.7384 9.51224 31.2936 9.30908 30.8138 9.30908C30.2279 9.30908 29.7937 9.61042 29.7453 9.64078L29.1701 10.0568L29.7911 10.401ZM30.8152 9.75413C31.1162 9.75413 31.4669 9.85921 31.7989 10.2116C32.8405 11.2994 33.8094 11.3602 33.8094 11.3602C33.6334 11.7611 33.1227 12.1135 32.5945 12.1135C32.4722 12.1135 32.3499 12.0942 32.2276 12.0513C31.5113 11.8026 31.2546 10.6968 29.9954 10.0085C29.9954 10.0085 30.3475 9.75413 30.8152 9.75413Z" fill="#333333" data-color-group="2"/><path d="M30.0734 16.2741V16.2962C29.7106 13.2858 27.5844 11.1115 25.2191 9.78875C25.0001 9.66849 24.7985 9.56623 24.6023 9.46815C25.3226 9.58286 26.4825 9.59668 27.3775 8.79776C27.3775 8.79776 26.008 9.83438 23.2019 8.89311C23.9787 9.41142 25.4879 10.1426 26.8655 11.3271C30.3099 14.4399 27.8452 17.4766 27.8452 17.4766C29.083 16.1483 29.134 14.7246 28.7699 13.5622C29.4216 14.6776 29.8383 16.0322 29.7737 17.7019C29.6784 20.0944 28.4003 22.1636 27.0549 23.8264C26.4085 24.6336 26.2634 25.6247 26.2634 25.6247C26.2634 25.6247 26.5241 24.7497 27.2726 23.8499C28.7147 22.1139 29.9471 20.31 30.1084 17.7116C30.2576 18.1829 30.8718 19.4946 31.8461 19.9881C31.8488 19.9894 30.6245 19.2306 30.0734 16.2741Z" fill="#333333" data-color-group="2"/><path d="M11.7164 27.413C11.7151 27.4088 11.4651 27.0066 11.3844 25.9188C11.2903 24.6153 10.8119 23.8552 10.3389 23.4184C10.4759 23.352 10.6023 23.2705 10.7085 23.1696C11.4033 22.5268 11.3737 21.7708 11.3696 21.6893L11.3428 21.2815L10.945 21.2746C9.88463 21.2566 9.14406 20.9304 8.54331 20.2158C8.40358 20.0472 8.29072 19.8799 8.19929 19.7155C8.52987 19.8191 8.93441 19.8966 9.41422 19.8966C9.54324 19.8966 9.6763 19.8883 9.81736 19.8786C10.5633 19.8122 11.0687 19.3561 11.125 19.305L11.5377 18.9152L11.0659 18.6028C10.0109 17.9089 8.9331 16.5931 9.76097 14.2876C10.2972 12.7879 11.5377 11.4292 13.5536 10.1272C14.2336 9.68487 14.6059 9.16519 14.6059 8.66752C14.6059 7.89905 13.9823 7.59635 13.524 7.38074C13.3009 7.27157 13.0684 7.16231 12.9555 7.02823C12.6007 6.60673 12.9004 5.79672 13.2284 5.35858L13.6503 4.79046L12.9676 4.65229C12.9474 4.64947 12.7687 4.61493 12.4946 4.61493C11.9838 4.61493 11.0109 4.7421 10.2152 5.58938C9.55264 6.2943 9.46525 7.04486 9.49889 7.52863C9.43433 7.53418 9.36987 7.5369 9.30268 7.54109H9.23013C8.23292 7.54109 7.7612 6.45465 7.74231 6.41184L7.46144 5.73318L7.00719 6.30539C6.98172 6.33994 6.31782 7.19139 6.47907 8.25701C6.58657 8.96612 7.01931 9.57706 7.76251 10.0802C7.84314 10.1327 7.89961 10.1797 7.93993 10.217C6.5409 10.6856 5.7587 11.7139 4.93214 12.7948L4.81252 12.9483C3.54928 14.6014 1.76179 14.6497 1.5481 14.6497L0.939362 14.6304L1.12477 15.2261C1.14629 15.2979 1.6852 16.9898 3.30327 16.9898L3.38126 16.987C3.55192 16.9815 3.70518 16.958 3.84228 16.9303C3.775 17.8523 3.44573 19.5565 1.958 20.1923L1.50375 20.3859L1.74976 20.8254C1.77391 20.8655 2.32495 21.8234 3.57475 21.8234C4.12043 21.822 4.54508 21.681 4.86364 21.5109C4.91203 21.9283 5.01145 22.4647 5.20635 23.0631C5.65928 24.4481 5.23726 25.4184 5.2211 25.4572L4.99802 25.9409L5.50338 26.0791C5.53693 26.0874 5.84741 26.1676 6.21427 26.1676C6.38632 26.1676 6.54494 26.1482 6.6874 26.1136C7.07042 26.0211 7.36606 25.8469 7.59046 25.6479C7.72756 26.0819 7.96276 26.5711 8.36994 27.0052C9.06343 27.7378 10.0606 28.1082 11.3643 28.1082L12.1545 28.0972L11.7164 27.413ZM11.3347 27.6659C7.74504 27.6659 7.83647 24.4993 7.83647 24.4993C7.83647 24.4993 7.58642 25.4364 6.58526 25.6811C6.46563 25.7142 6.33793 25.7267 6.21295 25.7267C5.89044 25.7267 5.6122 25.6492 5.6122 25.6492C5.6122 25.6492 6.13364 24.5117 5.61352 22.9208C5.18351 21.6008 5.25333 20.6222 5.25333 20.6222C5.25333 20.6222 4.77089 21.3741 3.5708 21.381H3.55868C2.56015 21.381 2.1247 20.6028 2.1247 20.6028C4.51689 19.5814 4.28168 16.2835 4.28168 16.2835C4.28168 16.2835 3.97121 16.5212 3.36379 16.5447C3.34227 16.5461 3.32216 16.5461 3.30064 16.5461C1.98083 16.5461 1.53466 15.0934 1.53466 15.0934H1.56154C1.80483 15.0934 3.76297 15.0353 5.14855 13.2233C6.0611 12.0318 6.80966 10.9856 8.28395 10.5722L8.43177 10.546L8.46409 10.3939C8.5044 10.1617 8.35114 9.94475 8.00035 9.70977C5.96299 8.33719 7.34726 6.58736 7.34726 6.58736C7.34726 6.58736 7.92649 7.98613 9.23145 7.98613C9.26368 7.98613 9.29328 7.98477 9.32683 7.98477C9.47333 7.9765 9.61851 7.97095 9.76097 7.93914L10.0015 7.89078C10.0015 7.89078 9.62923 6.8527 10.527 5.89898C11.2016 5.17887 12.0228 5.05725 12.4959 5.05725C12.7364 5.05725 12.8857 5.08906 12.8857 5.08906C12.4368 5.69445 12.1115 6.6979 12.6302 7.31711C13.0791 7.84933 14.1745 7.8756 14.1745 8.66897C14.1745 9.00485 13.8694 9.39735 13.321 9.74986C11.672 10.8183 10.0351 12.2364 9.35511 14.1341C8.50572 16.5033 9.46393 18.0748 10.8334 18.9774C10.8334 18.9774 10.4033 19.3838 9.78108 19.4349C9.65478 19.4473 9.53253 19.4529 9.41422 19.4529C8.1025 19.4529 7.42385 18.8198 7.42385 18.8198C7.42385 18.8198 7.53671 19.6948 8.21545 20.5075C8.84975 21.2581 9.6763 21.7003 10.9396 21.7183C10.9396 21.7183 10.9799 22.3209 10.4208 22.842C10.062 23.1709 9.23681 23.2788 9.23681 23.2788C9.23681 23.2788 10.7851 23.6008 10.9544 25.9506C11.0471 27.2236 11.3602 27.6659 11.3602 27.6659H11.3347Z" fill="#333333" data-color-group="2"/><path d="M3.34003 12.5559C3.51332 12.5559 3.68274 12.5297 3.84259 12.473C4.2942 12.3196 4.58044 11.9505 4.88283 11.5677C5.1919 11.1751 5.54005 10.7328 6.14344 10.4024L6.76438 10.0596L6.18779 9.64367C6.1394 9.61186 5.70666 9.31189 5.12208 9.31189C4.64095 9.31189 4.19478 9.51369 3.82783 9.90074C2.93277 10.8406 2.13045 10.9166 2.10085 10.918L1.47595 10.9554L1.73268 11.5456C1.99072 12.1302 2.66665 12.5559 3.34003 12.5559ZM4.13558 10.2131C4.46889 9.86065 4.81968 9.75557 5.12208 9.75557C5.58704 9.75557 5.93915 10.0099 5.93915 10.0099C4.68126 10.6997 4.42322 11.804 3.70417 12.0528C3.58595 12.0957 3.46229 12.115 3.34003 12.115C2.81183 12.115 2.3011 11.7639 2.12641 11.3617C2.12641 11.3603 3.09402 11.2995 4.13558 10.2131Z" fill="#333333" data-color-group="2"/><path d="M6.16052 17.7033C6.09333 16.0336 6.50999 14.6791 7.16308 13.5637C6.79894 14.7261 6.84865 16.1498 8.08774 17.478C8.08774 17.478 5.62292 14.4413 9.06879 11.3286C10.4477 10.1441 11.9556 9.41292 12.7311 8.89461C9.92626 9.83588 8.55675 8.79926 8.55675 8.79926C9.45181 9.59808 10.6117 9.58427 11.332 9.46819C11.1372 9.56636 10.9329 9.66862 10.7165 9.78888C8.34851 11.1117 6.22367 13.2858 5.85953 16.2962V16.2728C5.30981 19.2293 4.08679 19.9881 4.08679 19.9881C5.05985 19.4946 5.67272 18.1843 5.82185 17.7116C5.98451 20.3102 7.21683 22.1139 8.65889 23.85C9.40746 24.7498 9.67094 25.6247 9.67094 25.6247C9.67094 25.6247 9.52445 24.6336 8.8753 23.8264C7.53267 22.1664 6.25458 20.0959 6.16052 17.7033Z" fill="#333333" data-color-group="2"/><path d="M17.1568 11.6119V12.209C17.357 11.9588 17.7441 12.01 17.7441 12.01V12.8711C17.7441 12.8711 17.7307 13.294 17.5842 13.4779H18.0035H18.4214C18.2777 13.2954 18.2628 12.8711 18.2628 12.8711V12.01C18.2628 12.01 18.6499 11.9588 18.8488 12.209V11.6119H18.0035H17.1568Z" fill="#333333" data-color-group="2"/><path d="M16.7966 8.07089C17.064 8.28923 17.2186 8.32514 17.224 8.32932L17.3288 8.37904V7.81655L16.3451 7.39078C16.3451 7.39223 16.3545 7.71702 16.7966 8.07089Z" fill="#333333" data-color-group="2"/><path d="M19.1365 8.07089C19.5813 7.71702 19.5894 7.39078 19.5894 7.39078L18.6056 7.81655V8.37904L18.7091 8.32932C18.7158 8.32514 18.869 8.28923 19.1365 8.07089Z" fill="#333333" data-color-group="2"/><path d="M20.909 5.78036C20.909 4.92753 19.5126 4.16043 17.9712 4.16043H17.9698H17.9658H17.9618C16.4203 4.16043 15.0239 4.92753 15.0239 5.78036L15.0548 5.99052L15.6703 9.62433L15.0522 9.99329L13.4528 10.9539H13.4583C13.4583 10.9539 13.0981 11.1434 12.9314 11.2608C12.3226 11.6962 12.1936 12.3306 12.547 12.5932C12.6344 12.0763 13.0322 11.5345 13.7767 11.5345C14.313 11.5345 14.7215 11.8192 15.0522 12.2463C15.1368 12.3541 15.2175 12.4689 15.2927 12.5932C15.3854 12.7495 15.4781 12.8863 15.5709 13.019H11.4517C11.7541 13.6451 12.0417 14.3086 12.0417 15.0287V24.4055C12.0417 26.6751 13.7391 27.7588 15.5749 27.7588C16.9942 27.7588 17.185 27.6924 17.9685 28.494C18.748 27.691 18.9388 27.7588 20.3593 27.7588C22.1965 27.7588 23.8913 26.6751 23.8913 24.4055V15.0287C23.8913 14.3086 24.1788 13.6451 24.4826 13.019H20.362C20.4535 12.8876 20.5461 12.7495 20.6389 12.5932C20.7155 12.4689 20.7948 12.3541 20.8781 12.2463C21.2114 11.8178 21.6186 11.5345 22.1549 11.5345C22.8994 11.5345 23.2959 12.0749 23.3846 12.5932C23.738 12.3306 23.6104 11.6962 22.9975 11.2608C22.8335 11.1434 22.4734 10.9539 22.4734 10.9539H22.4787L20.8794 9.99329L20.2639 9.62433L20.8794 5.99052L20.909 5.78036ZM15.63 6.20331L17.7937 6.95805V10.4536L16.2012 9.58969L15.63 6.20331ZM16.0776 13.6286C16.4324 13.9921 16.7805 14.2173 17.1111 14.3418C17.068 14.5173 17.0116 14.8794 17.1716 15.2402C17.3019 15.5305 17.5384 15.7543 17.8784 15.9036C17.9161 16.263 18.1365 16.8034 18.748 17.0426C18.4806 17.3204 18.2198 17.5816 18.1136 17.6881L15.634 17.648C15.5777 17.619 15.4822 17.554 15.4391 17.4613C15.4338 17.4489 15.4257 17.442 15.4218 17.4282L15.8262 17.4959C15.8357 17.4973 15.8437 17.4973 15.8518 17.4973C15.9298 17.4973 15.9983 17.442 16.0117 17.3591C16.0251 17.2665 15.9646 17.1822 15.8773 17.1684L15.38 17.0882L15.9324 15.1269L15.4096 13.9948L14.571 14.9071L14.5199 16.9472L13.9569 16.856C13.8695 16.838 13.7861 16.9043 13.7714 16.9942C13.7579 17.084 13.817 17.1684 13.9057 17.1849L14.1423 17.2223C14.0576 17.272 14.0025 17.3107 13.9958 17.3163L13.9474 17.3508L13.9339 17.4116C13.7969 17.9838 14.1073 18.5271 14.442 18.7703L14.4299 18.8422C14.4165 18.9307 14.4353 19.0164 14.4863 19.0882C14.5347 19.1614 14.61 19.2057 14.6933 19.2209C14.7108 19.2236 14.7296 19.2251 14.7457 19.2251C14.8908 19.2251 15.0172 19.1214 15.0535 18.9707C15.1785 18.9859 15.2927 18.9886 15.3706 18.9886H15.4365L18.6902 19.5927L18.7453 19.5554C19.0046 19.3688 19.9925 18.628 20.3164 18.3833C20.4051 18.4621 20.5045 18.534 20.6254 18.5934C20.5207 18.9556 20.5139 19.5125 20.9291 19.9521H12.6371V15.03C12.6371 14.5532 12.5014 14.0736 12.3414 13.6313H16.0776V13.6286ZM20.0986 18.1317C19.7694 18.3805 18.9227 19.0164 18.6163 19.2375L15.6596 18.6915C15.6663 18.6639 15.673 18.6376 15.6797 18.61C15.7187 18.4524 15.7577 18.2368 15.7604 17.9838L18.2454 18.0253L18.2924 17.9756C18.33 17.9368 19.1176 17.1545 19.5194 16.7039C19.6148 16.827 19.7344 16.9444 19.8903 17.0481C19.8366 17.3466 19.8594 17.7723 20.0986 18.1317ZM15.1489 17.6051C15.2188 17.7558 15.3451 17.8567 15.4325 17.9133C15.4297 18.0543 15.4163 18.2741 15.38 18.4676C15.372 18.5104 15.3612 18.5505 15.3491 18.5906C15.3424 18.6155 15.3357 18.6362 15.3303 18.6528C15.2 18.6528 14.9433 18.6362 14.7336 18.5574C14.5011 18.469 14.1544 18.0308 14.235 17.5484C14.3358 17.4849 14.5683 17.3508 14.7861 17.3508C14.9541 17.3494 15.0682 17.431 15.1489 17.6051ZM14.8411 16.9983L14.8908 15.0398L15.3182 14.5739L15.5871 15.1517L15.0575 17.0315L14.8411 16.9983ZM20.0718 27.152C19.9105 27.152 19.7613 27.1547 19.6269 27.1603L19.979 26.0337C20.0341 25.8776 19.7559 25.6771 19.6417 25.5016C19.815 25.6136 20.2639 25.8582 20.4803 25.9564C20.4575 25.9923 20.0718 27.152 20.0718 27.152ZM21.1765 25.872L20.9466 27.105C20.8001 27.1257 20.6442 27.1367 20.4844 27.1436L20.7263 25.9578C20.7988 25.6052 19.8782 25.4961 19.4239 24.8036C19.2023 25.0607 18.7843 25.1367 18.365 25.1367C17.982 25.1367 17.5989 25.0731 17.3664 25.0261C17.3073 25.0165 17.2508 25.0096 17.1957 25.0096C17.0613 25.0096 16.939 25.0524 16.8543 25.1989L16.7871 25.315L15.5333 25.0109L15.2215 25.5417C15.1772 25.6274 15.1744 25.7007 15.2457 25.7809L15.3303 25.8762C15.2725 26.0642 15.0118 26.3475 15.0118 26.3475L14.825 26.1084C14.6771 25.9384 14.7014 25.6288 14.8559 25.3413L15.3532 24.4774L16.4149 24.635L16.2495 24.2479C16.0279 23.7365 16.3651 23.0855 16.4015 22.711C16.3894 22.8243 16.2885 22.8492 16.1703 22.8492C16.0628 22.8492 15.9432 22.8284 15.8639 22.8284C15.833 22.8284 15.8061 22.8312 15.7913 22.8423L15.5037 23.022L15.2766 22.816C15.2497 22.7759 15.2403 22.6833 15.3075 22.6142L15.833 22.0088L15.212 21.2638L16.0816 21.713L16.3463 21.3827C16.419 21.4559 16.388 21.648 16.388 21.648C16.6595 21.6549 17.4201 22.0876 17.4604 23.0966C17.4632 23.127 17.4632 23.1616 17.4632 23.1948C17.4632 23.1948 17.4699 23.2071 17.4834 23.2279C17.5371 23.3039 17.6849 23.4988 17.8731 23.5168L19.0746 23.6384H19.0799C19.2117 23.6384 19.4737 23.4795 19.8097 23.4795C19.9925 23.4795 20.1967 23.5278 20.4145 23.6688C20.4145 23.6688 20.5233 23.5804 20.7007 23.5707C20.7141 23.5693 20.7289 23.5693 20.7424 23.5693C21.2813 23.5693 21.5044 24.0697 21.7934 24.4857C22.011 24.8022 22.3014 25.2722 22.3014 25.2722C22.1938 25.4034 22.0944 25.4753 21.9278 25.4753C21.882 25.4753 21.8297 25.4712 21.7732 25.4602C21.1953 25.351 21.112 24.1291 20.7827 24.0323C20.7653 24.0268 20.7464 24.0254 20.7303 24.0254C20.6241 24.0254 20.577 24.1222 20.577 24.1222C20.7276 24.5383 20.6403 24.7069 20.8015 25.0275C20.9225 25.2653 21.1375 25.4615 21.2262 25.5542C21.2262 25.5569 21.202 25.7366 21.1765 25.872ZM14.7242 24.7054L14.7793 24.8479C14.743 24.9722 14.3264 25.1491 14.3264 25.1491L14.2363 24.9473C14.1409 24.7317 14.1611 24.3682 14.4514 24.1457L15.126 23.7227L15.8411 23.8789C15.8276 24.1125 15.9633 24.2866 15.9633 24.2866L15.2134 24.1388L14.7645 24.4581C14.6893 24.512 14.6839 24.6129 14.7242 24.7054ZM21.2893 27.0373L21.495 25.9342C21.5057 25.8693 21.5192 25.7932 21.5286 25.7297C21.5864 25.7546 21.6482 25.7753 21.7154 25.7878C21.792 25.8029 21.8632 25.8099 21.9278 25.8099C22.2422 25.8099 22.425 25.6399 22.5473 25.4947L22.7058 25.3054L22.5769 25.098C22.5648 25.0773 22.2799 24.6129 22.0594 24.2949C22.0165 24.2327 21.9747 24.1706 21.9331 24.1029C21.6832 23.7186 21.37 23.2362 20.7424 23.2362L20.6859 23.2376C20.5825 23.2445 20.4938 23.2652 20.4226 23.2928C20.2249 23.1975 20.0221 23.1491 19.811 23.1491C19.5516 23.1491 19.3326 23.2224 19.1874 23.2735C19.1458 23.2859 19.1081 23.2997 19.0786 23.3053L17.9053 23.1864C17.8905 23.1837 17.8421 23.1547 17.7843 23.0828V23.0772L18.0383 22.9721C17.9671 22.1028 17.1554 21.5678 16.7025 21.3868C16.6824 21.2998 16.642 21.2127 16.5708 21.1422L16.3181 20.8961L16.0964 21.1698L15.9876 21.3094L14.3452 20.6156L15.4137 21.995L14.9917 22.6515C14.8371 22.8202 15.0078 22.9888 15.0078 22.9888L15.4432 23.297L15.8948 23.1242C15.9109 23.1242 15.9243 23.1284 15.9392 23.1298C15.9176 23.2002 15.8894 23.4767 15.8706 23.5541L15.087 23.3951L14.2632 23.8734C13.8399 24.1927 13.7821 24.7221 13.9394 25.0842L14.0307 25.2901L14.1611 25.5804L14.4487 25.4573C14.4527 25.456 14.4568 25.4546 14.4594 25.4519C14.356 25.7919 14.3977 26.1153 14.5831 26.3282L14.7578 26.5549L14.9903 26.8576L15.2457 26.5756C15.3209 26.4981 15.5642 26.2176 15.6394 25.9771L15.6946 25.7932L15.5696 25.6522L15.5494 25.6274L15.6892 25.3896L16.7119 25.6371L16.9417 25.691L17.064 25.4836L17.1312 25.3703C17.1433 25.3468 17.1473 25.3426 17.1944 25.3426C17.2307 25.3426 17.267 25.3468 17.3059 25.3551C17.6916 25.4297 18.0477 25.4671 18.3636 25.4671C18.67 25.4671 18.8528 25.4546 19.0718 25.38C19.0718 25.38 19.6216 26.0213 19.6403 26.0462L19.3044 27.1133L19.2896 27.1783C18.6525 27.2307 18.3421 27.3745 17.9671 27.7601C17.4228 27.2044 17.0371 27.1465 15.5736 27.1465C13.8224 27.1465 12.6357 26.0905 12.6357 24.4042V20.2811H23.2959L23.2986 24.4042C23.2999 25.7725 22.5191 26.7262 21.2893 27.0373ZM23.5942 13.6286C23.4316 14.0708 23.2959 14.5505 23.2959 15.0273L23.2972 18.1041C22.6723 17.9963 22.5983 17.3038 22.5957 17.2734L22.5836 17.1324L22.4492 17.1199C22.1777 17.0937 21.9976 16.9748 21.8457 16.8228C21.5393 16.5076 21.538 15.9962 21.5393 15.992C21.5353 16.0183 21.202 16.498 21.5891 17.0218C21.7517 17.243 21.9869 17.3784 22.292 17.4323C22.3632 17.8166 22.6414 18.3584 23.2972 18.4413V19.9479H21.4533C20.6026 19.4614 20.9628 18.6044 20.9803 18.5685L21.0528 18.4054L20.8902 18.3418C19.9696 17.9907 20.2223 17.0453 20.2357 17.0052L20.2733 16.867L20.1483 16.8062C19.3877 16.4441 19.4912 15.4668 19.5006 15.4267C19.2667 15.6216 19.1821 16.0198 19.3433 16.4095C19.256 16.5118 19.139 16.6362 19.0114 16.7716C18.2238 16.5657 18.1996 15.8207 18.1996 15.7862L18.1983 15.6714L18.0948 15.63C17.7871 15.5125 17.576 15.3369 17.4726 15.1006C17.3557 14.8393 17.3973 14.5656 17.4295 14.4344C17.5196 14.4551 17.6097 14.4703 17.6956 14.4772C17.7844 14.4868 17.8758 14.4924 17.9671 14.4924H17.9725H17.9792C18.0706 14.4924 18.1607 14.4868 18.2494 14.4772C18.7399 14.4275 19.2896 14.2104 19.8621 13.6271H23.5942V13.6286ZM20.7209 10.5186L21.4493 10.9539H21.4601L21.6428 11.0632C21.2315 11.1806 20.9171 11.3921 20.6537 11.6699C20.6442 11.6782 20.6348 11.6893 20.6254 11.6989C20.565 11.7653 20.5045 11.8372 20.448 11.9105C20.4373 11.9243 20.4266 11.9395 20.4145 11.9546C20.358 12.0294 20.3056 12.1053 20.2545 12.1855C20.2465 12.1993 20.2371 12.2132 20.2277 12.2256C20.1671 12.3182 20.1094 12.4177 20.0516 12.52C19.5328 13.4391 18.705 13.9879 17.9685 13.9892C17.2333 13.9879 16.4054 13.4391 15.8867 12.52C15.8302 12.4205 15.7739 12.3237 15.7133 12.2297C15.7012 12.2118 15.6905 12.1938 15.6797 12.1786C15.6287 12.1025 15.5777 12.0279 15.5252 11.9575C15.5118 11.9381 15.4997 11.9229 15.4862 11.9063C15.4297 11.8358 15.372 11.7653 15.3142 11.7004C15.3021 11.6907 15.2941 11.6782 15.2819 11.6672C15.0172 11.3893 14.704 11.1793 14.2915 11.0632L14.4769 10.9539H14.485L15.2134 10.5186L15.962 10.0776L17.9618 11.1973L17.9658 11.1931L17.9712 11.1973L19.9709 10.0776L20.7209 10.5186ZM19.7344 9.59115L18.1405 10.455V6.95805L20.3029 6.20331L19.7344 9.59115ZM17.9671 6.57373L15.5964 5.61037C15.798 5.1197 16.728 4.70228 17.9671 4.70092C19.2076 4.70228 20.1376 5.1197 20.3379 5.61037L17.9671 6.57373Z" fill="#333333" data-color-group="2"/><path d="M47.064 15.2687V9.73417H50.2205V7.72019H41.6092V9.73417H44.7656V15.2687H47.064ZM53.362 12.1129V7.72019H51.1403V15.2687H53.1016L56.9322 10.876V15.2687H59.154V7.72019H57.1927L53.362 12.1129ZM66.6285 12.4618V15.2687H68.8503V7.72019H66.6285V10.4795H63.0583V7.72019H60.8366V15.2687H63.0583V12.4618H66.6285ZM75.0376 15.2687C75.5434 15.2687 76.003 15.2212 76.4322 15.0943C77.581 14.7613 78.3319 13.7939 78.3319 12.4777C78.3319 11.2248 77.6881 10.3526 76.6623 9.95624C76.1715 9.76589 75.5893 9.75007 75.0376 9.75007H72.7546V7.72019H70.5329V15.2687H75.0376ZM74.6546 11.5262C74.961 11.5262 75.2522 11.5262 75.5127 11.6213C75.8804 11.7481 76.0949 12.0654 76.0949 12.446C76.0949 12.8424 75.8804 13.1755 75.528 13.334C75.2829 13.4451 75.0376 13.4451 74.6546 13.4451H72.7546V11.5262H74.6546ZM82.3158 12.4143L84.9665 15.2687H87.9237L84.2314 11.3359L87.7858 7.72019H84.9972L82.3158 10.5588H81.7028V7.72019H79.4807V15.2687H81.7028V12.4143H82.3158ZM92.4952 7.51403C89.5072 7.51403 87.7147 9.2584 87.7147 11.5103C87.7147 13.7622 89.5072 15.5066 92.4952 15.5066C95.4682 15.5066 97.2608 13.7622 97.2608 11.5103C97.2608 9.2584 95.4682 7.51403 92.4952 7.51403ZM92.4952 13.667C91.0091 13.667 90.0588 12.7472 90.0588 11.5103C90.0588 10.2734 91.0091 9.36948 92.4952 9.36948C93.9663 9.36948 94.9315 10.2734 94.9315 11.5103C94.9315 12.7472 93.9663 13.667 92.4952 13.667ZM104.659 7.29196H102.438V8.05325C99.6497 8.1166 97.9792 9.33775 97.9792 11.4944C97.9792 13.6512 99.6497 14.7771 102.438 14.8406V15.6018H104.659V14.8406C107.464 14.7771 109.134 13.6512 109.134 11.4944C109.134 9.33775 107.464 8.1166 104.659 8.05325V7.29196ZM102.438 13.223C100.906 13.1595 100.232 12.5093 100.232 11.4944C100.232 10.4795 100.906 9.75007 102.438 9.68663V13.223ZM104.659 9.68663C106.207 9.75007 106.867 10.4795 106.867 11.4944C106.867 12.5093 106.207 13.1595 104.659 13.223V9.68663ZM116.526 7.29196H114.304V8.05325C111.515 8.1166 109.845 9.33775 109.845 11.4944C109.845 13.6512 111.515 14.7771 114.304 14.8406V15.6018H116.526V14.8406C119.329 14.7771 121 13.6512 121 11.4944C121 9.33775 119.329 8.1166 116.526 8.05325V7.29196ZM114.304 13.223C112.772 13.1595 112.098 12.5093 112.098 11.4944C112.098 10.4795 112.772 9.75007 114.304 9.68663V13.223ZM116.526 9.68663C118.074 9.75007 118.732 10.4795 118.732 11.4944C118.732 12.5093 118.074 13.1595 116.526 13.223V9.68663Z" fill="#F5F5F6" data-color-group="3"/><path d="M43.5578 24.3652V23.6436H47.4137V22.4036H41.9784V27.7697H45.6601C46.172 27.7697 46.5533 27.7247 46.8364 27.6118C47.4355 27.3751 47.8386 26.8002 47.8386 26.0449C47.8386 25.2783 47.4573 24.7484 46.8582 24.5117C46.5751 24.399 46.2047 24.3652 45.8016 24.3652H43.5578ZM43.5578 26.4169V25.5601H45.7145C45.8888 25.5601 46.0304 25.5714 46.1393 25.6278C46.27 25.6954 46.3354 25.8194 46.3354 25.9773C46.3354 26.1351 46.2591 26.3042 46.074 26.3718C45.9868 26.4056 45.867 26.4169 45.7145 26.4169H43.5578ZM50.3231 25.5263V22.4036H48.7436V27.7697H50.1379L52.8611 24.647V27.7697H54.4405V22.4036H53.0462L50.3231 25.5263ZM58.2291 22.2119C58.9262 22.2119 59.4272 22.3021 59.7648 22.4036C60.5382 22.6291 60.9522 23.125 60.9522 23.7226C60.9522 24.3426 60.5927 24.7484 60.0481 24.9852C60.7125 25.1543 61.0938 25.639 61.0938 26.2478C61.0938 26.9467 60.658 27.4991 59.9174 27.7247C59.547 27.8374 59.0895 27.9275 58.1854 27.9275C57.4556 27.9275 56.8239 27.8599 56.3991 27.7021C55.7673 27.4653 55.3207 26.9918 55.2336 26.214H56.9764C57.0308 26.4394 57.1943 26.5973 57.3576 26.6762C57.521 26.7551 57.7933 26.8227 58.1964 26.8227C58.7846 26.8227 58.9479 26.7438 59.1004 26.6875C59.3401 26.5973 59.4381 26.4056 59.4381 26.1914C59.4381 25.966 59.3074 25.8194 59.1331 25.763C58.9915 25.7067 58.839 25.6954 58.3815 25.6954H56.9981V24.4779H58.2835C58.5993 24.4779 58.7846 24.4779 58.9806 24.4215C59.2093 24.3426 59.3074 24.1847 59.3074 23.9706C59.3074 23.7902 59.2093 23.5873 58.9261 23.4745C58.7191 23.3844 58.4578 23.3506 58.131 23.3506C57.8369 23.3506 57.619 23.3844 57.4339 23.4633C57.2269 23.5422 57.0853 23.6662 56.9764 23.9142H55.2771C55.3643 23.2153 55.8109 22.6967 56.4971 22.4599C57.0417 22.2683 57.6081 22.2119 58.2291 22.2119ZM66.1682 25.7743V27.7697H67.7477V22.4036H66.1682V24.3652H63.6303V22.4036H62.0508V27.7697H63.6303V25.7743H66.1682ZM74.2158 22.4036H68.9438V27.7697H74.2158V26.541H70.5232V25.594H73.9979V24.523H70.5232V23.6323H74.2158V22.4036ZM81.3321 24.5343C81.1037 23.204 79.9602 22.257 78.1518 22.257C76.0821 22.2345 74.8076 23.4745 74.8076 25.0979C74.8076 26.6988 76.0821 27.9388 78.1518 27.9388C79.9813 27.9275 81.0817 26.9918 81.3215 25.6503H79.6545C79.4912 26.2591 78.9141 26.6762 78.1079 26.6762C77.0952 26.6762 76.4742 25.9773 76.4742 25.0979C76.4742 24.2186 77.0952 23.5309 78.1079 23.5309C78.9141 23.5309 79.4806 23.9368 79.644 24.5343H81.3321Z" fill="#F5F5F6" data-color-group="3"/></svg>