<svg width="100%" height="100%" viewBox="0 0 67 60" fill="none" xmlns="http://www.w3.org/2000/svg" preserveAspectRatio="none"><rect width="66" height="58.6667" rx="12.4892" transform="matrix(1 0 0 -1 0.357422 59.0806)" fill="#FFE872" data-color-group="0"/><path d="M25.1557 38.8666C24.2505 38.8666 23.336 38.7063 22.412 38.3858C21.5068 38.0652 20.6865 37.5372 19.9511 36.8018C19.2345 36.0663 18.65 35.0952 18.1974 33.8883C17.7448 32.6626 17.5185 31.1541 17.5185 29.3626C17.5185 27.5335 17.7354 25.9966 18.1691 24.7521C18.6217 23.5075 19.2062 22.5081 19.9228 21.7538C20.6582 20.9995 21.4785 20.4621 22.3837 20.1415C23.3077 19.8209 24.2411 19.6606 25.184 19.6606C26.0891 19.6606 26.9848 19.8209 27.8711 20.1415C28.7762 20.4621 29.5871 20.9901 30.3037 21.7255C31.0202 22.4609 31.6048 23.4415 32.0574 24.6672C32.51 25.8741 32.7362 27.3638 32.7362 29.1363C32.7362 30.9843 32.5194 32.5306 32.0857 33.7752C31.652 35.0198 31.0768 36.0192 30.3602 36.7735C29.6437 37.5278 28.8328 38.0652 27.9277 38.3858C27.0225 38.7063 26.0985 38.8666 25.1557 38.8666ZM25.0991 34.8783C25.8722 34.8783 26.4757 34.4069 26.9094 33.4641C27.362 32.5023 27.5882 31.1352 27.5882 29.3626C27.5882 27.5523 27.3714 26.1475 26.9377 25.1481C26.504 24.1486 25.8911 23.6489 25.0991 23.6489C24.326 23.6489 23.7225 24.1392 23.2888 25.1198C22.8551 26.1003 22.6382 27.4769 22.6382 29.2495C22.6382 31.0409 22.8551 32.4269 23.2888 33.4075C23.7225 34.3881 24.326 34.8783 25.0991 34.8783ZM43.4534 29.3626H48.6297V32.6155H43.4534V38.0181H39.8611V32.6155H34.7131V29.3626H39.8611V23.9601H43.4534V29.3626Z" fill="#333333" data-color-group="1"/></svg>