<?xml version="1.0" encoding="utf-8"?>
<!-- Generator: Adobe Illustrator 19.1.1, SVG Export Plug-In . SVG Version: 6.00 Build 0)  -->
<svg version="1.1" id="Layer_1" xmlns="http://www.w3.org/2000/svg" xmlns:xlink="http://www.w3.org/1999/xlink" x="0px" y="0px"
	 viewBox="0 0 100 100" style="enable-background:new 0 0 100 100;" xml:space="preserve">
<style type="text/css">
	.st0{fill:none;stroke:#FFFFFF;stroke-width:4.1405;stroke-miterlimit:10;}
	.st1{fill:#FFFFFF;}
</style>
<g>
	<circle class="st0" cx="50" cy="50" r="47.8"/>
	<path class="st1" d="M34.1,65c-0.1,3.1-0.4,6.1-1.7,8.9c-0.8,1.8-1.8,2-3.3,0.9c-2.5-1.8-4.6-4-6.3-6.6c-2.8-4.1-5.5-8.3-6.2-13.4
		c-0.2-1.5-0.3-2.9-0.1-4.3c0.5-4.8,5.7-7.8,10.2-6.1c0.9,0.3,1.3,1,1.8,1.7C32.3,51.8,33.8,58.2,34.1,65z"/>
	<path class="st1" d="M48.9,68.1c6.2,0.2,12.3,1.1,17.4,4.9c3.6,2.7,3.6,3.3-0.2,5.4c-7.7,4.2-15.8,6.7-24.7,4
		c-5.1-1.5-6-4.5-4.9-9.4c0.5-2.1,1.7-3.4,3.9-3.9C43.2,68.4,46,68.1,48.9,68.1z"/>
	<path class="st1" d="M25.1,40.6c-6,0-6.7-0.9-4.6-5c4-7.8,9.1-14.8,18.2-17.4c3.6-1,5.8-0.1,7.8,3c2.1,3.4,2,5.3-0.7,8.2
		C39.9,35.9,32.6,39.8,25.1,40.6z"/>
	<path class="st1" d="M83.1,50.2c-0.3,6.9-0.6,13.2-5,18.3c-2.9,3.4-5.1,3.9-9,2c-3-1.4-3.9-2.8-3.5-6.2c0.8-8.5,4-16.1,10.5-21.8
		c4.7-4.1,5.3-3.3,6.5,2.2C83,46.8,83,48.8,83.1,50.2z"/>
	<path class="st1" d="M54.4,17.3c7.3,1.3,15.5,3.5,21.3,10.5c4.7,5.6,1.7,9.5-2.4,12.1c-0.9,0.5-1.8,0.8-2.9,0.4
		c-8.8-3.3-15.5-8.9-19.4-17.5c-0.3-0.6-0.5-1.3-0.7-2C49.7,17.9,50.2,17.3,54.4,17.3z"/>
</g>
</svg>
