<svg width="100%" height="100%" viewBox="0 0 181 102" fill="none" xmlns="http://www.w3.org/2000/svg" preserveAspectRatio="none"><path d="M28.648 12.752V16.272H27.368V14H20.68V16.272H19.4V12.752H19.48C19.8533 12.7307 20.1573 12.6507 20.392 12.512C20.6373 12.3627 20.8293 12.16 20.968 11.904C21.1173 11.6373 21.2293 11.3173 21.304 10.944C21.3787 10.5707 21.4373 10.144 21.48 9.664C21.5333 9.056 21.5813 8.224 21.624 7.168C21.6667 6.10133 21.704 4.92267 21.736 3.632H27.448V12.752H28.648ZM26.04 12.752V4.88H23.048C23.016 5.904 22.9787 6.80533 22.936 7.584C22.8933 8.36267 22.8613 8.92267 22.84 9.264C22.808 9.648 22.7707 10.0107 22.728 10.352C22.6853 10.6933 22.6107 11.008 22.504 11.296C22.3973 11.584 22.2533 11.84 22.072 12.064C21.8907 12.288 21.6507 12.4693 21.352 12.608V12.752H26.04ZM33.0469 14.16C31.9802 14.16 31.1482 13.8027 30.5509 13.088C29.9535 12.3627 29.6549 11.3333 29.6549 10C29.6549 8.66667 29.9535 7.64267 30.5509 6.928C31.1482 6.20267 31.9802 5.84 33.0469 5.84C34.1135 5.84 34.9455 6.20267 35.5429 6.928C36.1402 7.64267 36.4389 8.66667 36.4389 10C36.4389 11.3333 36.1402 12.3627 35.5429 13.088C34.9455 13.8027 34.1135 14.16 33.0469 14.16ZM33.0469 13.088C33.6762 13.088 34.1669 12.832 34.5189 12.32C34.8709 11.808 35.0469 11.0347 35.0469 10C35.0469 8.976 34.8709 8.208 34.5189 7.696C34.1669 7.184 33.6762 6.928 33.0469 6.928C32.4069 6.928 31.9109 7.184 31.5589 7.696C31.2175 8.208 31.0469 8.976 31.0469 10C31.0469 11.0347 31.2175 11.808 31.5589 12.32C31.9109 12.832 32.4069 13.088 33.0469 13.088ZM47.5018 12.752V14H41.5018V12.56C42.2164 12.1973 42.8458 11.7867 43.3898 11.328C43.9444 10.8587 44.4084 10.3733 44.7818 9.872C45.1551 9.37067 45.4324 8.85867 45.6138 8.336C45.8058 7.81333 45.9018 7.30133 45.9018 6.8C45.9018 6.416 45.8538 6.09067 45.7578 5.824C45.6724 5.55733 45.5498 5.344 45.3898 5.184C45.2298 5.024 45.0431 4.90667 44.8298 4.832C44.6164 4.75733 44.3871 4.72 44.1418 4.72C43.6831 4.72 43.2991 4.832 42.9898 5.056C42.6804 5.28 42.5258 5.68 42.5258 6.256C42.5258 6.50133 42.5578 6.77333 42.6218 7.072H41.2778C41.1604 6.80533 41.1018 6.51733 41.1018 6.208C41.1018 5.78133 41.1818 5.39733 41.3418 5.056C41.5124 4.704 41.7364 4.41067 42.0138 4.176C42.2911 3.94133 42.6164 3.76 42.9898 3.632C43.3738 3.504 43.7844 3.44 44.2218 3.44C44.6804 3.44 45.1018 3.50933 45.4858 3.648C45.8804 3.776 46.2164 3.97333 46.4938 4.24C46.7711 4.50667 46.9898 4.84267 47.1498 5.248C47.3098 5.65333 47.3898 6.128 47.3898 6.672C47.3898 7.408 47.2404 8.096 46.9418 8.736C46.6538 9.376 46.2804 9.952 45.8218 10.464C45.3631 10.9653 44.8618 11.3973 44.3177 11.76C43.7738 12.1227 43.2564 12.4053 42.7658 12.608V12.752H47.5018ZM52.4383 14.176C51.9263 14.176 51.4676 14.0533 51.0623 13.808C50.6569 13.5627 50.3103 13.2107 50.0223 12.752C49.7343 12.2933 49.5103 11.7387 49.3503 11.088C49.2009 10.4373 49.1263 9.70667 49.1263 8.896C49.1263 8.064 49.2009 7.31733 49.3503 6.656C49.4996 5.984 49.7183 5.41333 50.0063 4.944C50.2943 4.47467 50.6409 4.11733 51.0463 3.872C51.4623 3.616 51.9316 3.488 52.4543 3.488C52.9556 3.488 53.4089 3.61067 53.8143 3.856C54.2196 4.10133 54.5609 4.45333 54.8383 4.912C55.1263 5.37067 55.3449 5.92533 55.4943 6.576C55.6543 7.22667 55.7343 7.95733 55.7343 8.768C55.7343 9.6 55.6596 10.352 55.5103 11.024C55.3716 11.6853 55.1583 12.2507 54.8703 12.72C54.5929 13.1893 54.2463 13.552 53.8303 13.808C53.4249 14.0533 52.9609 14.176 52.4383 14.176ZM52.4223 12.992C52.9983 12.992 53.4516 12.6347 53.7823 11.92C54.1236 11.2053 54.2943 10.2027 54.2943 8.912C54.2943 7.57867 54.1289 6.544 53.7983 5.808C53.4676 5.06133 53.0089 4.688 52.4223 4.688C51.8463 4.688 51.3876 5.056 51.0463 5.792C50.7156 6.51733 50.5503 7.53067 50.5503 8.832C50.5503 10.1547 50.7156 11.1787 51.0463 11.904C51.3876 12.6293 51.8463 12.992 52.4223 12.992ZM60.4851 14.176C59.9731 14.176 59.5145 14.0533 59.1091 13.808C58.7038 13.5627 58.3571 13.2107 58.0691 12.752C57.7811 12.2933 57.5571 11.7387 57.3971 11.088C57.2478 10.4373 57.1731 9.70667 57.1731 8.896C57.1731 8.064 57.2478 7.31733 57.3971 6.656C57.5465 5.984 57.7651 5.41333 58.0531 4.944C58.3411 4.47467 58.6878 4.11733 59.0931 3.872C59.5091 3.616 59.9785 3.488 60.5011 3.488C61.0025 3.488 61.4558 3.61067 61.8611 3.856C62.2665 4.10133 62.6078 4.45333 62.8851 4.912C63.1731 5.37067 63.3918 5.92533 63.5411 6.576C63.7011 7.22667 63.7811 7.95733 63.7811 8.768C63.7811 9.6 63.7065 10.352 63.5571 11.024C63.4185 11.6853 63.2051 12.2507 62.9171 12.72C62.6398 13.1893 62.2931 13.552 61.8771 13.808C61.4718 14.0533 61.0078 14.176 60.4851 14.176ZM60.4691 12.992C61.0451 12.992 61.4985 12.6347 61.8291 11.92C62.1705 11.2053 62.3411 10.2027 62.3411 8.912C62.3411 7.57867 62.1758 6.544 61.8451 5.808C61.5145 5.06133 61.0558 4.688 60.4691 4.688C59.8931 4.688 59.4345 5.056 59.0931 5.792C58.7625 6.51733 58.5971 7.53067 58.5971 8.832C58.5971 10.1547 58.7625 11.1787 59.0931 11.904C59.4345 12.6293 59.8931 12.992 60.4691 12.992ZM77.2269 14H75.8669L75.5309 9.568C75.5202 9.408 75.5042 9.232 75.4829 9.04C75.4722 8.83733 75.4615 8.62933 75.4509 8.416C75.4402 8.192 75.4295 7.97333 75.4189 7.76C75.4189 7.536 75.4189 7.328 75.4189 7.136H75.2269C75.1735 7.52 75.0935 7.952 74.9869 8.432C74.8802 8.90133 74.7469 9.392 74.5869 9.904L73.4669 13.52H71.7869L70.7949 9.824C70.6882 9.42933 70.5975 9.09867 70.5229 8.832C70.4482 8.56533 70.3842 8.336 70.3309 8.144C70.2882 7.952 70.2509 7.78133 70.2189 7.632C70.1975 7.48267 70.1762 7.31733 70.1549 7.136H69.9629C69.9735 7.31733 69.9735 7.52533 69.9629 7.76C69.9629 7.984 69.9522 8.21333 69.9309 8.448C69.9202 8.672 69.9042 8.89067 69.8829 9.104C69.8722 9.30667 69.8615 9.47733 69.8509 9.616L69.4989 14H68.2669L69.0189 6H70.9709L72.0429 9.936C72.2242 10.576 72.3575 11.1147 72.4429 11.552C72.5389 11.9787 72.6029 12.3147 72.6349 12.56H72.7949C72.8162 12.3147 72.8695 11.984 72.9549 11.568C73.0402 11.1413 73.1895 10.5973 73.4029 9.936L74.6349 6H76.5389L77.2269 14ZM78.1931 12.864C78.5451 12.9067 78.8171 12.8907 79.0091 12.816C79.2011 12.7307 79.3451 12.5227 79.4411 12.192C79.5371 11.8613 79.6011 11.3813 79.6331 10.752C79.6651 10.112 79.6918 9.25867 79.7131 8.192L79.7611 6H84.6251V14H83.2971V7.168H80.9771L80.9451 8.48C80.9131 9.78133 80.8651 10.8107 80.8011 11.568C80.7371 12.3253 80.6091 12.896 80.4171 13.28C80.2358 13.664 79.9691 13.8933 79.6171 13.968C79.2651 14.0427 78.7905 14.048 78.1931 13.984V12.864ZM86.7751 14V6H88.1351V9.328H91.4951V6H92.8551V14H91.4951V10.496H88.1351V14H86.7751ZM101.721 14.16C101.145 14.16 100.654 14.0053 100.249 13.696C99.8434 13.376 99.5341 12.8853 99.3207 12.224L99.1768 12.24C99.2301 12.528 99.2834 12.8373 99.3368 13.168C99.3901 13.488 99.4168 13.7493 99.4168 13.952V16.848H98.0888V6H99.4168V6.128C99.4168 6.33067 99.3901 6.59733 99.3368 6.928C99.2834 7.248 99.2301 7.552 99.1768 7.84L99.3207 7.856C99.5341 7.184 99.8541 6.68267 100.281 6.352C100.707 6.01067 101.193 5.84 101.737 5.84C102.131 5.84 102.505 5.92533 102.857 6.096C103.219 6.26667 103.534 6.528 103.801 6.88C104.078 7.22133 104.297 7.65333 104.457 8.176C104.617 8.688 104.697 9.296 104.697 10C104.697 10.7253 104.606 11.3493 104.425 11.872C104.254 12.3947 104.025 12.8267 103.737 13.168C103.459 13.5093 103.139 13.76 102.777 13.92C102.425 14.08 102.073 14.16 101.721 14.16ZM101.321 12.992C101.95 12.992 102.425 12.7413 102.745 12.24C103.075 11.7387 103.241 10.9973 103.241 10.016C103.241 9.04533 103.075 8.30933 102.745 7.808C102.425 7.296 101.95 7.04 101.321 7.04C100.681 7.04 100.201 7.296 99.8808 7.808C99.5608 8.30933 99.4008 9.04533 99.4008 10.016C99.4008 10.9973 99.5608 11.7387 99.8808 12.24C100.201 12.7413 100.681 12.992 101.321 12.992ZM108.944 12.8C108.987 12.5653 109.029 12.336 109.072 12.112C109.125 11.888 109.184 11.6533 109.248 11.408C109.323 11.152 109.403 10.88 109.488 10.592C109.573 10.2933 109.669 9.952 109.776 9.568L110.8 6H112.048L108.672 16.848H107.328L108.112 14.432L105.456 6H106.896L107.92 9.568C108.059 10.0693 108.176 10.4907 108.272 10.832C108.368 11.1733 108.448 11.4613 108.512 11.696C108.576 11.9307 108.624 12.1333 108.656 12.304C108.688 12.4747 108.72 12.64 108.752 12.8H108.944ZM116.588 6C117.143 6 117.612 6.11733 117.996 6.352C118.38 6.576 118.689 6.87467 118.924 7.248C119.169 7.62133 119.34 8.048 119.436 8.528C119.543 9.008 119.596 9.49867 119.596 10C119.596 10.5013 119.527 10.9973 119.388 11.488C119.249 11.9787 119.036 12.4267 118.748 12.832C118.471 13.2267 118.119 13.5467 117.692 13.792C117.276 14.0373 116.78 14.16 116.204 14.16C115.511 14.16 114.945 14.0213 114.508 13.744C114.071 13.456 113.724 13.0827 113.468 12.624C113.223 12.1547 113.052 11.616 112.956 11.008C112.86 10.4 112.812 9.76533 112.812 9.104C112.812 8.79467 112.817 8.45867 112.828 8.096C112.839 7.73333 112.871 7.37067 112.924 7.008C112.988 6.63467 113.073 6.26667 113.18 5.904C113.297 5.54133 113.457 5.20533 113.66 4.896C113.873 4.576 114.14 4.288 114.46 4.032C114.78 3.776 115.169 3.57333 115.628 3.424C115.98 3.30667 116.289 3.21067 116.556 3.136C116.833 3.06133 117.084 2.992 117.308 2.928C117.543 2.85333 117.761 2.77333 117.964 2.688C118.177 2.60267 118.391 2.49067 118.604 2.352L118.748 3.632C118.492 3.81333 118.161 3.97333 117.756 4.112C117.361 4.24 116.876 4.37867 116.3 4.528C115.447 4.74133 114.801 5.15733 114.364 5.776C113.937 6.384 113.724 7.26933 113.724 8.432V8.752H113.868C113.921 8.24 114.033 7.81333 114.204 7.472C114.385 7.12 114.599 6.83733 114.844 6.624C115.1 6.4 115.377 6.24 115.676 6.144C115.975 6.048 116.279 6 116.588 6ZM116.22 13.056C116.487 13.056 116.732 12.9973 116.956 12.88C117.191 12.752 117.393 12.56 117.564 12.304C117.735 12.048 117.868 11.728 117.964 11.344C118.071 10.96 118.124 10.512 118.124 10C118.124 8.976 117.937 8.208 117.564 7.696C117.201 7.184 116.748 6.928 116.204 6.928C115.649 6.928 115.191 7.184 114.828 7.696C114.465 8.208 114.284 8.97067 114.284 9.984C114.284 11.0293 114.46 11.8027 114.812 12.304C115.175 12.8053 115.644 13.056 116.22 13.056ZM120.443 12.864C120.795 12.9067 121.067 12.8907 121.259 12.816C121.451 12.7307 121.595 12.5227 121.691 12.192C121.787 11.8613 121.851 11.3813 121.883 10.752C121.915 10.112 121.942 9.25867 121.963 8.192L122.011 6H126.875V14H125.547V7.168H123.227L123.195 8.48C123.163 9.78133 123.115 10.8107 123.051 11.568C122.987 12.3253 122.859 12.896 122.667 13.28C122.486 13.664 122.219 13.8933 121.867 13.968C121.515 14.0427 121.04 14.048 120.443 13.984V12.864ZM134.881 11.344C134.902 11.7813 134.844 12.176 134.705 12.528C134.577 12.88 134.38 13.1787 134.113 13.424C133.846 13.6587 133.521 13.84 133.137 13.968C132.764 14.096 132.348 14.16 131.889 14.16C131.313 14.16 130.812 14.0533 130.385 13.84C129.969 13.6267 129.622 13.3333 129.345 12.96C129.078 12.5867 128.881 12.1493 128.753 11.648C128.625 11.136 128.561 10.5867 128.561 10C128.561 9.424 128.63 8.88533 128.769 8.384C128.908 7.872 129.116 7.42933 129.393 7.056C129.67 6.68267 130.017 6.38933 130.433 6.176C130.86 5.952 131.356 5.84 131.921 5.84C132.433 5.84 132.876 5.93067 133.249 6.112C133.622 6.29333 133.932 6.53867 134.177 6.848C134.422 7.14667 134.604 7.504 134.721 7.92C134.838 8.32533 134.897 8.75733 134.897 9.216C134.897 9.35467 134.892 9.50933 134.881 9.68C134.87 9.84 134.854 9.99467 134.833 10.144H129.953C129.974 11.1787 130.172 11.9307 130.545 12.4C130.929 12.8587 131.404 13.088 131.969 13.088C132.172 13.088 132.374 13.056 132.577 12.992C132.79 12.928 132.977 12.832 133.137 12.704C133.297 12.5653 133.42 12.384 133.505 12.16C133.59 11.936 133.622 11.664 133.601 11.344H134.881ZM131.857 6.928C131.281 6.928 130.833 7.12533 130.513 7.52C130.204 7.91467 130.022 8.464 129.969 9.168H133.553V9.072C133.553 8.35733 133.404 7.824 133.105 7.472C132.806 7.10933 132.39 6.928 131.857 6.928ZM137.721 3.712C138.404 3.872 139.097 3.952 139.801 3.952C140.484 3.952 141.177 3.872 141.881 3.712V4.752C141.177 4.912 140.484 4.992 139.801 4.992C139.097 4.992 138.404 4.912 137.721 4.752V3.712ZM136.681 14V6H138.009V9.248C138.009 9.536 138.004 9.84533 137.993 10.176C137.983 10.5067 137.967 10.8373 137.945 11.168C137.924 11.488 137.892 11.792 137.849 12.08C137.817 12.368 137.775 12.6027 137.721 12.784L137.881 12.832C137.956 12.6613 138.031 12.48 138.105 12.288C138.18 12.096 138.271 11.8773 138.377 11.632C138.484 11.3867 138.607 11.1093 138.745 10.8C138.884 10.4907 139.06 10.1333 139.273 9.728L141.209 6H142.777V14H141.449V10.752C141.449 10.464 141.455 10.1547 141.465 9.824C141.476 9.49333 141.492 9.168 141.513 8.848C141.535 8.51733 141.561 8.208 141.593 7.92C141.636 7.632 141.684 7.39733 141.737 7.216L141.577 7.168C141.503 7.33867 141.428 7.52 141.353 7.712C141.279 7.904 141.188 8.12267 141.081 8.368C140.975 8.61333 140.847 8.89067 140.697 9.2C140.559 9.50933 140.388 9.86667 140.185 10.272L138.249 14H136.681Z" fill="white" data-color-group="0"/><path d="M1.05552 6.05585H7.19052L4.12302 9.12335L1.05552 12.1908V6.05585Z" fill="white" data-color-group="0"/><path d="M1.05552 6.05585H7.19052L4.12302 9.12335L1.05552 12.1908V6.05585Z" fill="white" data-color-group="0"/><path d="M27.624 42.656C27.6453 43.168 27.5707 43.6427 27.4 44.08C27.24 44.5067 27 44.8747 26.68 45.184C26.36 45.4933 25.976 45.7387 25.528 45.92C25.08 46.0907 24.584 46.176 24.04 46.176C23.336 46.176 22.7173 46.048 22.184 45.792C21.6507 45.5253 21.2027 45.1573 20.84 44.688C20.488 44.208 20.2213 43.6427 20.04 42.992C19.8587 42.3413 19.768 41.6213 19.768 40.832C19.768 40.064 19.8587 39.3547 20.04 38.704C20.232 38.0427 20.5093 37.4773 20.872 37.008C21.2453 36.528 21.704 36.1547 22.248 35.888C22.792 35.6213 23.4267 35.488 24.152 35.488C24.7067 35.488 25.208 35.5787 25.656 35.76C26.1147 35.9307 26.4933 36.176 26.792 36.496C27.1013 36.8053 27.3253 37.1787 27.464 37.616C27.6133 38.0533 27.656 38.5387 27.592 39.072H26.168C26.2533 38.3787 26.104 37.8187 25.72 37.392C25.3467 36.9547 24.808 36.736 24.104 36.736C23.24 36.736 22.552 37.0933 22.04 37.808C21.528 38.512 21.272 39.52 21.272 40.832C21.272 42.1653 21.5333 43.184 22.056 43.888C22.5893 44.592 23.2987 44.944 24.184 44.944C24.4613 44.944 24.7227 44.9013 24.968 44.816C25.224 44.72 25.448 44.5813 25.64 44.4C25.832 44.2187 25.9813 43.984 26.088 43.696C26.2053 43.408 26.2587 43.0613 26.248 42.656H27.624ZM33.0333 46.16C32.4573 46.16 31.9666 46.0053 31.5613 45.696C31.1559 45.376 30.8466 44.8853 30.6332 44.224L30.4893 44.24C30.5426 44.528 30.5959 44.8373 30.6493 45.168C30.7026 45.488 30.7293 45.7493 30.7293 45.952V48.848H29.4013V38H30.7293V38.128C30.7293 38.3307 30.7026 38.5973 30.6493 38.928C30.5959 39.248 30.5426 39.552 30.4893 39.84L30.6332 39.856C30.8466 39.184 31.1666 38.6827 31.5933 38.352C32.0199 38.0107 32.5053 37.84 33.0493 37.84C33.4439 37.84 33.8173 37.9253 34.1693 38.096C34.5319 38.2667 34.8466 38.528 35.1133 38.88C35.3906 39.2213 35.6093 39.6533 35.7693 40.176C35.9293 40.688 36.0093 41.296 36.0093 42C36.0093 42.7253 35.9186 43.3493 35.7373 43.872C35.5666 44.3947 35.3373 44.8267 35.0493 45.168C34.7719 45.5093 34.4519 45.76 34.0893 45.92C33.7373 46.08 33.3853 46.16 33.0333 46.16ZM32.6333 44.992C33.2626 44.992 33.7373 44.7413 34.0573 44.24C34.3879 43.7387 34.5533 42.9973 34.5533 42.016C34.5533 41.0453 34.3879 40.3093 34.0573 39.808C33.7373 39.296 33.2626 39.04 32.6333 39.04C31.9933 39.04 31.5133 39.296 31.1933 39.808C30.8733 40.3093 30.7133 41.0453 30.7133 42.016C30.7133 42.9973 30.8733 43.7387 31.1933 44.24C31.5133 44.7413 31.9933 44.992 32.6333 44.992ZM40.6406 46.16C39.574 46.16 38.742 45.8027 38.1446 45.088C37.5473 44.3627 37.2486 43.3333 37.2486 42C37.2486 40.6667 37.5473 39.6427 38.1446 38.928C38.742 38.2027 39.574 37.84 40.6406 37.84C41.7073 37.84 42.5393 38.2027 43.1366 38.928C43.734 39.6427 44.0326 40.6667 44.0326 42C44.0326 43.3333 43.734 44.3627 43.1366 45.088C42.5393 45.8027 41.7073 46.16 40.6406 46.16ZM40.6406 45.088C41.27 45.088 41.7606 44.832 42.1126 44.32C42.4646 43.808 42.6406 43.0347 42.6406 42C42.6406 40.976 42.4646 40.208 42.1126 39.696C41.7606 39.184 41.27 38.928 40.6406 38.928C40.0006 38.928 39.5046 39.184 39.1526 39.696C38.8113 40.208 38.6406 40.976 38.6406 42C38.6406 43.0347 38.8113 43.808 39.1526 44.32C39.5046 44.832 40.0006 45.088 40.6406 45.088ZM45.7126 46V38H47.0726V41.44H47.8566C48.198 41.44 48.4593 41.3707 48.6406 41.232C48.8326 41.0933 48.9926 40.8533 49.1206 40.512C49.1953 40.3093 49.2753 40.0853 49.3606 39.84C49.4566 39.5947 49.5526 39.36 49.6486 39.136C49.7446 38.9013 49.8406 38.688 49.9366 38.496C50.0326 38.2933 50.1286 38.128 50.2246 38H51.7286C51.5473 38.1813 51.3926 38.384 51.2646 38.608C51.1366 38.832 51.0246 39.0667 50.9286 39.312C50.8326 39.5573 50.7366 39.808 50.6406 40.064C50.5446 40.32 50.438 40.5653 50.3206 40.8C50.1606 41.12 49.974 41.36 49.7606 41.52C49.558 41.6693 49.286 41.7813 48.9446 41.856V42C49.35 42.0747 49.654 42.1973 49.8566 42.368C50.07 42.5387 50.246 42.8053 50.3846 43.168C50.566 43.648 50.7686 44.1387 50.9926 44.64C51.2273 45.1413 51.5046 45.5947 51.8246 46H50.2246C50.1393 45.8933 50.0486 45.7547 49.9526 45.584C49.8673 45.4027 49.7766 45.2053 49.6806 44.992C49.5953 44.7787 49.51 44.5547 49.4246 44.32C49.3393 44.0853 49.2593 43.8507 49.1846 43.616C49.0673 43.2533 48.918 42.9707 48.7366 42.768C48.5553 42.5653 48.262 42.464 47.8566 42.464H47.0726V46H45.7126ZM62.5691 44.832V47.984H61.4011V46H56.2011V47.984H55.0331V44.832H55.1771C55.5611 44.832 55.8491 44.6827 56.0411 44.384C56.2438 44.0853 56.4038 43.6427 56.5211 43.056C56.5531 42.896 56.5798 42.64 56.6011 42.288C56.6331 41.9253 56.6545 41.5147 56.6651 41.056C56.6865 40.5973 56.7025 40.1013 56.7131 39.568C56.7345 39.0347 56.7505 38.512 56.7611 38H61.6411V44.832H62.5691ZM60.3131 44.832V39.168H57.9611C57.9398 39.5627 57.9238 39.9467 57.9131 40.32C57.9025 40.6933 57.8865 41.04 57.8651 41.36C57.8545 41.6693 57.8385 41.9467 57.8171 42.192C57.8065 42.4373 57.7958 42.624 57.7851 42.752C57.7318 43.2747 57.6145 43.6907 57.4331 44C57.2518 44.2987 57.0065 44.5387 56.6971 44.72V44.832H60.3131ZM66.8906 46.16C65.824 46.16 64.992 45.8027 64.3946 45.088C63.7973 44.3627 63.4986 43.3333 63.4986 42C63.4986 40.6667 63.7973 39.6427 64.3946 38.928C64.992 38.2027 65.824 37.84 66.8906 37.84C67.9573 37.84 68.7893 38.2027 69.3866 38.928C69.984 39.6427 70.2826 40.6667 70.2826 42C70.2826 43.3333 69.984 44.3627 69.3866 45.088C68.7893 45.8027 67.9573 46.16 66.8906 46.16ZM66.8906 45.088C67.52 45.088 68.0106 44.832 68.3626 44.32C68.7146 43.808 68.8906 43.0347 68.8906 42C68.8906 40.976 68.7146 40.208 68.3626 39.696C68.0106 39.184 67.52 38.928 66.8906 38.928C66.2506 38.928 65.7546 39.184 65.4026 39.696C65.0613 40.208 64.8906 40.976 64.8906 42C64.8906 43.0347 65.0613 43.808 65.4026 44.32C65.7546 44.832 66.2506 45.088 66.8906 45.088ZM71.9626 46V38H76.6346V39.168H73.2906V46H71.9626ZM80.5781 46.16C79.5115 46.16 78.6795 45.8027 78.0821 45.088C77.4848 44.3627 77.1861 43.3333 77.1861 42C77.1861 40.6667 77.4848 39.6427 78.0821 38.928C78.6795 38.2027 79.5115 37.84 80.5781 37.84C81.6448 37.84 82.4768 38.2027 83.0741 38.928C83.6715 39.6427 83.9701 40.6667 83.9701 42C83.9701 43.3333 83.6715 44.3627 83.0741 45.088C82.4768 45.8027 81.6448 46.16 80.5781 46.16ZM80.5781 45.088C81.2075 45.088 81.6981 44.832 82.0501 44.32C82.4021 43.808 82.5781 43.0347 82.5781 42C82.5781 40.976 82.4021 40.208 82.0501 39.696C81.6981 39.184 81.2075 38.928 80.5781 38.928C79.9381 38.928 79.4421 39.184 79.0901 39.696C78.7488 40.208 78.5781 40.976 78.5781 42C78.5781 43.0347 78.7488 43.808 79.0901 44.32C79.4421 44.832 79.9381 45.088 80.5781 45.088ZM85.6501 38H89.1061C89.4048 38 89.6928 38.0373 89.9701 38.112C90.2581 38.176 90.5088 38.288 90.7221 38.448C90.9461 38.608 91.1221 38.816 91.2501 39.072C91.3781 39.3173 91.4421 39.6213 91.4421 39.984C91.4421 40.1653 91.4101 40.352 91.3461 40.544C91.2821 40.7253 91.1808 40.9013 91.0421 41.072C90.9141 41.2427 90.7435 41.392 90.5301 41.52C90.3275 41.648 90.0821 41.744 89.7941 41.808V41.92C90.1568 41.9413 90.4608 42.016 90.7061 42.144C90.9621 42.2613 91.1648 42.4107 91.3141 42.592C91.4635 42.7627 91.5701 42.9547 91.6341 43.168C91.7088 43.3707 91.7461 43.568 91.7461 43.76C91.7461 44.2507 91.6181 44.6773 91.3621 45.04C91.1061 45.4027 90.7221 45.664 90.2101 45.824C89.9968 45.8987 89.7728 45.9467 89.5381 45.968C89.3035 45.9893 89.0421 46 88.7541 46H85.6501V38ZM88.8661 44.928C89.3141 44.928 89.6821 44.832 89.9701 44.64C90.2581 44.448 90.4021 44.128 90.4021 43.68C90.4021 43.456 90.3595 43.2693 90.2741 43.12C90.1888 42.9707 90.0768 42.848 89.9381 42.752C89.7995 42.656 89.6395 42.5867 89.4581 42.544C89.2768 42.5013 89.0955 42.48 88.9141 42.48H86.9781V44.928H88.8661ZM88.6261 41.408C89.0208 41.408 89.3675 41.3067 89.6661 41.104C89.9648 40.9013 90.1141 40.592 90.1141 40.176C90.1141 39.7707 89.9808 39.488 89.7141 39.328C89.4581 39.1573 89.1595 39.072 88.8181 39.072H86.9781V41.408H88.6261ZM96.4219 46.16C95.3552 46.16 94.5232 45.8027 93.9259 45.088C93.3285 44.3627 93.0299 43.3333 93.0299 42C93.0299 40.6667 93.3285 39.6427 93.9259 38.928C94.5232 38.2027 95.3552 37.84 96.4219 37.84C97.4885 37.84 98.3205 38.2027 98.9179 38.928C99.5152 39.6427 99.8139 40.6667 99.8139 42C99.8139 43.3333 99.5152 44.3627 98.9179 45.088C98.3205 45.8027 97.4885 46.16 96.4219 46.16ZM96.4219 45.088C97.0512 45.088 97.5419 44.832 97.8939 44.32C98.2459 43.808 98.4219 43.0347 98.4219 42C98.4219 40.976 98.2459 40.208 97.8939 39.696C97.5419 39.184 97.0512 38.928 96.4219 38.928C95.7819 38.928 95.2859 39.184 94.9339 39.696C94.5925 40.208 94.4219 40.976 94.4219 42C94.4219 43.0347 94.5925 43.808 94.9339 44.32C95.2859 44.832 95.7819 45.088 96.4219 45.088ZM105.174 46.16C104.598 46.16 104.107 46.0053 103.702 45.696C103.297 45.376 102.987 44.8853 102.774 44.224L102.63 44.24C102.683 44.528 102.737 44.8373 102.79 45.168C102.843 45.488 102.87 45.7493 102.87 45.952V48.848H101.542V38H102.87V38.128C102.87 38.3307 102.843 38.5973 102.79 38.928C102.737 39.248 102.683 39.552 102.63 39.84L102.774 39.856C102.987 39.184 103.307 38.6827 103.734 38.352C104.161 38.0107 104.646 37.84 105.19 37.84C105.585 37.84 105.958 37.9253 106.31 38.096C106.673 38.2667 106.987 38.528 107.254 38.88C107.531 39.2213 107.75 39.6533 107.91 40.176C108.07 40.688 108.15 41.296 108.15 42C108.15 42.7253 108.059 43.3493 107.878 43.872C107.707 44.3947 107.478 44.8267 107.19 45.168C106.913 45.5093 106.593 45.76 106.23 45.92C105.878 46.08 105.526 46.16 105.174 46.16ZM104.774 44.992C105.403 44.992 105.878 44.7413 106.198 44.24C106.529 43.7387 106.694 42.9973 106.694 42.016C106.694 41.0453 106.529 40.3093 106.198 39.808C105.878 39.296 105.403 39.04 104.774 39.04C104.134 39.04 103.654 39.296 103.334 39.808C103.014 40.3093 102.854 41.0453 102.854 42.016C102.854 42.9973 103.014 43.7387 103.334 44.24C103.654 44.7413 104.134 44.992 104.774 44.992ZM109.789 40.368C109.693 39.6107 109.901 39.0027 110.413 38.544C110.925 38.0747 111.667 37.84 112.637 37.84C113.139 37.84 113.56 37.904 113.901 38.032C114.243 38.16 114.52 38.352 114.733 38.608C114.947 38.8533 115.096 39.1573 115.181 39.52C115.277 39.872 115.325 40.272 115.325 40.72V46H113.965V45.872C113.965 45.7653 113.992 45.568 114.045 45.28C114.109 44.9813 114.168 44.6933 114.221 44.416H114.077C113.992 44.6613 113.885 44.8907 113.757 45.104C113.64 45.3173 113.485 45.504 113.293 45.664C113.112 45.8133 112.893 45.9307 112.637 46.016C112.381 46.112 112.083 46.16 111.741 46.16C111.325 46.16 110.968 46.096 110.669 45.968C110.381 45.84 110.141 45.6693 109.949 45.456C109.757 45.2427 109.613 45.0027 109.517 44.736C109.432 44.4587 109.389 44.176 109.389 43.888C109.389 43.2267 109.533 42.7093 109.821 42.336C110.12 41.952 110.493 41.6587 110.941 41.456C111.4 41.2533 111.896 41.12 112.429 41.056C112.973 40.992 113.496 40.9493 113.997 40.928V40.624C113.997 39.472 113.496 38.896 112.493 38.896C111.971 38.896 111.581 39.0293 111.325 39.296C111.08 39.5627 111 39.92 111.085 40.368H109.789ZM112.237 45.136C112.568 45.136 112.845 45.0667 113.069 44.928C113.293 44.7787 113.475 44.5867 113.613 44.352C113.752 44.1067 113.848 43.8347 113.901 43.536C113.965 43.2267 113.997 42.9067 113.997 42.576V41.776C113.357 41.7973 112.824 41.8613 112.397 41.968C111.981 42.0747 111.645 42.2133 111.389 42.384C111.144 42.544 110.968 42.736 110.861 42.96C110.755 43.184 110.701 43.424 110.701 43.68C110.701 44.1173 110.845 44.4693 111.133 44.736C111.421 45.0027 111.789 45.136 112.237 45.136ZM127.054 44.832V47.984H125.886V46H120.686V47.984H119.518V44.832H119.662C120.046 44.832 120.334 44.6827 120.526 44.384C120.728 44.0853 120.888 43.6427 121.006 43.056C121.038 42.896 121.064 42.64 121.086 42.288C121.118 41.9253 121.139 41.5147 121.15 41.056C121.171 40.5973 121.187 40.1013 121.198 39.568C121.219 39.0347 121.235 38.512 121.246 38H126.126V44.832H127.054ZM124.798 44.832V39.168H122.446C122.424 39.5627 122.408 39.9467 122.398 40.32C122.387 40.6933 122.371 41.04 122.35 41.36C122.339 41.6693 122.323 41.9467 122.302 42.192C122.291 42.4373 122.28 42.624 122.27 42.752C122.216 43.2747 122.099 43.6907 121.918 44C121.736 44.2987 121.491 44.5387 121.182 44.72V44.832H124.798ZM131.375 46.16C130.308 46.16 129.476 45.8027 128.879 45.088C128.282 44.3627 127.983 43.3333 127.983 42C127.983 40.6667 128.282 39.6427 128.879 38.928C129.476 38.2027 130.308 37.84 131.375 37.84C132.442 37.84 133.274 38.2027 133.871 38.928C134.468 39.6427 134.767 40.6667 134.767 42C134.767 43.3333 134.468 44.3627 133.871 45.088C133.274 45.8027 132.442 46.16 131.375 46.16ZM131.375 45.088C132.004 45.088 132.495 44.832 132.847 44.32C133.199 43.808 133.375 43.0347 133.375 42C133.375 40.976 133.199 40.208 132.847 39.696C132.495 39.184 132.004 38.928 131.375 38.928C130.735 38.928 130.239 39.184 129.887 39.696C129.546 40.208 129.375 40.976 129.375 42C129.375 43.0347 129.546 43.808 129.887 44.32C130.239 44.832 130.735 45.088 131.375 45.088ZM142.166 44.752V37.248H142.07C141.857 37.7173 141.553 38.0853 141.158 38.352C140.763 38.608 140.326 38.736 139.846 38.736V37.408C140.518 37.3653 141.073 37.1787 141.51 36.848C141.958 36.5067 142.273 36.1013 142.454 35.632H143.558V44.752H145.974V46H139.718V44.752H142.166ZM150.766 46.176C150.254 46.176 149.796 46.0533 149.39 45.808C148.985 45.5627 148.638 45.2107 148.35 44.752C148.062 44.2933 147.838 43.7387 147.678 43.088C147.529 42.4373 147.454 41.7067 147.454 40.896C147.454 40.064 147.529 39.3173 147.678 38.656C147.828 37.984 148.046 37.4133 148.334 36.944C148.622 36.4747 148.969 36.1173 149.374 35.872C149.79 35.616 150.26 35.488 150.782 35.488C151.284 35.488 151.737 35.6107 152.142 35.856C152.548 36.1013 152.889 36.4533 153.166 36.912C153.454 37.3707 153.673 37.9253 153.822 38.576C153.982 39.2267 154.062 39.9573 154.062 40.768C154.062 41.6 153.988 42.352 153.838 43.024C153.7 43.6853 153.486 44.2507 153.198 44.72C152.921 45.1893 152.574 45.552 152.158 45.808C151.753 46.0533 151.289 46.176 150.766 46.176ZM150.75 44.992C151.326 44.992 151.78 44.6347 152.11 43.92C152.452 43.2053 152.622 42.2027 152.622 40.912C152.622 39.5787 152.457 38.544 152.126 37.808C151.796 37.0613 151.337 36.688 150.75 36.688C150.174 36.688 149.716 37.056 149.374 37.792C149.044 38.5173 148.878 39.5307 148.878 40.832C148.878 42.1547 149.044 43.1787 149.374 43.904C149.716 44.6293 150.174 44.992 150.75 44.992ZM158.068 44.864C158.42 44.9067 158.692 44.8907 158.884 44.816C159.076 44.7307 159.22 44.5227 159.316 44.192C159.412 43.8613 159.476 43.3813 159.508 42.752C159.54 42.112 159.567 41.2587 159.588 40.192L159.636 38H164.5V46H163.172V39.168H160.852L160.82 40.48C160.788 41.7813 160.74 42.8107 160.676 43.568C160.612 44.3253 160.484 44.896 160.292 45.28C160.111 45.664 159.844 45.8933 159.492 45.968C159.14 46.0427 158.665 46.048 158.068 45.984V44.864ZM172.506 43.344C172.527 43.7813 172.469 44.176 172.33 44.528C172.202 44.88 172.005 45.1787 171.738 45.424C171.471 45.6587 171.146 45.84 170.762 45.968C170.389 46.096 169.973 46.16 169.514 46.16C168.938 46.16 168.437 46.0533 168.01 45.84C167.594 45.6267 167.247 45.3333 166.97 44.96C166.703 44.5867 166.506 44.1493 166.378 43.648C166.25 43.136 166.186 42.5867 166.186 42C166.186 41.424 166.255 40.8853 166.394 40.384C166.533 39.872 166.741 39.4293 167.018 39.056C167.295 38.6827 167.642 38.3893 168.058 38.176C168.485 37.952 168.981 37.84 169.546 37.84C170.058 37.84 170.501 37.9307 170.874 38.112C171.247 38.2933 171.557 38.5387 171.802 38.848C172.047 39.1467 172.229 39.504 172.346 39.92C172.463 40.3253 172.522 40.7573 172.522 41.216C172.522 41.3547 172.517 41.5093 172.506 41.68C172.495 41.84 172.479 41.9947 172.458 42.144H167.578C167.599 43.1787 167.797 43.9307 168.17 44.4C168.554 44.8587 169.029 45.088 169.594 45.088C169.797 45.088 169.999 45.056 170.202 44.992C170.415 44.928 170.602 44.832 170.762 44.704C170.922 44.5653 171.045 44.384 171.13 44.16C171.215 43.936 171.247 43.664 171.226 43.344H172.506ZM169.482 38.928C168.906 38.928 168.458 39.1253 168.138 39.52C167.829 39.9147 167.647 40.464 167.594 41.168H171.178V41.072C171.178 40.3573 171.029 39.824 170.73 39.472C170.431 39.1093 170.015 38.928 169.482 38.928ZM175.778 46V39.168H173.394V38H179.522V39.168H177.138V46H175.778Z" fill="white" data-color-group="0"/><path d="M1.05552 38.0558H7.19052L4.12302 41.1233L1.05552 44.1908V38.0558Z" fill="white" data-color-group="0"/><path d="M1.05552 38.0558H7.19052L4.12302 41.1233L1.05552 44.1908V38.0558Z" fill="white" data-color-group="0"/><path d="M21.688 76.752C21.688 76.752 21.7253 76.656 21.8 76.464C21.8853 76.272 21.992 76.0267 22.12 75.728C22.248 75.4187 22.3973 75.072 22.568 74.688C22.7493 74.2933 22.9413 73.904 23.144 73.52L26.232 67.632H27.96V78H26.568V72.192C26.568 71.6587 26.5787 71.1253 26.6 70.592C26.6213 70.0587 26.6907 69.4987 26.808 68.912L26.648 68.88C26.5733 69.1253 26.4987 69.3547 26.424 69.568C26.3493 69.7813 26.264 70 26.168 70.224C26.072 70.4373 25.96 70.672 25.832 70.928C25.7147 71.1733 25.576 71.4507 25.416 71.76L22.136 78H20.392V67.632H21.784V73.6C21.784 74.1227 21.768 74.6347 21.736 75.136C21.7147 75.6267 21.656 76.1547 21.56 76.72L21.688 76.752ZM30.4314 78V70H31.7914V73.328H35.1514V70H36.5114V78H35.1514V74.496H31.7914V78H30.4314ZM45.1941 76.832V79.984H44.0261V78H38.8261V79.984H37.6581V76.832H37.8021C38.1861 76.832 38.4741 76.6827 38.6661 76.384C38.8688 76.0853 39.0288 75.6427 39.1461 75.056C39.1781 74.896 39.2048 74.64 39.2261 74.288C39.2581 73.9253 39.2795 73.5147 39.2901 73.056C39.3115 72.5973 39.3275 72.1013 39.3381 71.568C39.3595 71.0347 39.3755 70.512 39.3861 70H44.2661V76.832H45.1941ZM42.9381 76.832V71.168H40.5861C40.5648 71.5627 40.5488 71.9467 40.5381 72.32C40.5275 72.6933 40.5115 73.04 40.4901 73.36C40.4795 73.6693 40.4635 73.9467 40.4421 74.192C40.4315 74.4373 40.4208 74.624 40.4101 74.752C40.3568 75.2747 40.2395 75.6907 40.0581 76C39.8768 76.2987 39.6315 76.5387 39.3221 76.72V76.832H42.9381ZM46.5876 78V70H47.9156V73.248C47.9156 73.536 47.9103 73.8453 47.8996 74.176C47.889 74.5067 47.873 74.8373 47.8516 75.168C47.8303 75.488 47.7983 75.792 47.7556 76.08C47.7236 76.368 47.681 76.6027 47.6276 76.784L47.7876 76.832C47.8623 76.6613 47.937 76.48 48.0116 76.288C48.0863 76.096 48.177 75.8773 48.2836 75.632C48.3903 75.3867 48.513 75.1093 48.6516 74.8C48.7903 74.4907 48.9663 74.1333 49.1796 73.728L51.1156 70H52.6836V78H51.3556V74.752C51.3556 74.464 51.361 74.1547 51.3716 73.824C51.3823 73.4933 51.3983 73.168 51.4196 72.848C51.441 72.5173 51.4676 72.208 51.4996 71.92C51.5423 71.632 51.5903 71.3973 51.6436 71.216L51.4836 71.168C51.409 71.3387 51.3343 71.52 51.2596 71.712C51.185 71.904 51.0943 72.1227 50.9876 72.368C50.881 72.6133 50.753 72.8907 50.6036 73.2C50.465 73.5093 50.2943 73.8667 50.0916 74.272L48.1556 78H46.5876ZM54.822 70H58.278C58.5767 70 58.8647 70.0373 59.142 70.112C59.43 70.176 59.6807 70.288 59.894 70.448C60.118 70.608 60.294 70.816 60.422 71.072C60.55 71.3173 60.614 71.6213 60.614 71.984C60.614 72.1653 60.582 72.352 60.518 72.544C60.454 72.7253 60.3527 72.9013 60.214 73.072C60.086 73.2427 59.9153 73.392 59.702 73.52C59.4993 73.648 59.254 73.744 58.966 73.808V73.92C59.3287 73.9413 59.6327 74.016 59.878 74.144C60.134 74.2613 60.3367 74.4107 60.486 74.592C60.6353 74.7627 60.742 74.9547 60.806 75.168C60.8807 75.3707 60.918 75.568 60.918 75.76C60.918 76.2507 60.79 76.6773 60.534 77.04C60.278 77.4027 59.894 77.664 59.382 77.824C59.1687 77.8987 58.9447 77.9467 58.71 77.968C58.4753 77.9893 58.214 78 57.926 78H54.822V70ZM58.038 76.928C58.486 76.928 58.854 76.832 59.142 76.64C59.43 76.448 59.574 76.128 59.574 75.68C59.574 75.456 59.5313 75.2693 59.446 75.12C59.3607 74.9707 59.2487 74.848 59.11 74.752C58.9713 74.656 58.8113 74.5867 58.63 74.544C58.4487 74.5013 58.2673 74.48 58.086 74.48H56.15V76.928H58.038ZM57.798 73.408C58.1927 73.408 58.5393 73.3067 58.838 73.104C59.1367 72.9013 59.286 72.592 59.286 72.176C59.286 71.7707 59.1527 71.488 58.886 71.328C58.63 71.1573 58.3313 71.072 57.99 71.072H56.15V73.408H57.798ZM62.6658 78V70H63.9938V73.248C63.9938 73.536 63.9884 73.8453 63.9778 74.176C63.9671 74.5067 63.9511 74.8373 63.9298 75.168C63.9084 75.488 63.8764 75.792 63.8338 76.08C63.8018 76.368 63.7591 76.6027 63.7057 76.784L63.8658 76.832C63.9404 76.6613 64.0151 76.48 64.0898 76.288C64.1644 76.096 64.2551 75.8773 64.3618 75.632C64.4684 75.3867 64.5911 75.1093 64.7298 74.8C64.8684 74.4907 65.0444 74.1333 65.2578 73.728L67.1938 70H68.7618V78H67.4338V74.752C67.4338 74.464 67.4391 74.1547 67.4498 73.824C67.4604 73.4933 67.4764 73.168 67.4978 72.848C67.5191 72.5173 67.5458 72.208 67.5778 71.92C67.6204 71.632 67.6684 71.3973 67.7218 71.216L67.5618 71.168C67.4871 71.3387 67.4124 71.52 67.3378 71.712C67.2631 71.904 67.1724 72.1227 67.0658 72.368C66.9591 72.6133 66.8311 72.8907 66.6818 73.2C66.5431 73.5093 66.3724 73.8667 66.1698 74.272L64.2338 78H62.6658ZM77.4441 76.832V79.984H76.2761V78H71.0761V79.984H69.9081V76.832H70.0521C70.4361 76.832 70.7241 76.6827 70.9161 76.384C71.1188 76.0853 71.2788 75.6427 71.3961 75.056C71.4281 74.896 71.4548 74.64 71.4761 74.288C71.5081 73.9253 71.5295 73.5147 71.5401 73.056C71.5615 72.5973 71.5775 72.1013 71.5881 71.568C71.6095 71.0347 71.6255 70.512 71.6361 70H76.5161V76.832H77.4441ZM75.1881 76.832V71.168H72.8361C72.8148 71.5627 72.7988 71.9467 72.7881 72.32C72.7775 72.6933 72.7615 73.04 72.7401 73.36C72.7295 73.6693 72.7135 73.9467 72.6921 74.192C72.6815 74.4373 72.6708 74.624 72.6601 74.752C72.6068 75.2747 72.4895 75.6907 72.3081 76C72.1268 76.2987 71.8815 76.5387 71.5721 76.72V76.832H75.1881ZM81.3816 76.8C81.4243 76.5653 81.467 76.336 81.5096 76.112C81.563 75.888 81.6216 75.6533 81.6856 75.408C81.7603 75.152 81.8403 74.88 81.9256 74.592C82.011 74.2933 82.107 73.952 82.2136 73.568L83.2376 70H84.4856L81.1096 80.848H79.7656L80.5496 78.432L77.8936 70H79.3336L80.3576 73.568C80.4963 74.0693 80.6136 74.4907 80.7096 74.832C80.8056 75.1733 80.8856 75.4613 80.9496 75.696C81.0136 75.9307 81.0616 76.1333 81.0936 76.304C81.1256 76.4747 81.1576 76.64 81.1896 76.8H81.3816ZM85.4611 72.368C85.3651 71.6107 85.5731 71.0027 86.0851 70.544C86.5971 70.0747 87.3385 69.84 88.3091 69.84C88.8105 69.84 89.2318 69.904 89.5731 70.032C89.9145 70.16 90.1918 70.352 90.4051 70.608C90.6185 70.8533 90.7678 71.1573 90.8531 71.52C90.9491 71.872 90.9971 72.272 90.9971 72.72V78H89.6371V77.872C89.6371 77.7653 89.6638 77.568 89.7171 77.28C89.7811 76.9813 89.8398 76.6933 89.8931 76.416H89.7491C89.6638 76.6613 89.5571 76.8907 89.4291 77.104C89.3118 77.3173 89.1571 77.504 88.9651 77.664C88.7838 77.8133 88.5651 77.9307 88.3091 78.016C88.0531 78.112 87.7545 78.16 87.4131 78.16C86.9971 78.16 86.6398 78.096 86.3411 77.968C86.0531 77.84 85.8131 77.6693 85.6211 77.456C85.4291 77.2427 85.2851 77.0027 85.1891 76.736C85.1038 76.4587 85.0611 76.176 85.0611 75.888C85.0611 75.2267 85.2051 74.7093 85.4931 74.336C85.7918 73.952 86.1651 73.6587 86.6131 73.456C87.0718 73.2533 87.5678 73.12 88.1011 73.056C88.6451 72.992 89.1678 72.9493 89.6691 72.928V72.624C89.6691 71.472 89.1678 70.896 88.1651 70.896C87.6425 70.896 87.2531 71.0293 86.9971 71.296C86.7518 71.5627 86.6718 71.92 86.7571 72.368H85.4611ZM87.9091 77.136C88.2398 77.136 88.5171 77.0667 88.7411 76.928C88.9651 76.7787 89.1465 76.5867 89.2851 76.352C89.4238 76.1067 89.5198 75.8347 89.5731 75.536C89.6371 75.2267 89.6691 74.9067 89.6691 74.576V73.776C89.0291 73.7973 88.4958 73.8613 88.0691 73.968C87.6531 74.0747 87.3171 74.2133 87.0611 74.384C86.8158 74.544 86.6398 74.736 86.5331 74.96C86.4265 75.184 86.3731 75.424 86.3731 75.68C86.3731 76.1173 86.5171 76.4693 86.8051 76.736C87.0931 77.0027 87.4611 77.136 87.9091 77.136ZM92.3025 76.864C92.6545 76.9067 92.9265 76.8907 93.1185 76.816C93.3105 76.7307 93.4545 76.5227 93.5505 76.192C93.6465 75.8613 93.7105 75.3813 93.7425 74.752C93.7745 74.112 93.8012 73.2587 93.8225 72.192L93.8705 70H98.7345V78H97.4065V71.168H95.0865L95.0545 72.48C95.0225 73.7813 94.9745 74.8107 94.9105 75.568C94.8465 76.3253 94.7185 76.896 94.5265 77.28C94.3452 77.664 94.0785 77.8933 93.7265 77.968C93.3745 78.0427 92.8998 78.048 92.3025 77.984V76.864ZM102.213 72.848H103.429C103.973 72.848 104.447 72.9173 104.853 73.056C105.258 73.184 105.594 73.3653 105.861 73.6C106.127 73.824 106.325 74.0907 106.453 74.4C106.581 74.7093 106.645 75.0453 106.645 75.408C106.645 75.7707 106.575 76.112 106.437 76.432C106.309 76.7413 106.111 77.0133 105.845 77.248C105.578 77.4827 105.242 77.6693 104.837 77.808C104.431 77.936 103.957 78 103.413 78H100.885V70H102.213V72.848ZM103.413 76.832C104.042 76.832 104.506 76.7253 104.805 76.512C105.103 76.288 105.253 75.9253 105.253 75.424C105.253 74.9227 105.103 74.5653 104.805 74.352C104.506 74.128 104.047 74.016 103.429 74.016H102.213V76.832H103.413ZM108.26 78V70H109.62V73.328H112.98V70H114.34V78H112.98V74.496H109.62V78H108.26ZM117.806 72.848H119.022C119.566 72.848 120.041 72.9173 120.446 73.056C120.852 73.184 121.188 73.3653 121.454 73.6C121.721 73.824 121.918 74.0907 122.046 74.4C122.174 74.7093 122.238 75.0453 122.238 75.408C122.238 75.7707 122.169 76.112 122.03 76.432C121.902 76.7413 121.705 77.0133 121.438 77.248C121.172 77.4827 120.836 77.6693 120.43 77.808C120.025 77.936 119.55 78 119.006 78H116.478V70H117.806V72.848ZM123.342 78V70H124.67V78H123.342ZM119.006 76.832C119.636 76.832 120.1 76.7253 120.398 76.512C120.697 76.288 120.846 75.9253 120.846 75.424C120.846 74.9227 120.697 74.5653 120.398 74.352C120.1 74.128 119.641 74.016 119.022 74.016H117.806V76.832H119.006ZM132.678 75.344C132.699 75.7813 132.641 76.176 132.502 76.528C132.374 76.88 132.177 77.1787 131.91 77.424C131.643 77.6587 131.318 77.84 130.934 77.968C130.561 78.096 130.145 78.16 129.686 78.16C129.11 78.16 128.609 78.0533 128.182 77.84C127.766 77.6267 127.419 77.3333 127.142 76.96C126.875 76.5867 126.678 76.1493 126.55 75.648C126.422 75.136 126.358 74.5867 126.358 74C126.358 73.424 126.427 72.8853 126.566 72.384C126.705 71.872 126.913 71.4293 127.19 71.056C127.467 70.6827 127.814 70.3893 128.23 70.176C128.657 69.952 129.153 69.84 129.718 69.84C130.23 69.84 130.673 69.9307 131.046 70.112C131.419 70.2933 131.729 70.5387 131.974 70.848C132.219 71.1467 132.401 71.504 132.518 71.92C132.635 72.3253 132.694 72.7573 132.694 73.216C132.694 73.3547 132.689 73.5093 132.678 73.68C132.667 73.84 132.651 73.9947 132.63 74.144H127.75C127.771 75.1787 127.969 75.9307 128.342 76.4C128.726 76.8587 129.201 77.088 129.766 77.088C129.969 77.088 130.171 77.056 130.374 76.992C130.587 76.928 130.774 76.832 130.934 76.704C131.094 76.5653 131.217 76.384 131.302 76.16C131.387 75.936 131.419 75.664 131.398 75.344H132.678ZM129.654 70.928C129.078 70.928 128.63 71.1253 128.31 71.52C128.001 71.9147 127.819 72.464 127.766 73.168H131.35V73.072C131.35 72.3573 131.201 71.824 130.902 71.472C130.603 71.1093 130.187 70.928 129.654 70.928ZM22.616 95.8C22.6587 95.5653 22.7013 95.336 22.744 95.112C22.7973 94.888 22.856 94.6533 22.92 94.408C22.9947 94.152 23.0747 93.88 23.16 93.592C23.2453 93.2933 23.3413 92.952 23.448 92.568L24.472 89H25.72L22.344 99.848H21L21.784 97.432L19.128 89H20.568L21.592 92.568C21.7307 93.0693 21.848 93.4907 21.944 93.832C22.04 94.1733 22.12 94.4613 22.184 94.696C22.248 94.9307 22.296 95.1333 22.328 95.304C22.36 95.4747 22.392 95.64 22.424 95.8H22.616ZM32.4738 93.928C32.5271 94.8987 32.3084 95.6827 31.8178 96.28C31.3378 96.8667 30.5911 97.16 29.5778 97.16C28.9804 97.16 28.4684 97.0587 28.0418 96.856C27.6151 96.6533 27.2631 96.3707 26.9858 96.008C26.7191 95.6347 26.5218 95.192 26.3938 94.68C26.2764 94.168 26.2178 93.608 26.2178 93C26.2178 92.456 26.2764 91.9333 26.3938 91.432C26.5218 90.9307 26.7191 90.488 26.9858 90.104C27.2631 89.72 27.6151 89.416 28.0418 89.192C28.4684 88.9573 28.9804 88.84 29.5778 88.84C30.0258 88.84 30.4364 88.9147 30.8098 89.064C31.1938 89.2027 31.5138 89.4053 31.7698 89.672C32.0258 89.9387 32.2124 90.2693 32.3298 90.664C32.4578 91.0587 32.5004 91.5013 32.4578 91.992H31.1138C31.1564 91.6507 31.1458 91.352 31.0818 91.096C31.0178 90.84 30.9111 90.6267 30.7618 90.456C30.6231 90.2853 30.4471 90.1573 30.2338 90.072C30.0311 89.9867 29.8124 89.944 29.5778 89.944C28.9591 89.944 28.4738 90.2107 28.1218 90.744C27.7804 91.2773 27.6098 92.0293 27.6098 93C27.6098 94.0347 27.7911 94.808 28.1538 95.32C28.5164 95.832 29.0018 96.088 29.6098 96.088C29.8231 96.088 30.0258 96.056 30.2178 95.992C30.4204 95.928 30.5911 95.816 30.7298 95.656C30.8791 95.4853 30.9911 95.2613 31.0658 94.984C31.1404 94.7067 31.1671 94.3547 31.1458 93.928H32.4738ZM33.3494 95.864C33.7014 95.9067 33.9734 95.8907 34.1654 95.816C34.3574 95.7307 34.5014 95.5227 34.5974 95.192C34.6934 94.8613 34.7574 94.3813 34.7894 93.752C34.8214 93.112 34.848 92.2587 34.8694 91.192L34.9174 89H39.7814V97H38.4534V90.168H36.1334L36.1014 91.48C36.0694 92.7813 36.0214 93.8107 35.9574 94.568C35.8934 95.3253 35.7654 95.896 35.5734 96.28C35.392 96.664 35.1254 96.8933 34.7734 96.968C34.4214 97.0427 33.9467 97.048 33.3494 96.984V95.864ZM44.8594 97.16C43.7927 97.16 42.9607 96.8027 42.3634 96.088C41.766 95.3627 41.4674 94.3333 41.4674 93C41.4674 91.6667 41.766 90.6427 42.3634 89.928C42.9607 89.2027 43.7927 88.84 44.8594 88.84C45.926 88.84 46.758 89.2027 47.3554 89.928C47.9527 90.6427 48.2514 91.6667 48.2514 93C48.2514 94.3333 47.9527 95.3627 47.3554 96.088C46.758 96.8027 45.926 97.16 44.8594 97.16ZM44.8594 96.088C45.4887 96.088 45.9794 95.832 46.3314 95.32C46.6834 94.808 46.8594 94.0347 46.8594 93C46.8594 91.976 46.6834 91.208 46.3314 90.696C45.9794 90.184 45.4887 89.928 44.8594 89.928C44.2194 89.928 43.7234 90.184 43.3714 90.696C43.03 91.208 42.8594 91.976 42.8594 93C42.8594 94.0347 43.03 94.808 43.3714 95.32C43.7234 95.832 44.2194 96.088 44.8594 96.088ZM49.9314 89H53.3874C53.686 89 53.974 89.0373 54.2514 89.112C54.5394 89.176 54.79 89.288 55.0034 89.448C55.2274 89.608 55.4034 89.816 55.5314 90.072C55.6594 90.3173 55.7234 90.6213 55.7234 90.984C55.7234 91.1653 55.6914 91.352 55.6274 91.544C55.5634 91.7253 55.462 91.9013 55.3234 92.072C55.1954 92.2427 55.0247 92.392 54.8114 92.52C54.6087 92.648 54.3634 92.744 54.0754 92.808V92.92C54.438 92.9413 54.742 93.016 54.9874 93.144C55.2434 93.2613 55.446 93.4107 55.5954 93.592C55.7447 93.7627 55.8514 93.9547 55.9154 94.168C55.99 94.3707 56.0274 94.568 56.0274 94.76C56.0274 95.2507 55.8994 95.6773 55.6434 96.04C55.3874 96.4027 55.0034 96.664 54.4914 96.824C54.278 96.8987 54.054 96.9467 53.8194 96.968C53.5847 96.9893 53.3234 97 53.0354 97H49.9314V89ZM53.1474 95.928C53.5954 95.928 53.9634 95.832 54.2514 95.64C54.5394 95.448 54.6834 95.128 54.6834 94.68C54.6834 94.456 54.6407 94.2693 54.5554 94.12C54.47 93.9707 54.358 93.848 54.2194 93.752C54.0807 93.656 53.9207 93.5867 53.7394 93.544C53.558 93.5013 53.3767 93.48 53.1954 93.48H51.2594V95.928H53.1474ZM52.9074 92.408C53.302 92.408 53.6487 92.3067 53.9474 92.104C54.246 91.9013 54.3954 91.592 54.3954 91.176C54.3954 90.7707 54.262 90.488 53.9954 90.328C53.7394 90.1573 53.4407 90.072 53.0994 90.072H51.2594V92.408H52.9074ZM57.7751 97V89H59.1031V92.248C59.1031 92.536 59.0978 92.8453 59.0871 93.176C59.0765 93.5067 59.0605 93.8373 59.0391 94.168C59.0178 94.488 58.9858 94.792 58.9431 95.08C58.9111 95.368 58.8685 95.6027 58.8151 95.784L58.9751 95.832C59.0498 95.6613 59.1245 95.48 59.1991 95.288C59.2738 95.096 59.3645 94.8773 59.4711 94.632C59.5778 94.3867 59.7005 94.1093 59.8391 93.8C59.9778 93.4907 60.1538 93.1333 60.3671 92.728L62.3031 89H63.8711V97H62.5431V93.752C62.5431 93.464 62.5485 93.1547 62.5591 92.824C62.5698 92.4933 62.5858 92.168 62.6071 91.848C62.6285 91.5173 62.6551 91.208 62.6871 90.92C62.7298 90.632 62.7778 90.3973 62.8311 90.216L62.6711 90.168C62.5965 90.3387 62.5218 90.52 62.4471 90.712C62.3725 90.904 62.2818 91.1227 62.1751 91.368C62.0685 91.6133 61.9405 91.8907 61.7911 92.2C61.6525 92.5093 61.4818 92.8667 61.2791 93.272L59.3431 97H57.7751ZM66.9535 91.496C66.9535 91.7307 66.9962 91.9387 67.0815 92.12C67.1775 92.2907 67.3002 92.4347 67.4495 92.552C67.5988 92.6587 67.7695 92.7387 67.9615 92.792C68.1535 92.8453 68.3508 92.872 68.5535 92.872H70.0095V90.168H68.4415C68.0468 90.168 67.7002 90.2693 67.4015 90.472C67.1028 90.664 66.9535 91.0053 66.9535 91.496ZM65.1295 97C65.2042 96.9253 65.2842 96.8027 65.3695 96.632C65.4655 96.4613 65.5562 96.2693 65.6415 96.056C65.7375 95.832 65.8228 95.608 65.8975 95.384C65.9828 95.16 66.0575 94.9573 66.1215 94.776C66.2602 94.3813 66.4575 94.0773 66.7135 93.864C66.9802 93.64 67.3375 93.5173 67.7855 93.496V93.336C67.3908 93.3147 67.0548 93.2453 66.7775 93.128C66.5002 93 66.2762 92.8453 66.1055 92.664C65.9348 92.472 65.8068 92.264 65.7215 92.04C65.6468 91.8053 65.6095 91.5707 65.6095 91.336C65.6095 90.92 65.6842 90.568 65.8335 90.28C65.9935 89.9813 66.2015 89.736 66.4575 89.544C66.7242 89.352 67.0282 89.2133 67.3695 89.128C67.7108 89.0427 68.0682 89 68.4415 89H71.3375V97H70.0095V93.976H68.7935C68.5908 93.976 68.4148 93.9867 68.2655 94.008C68.1162 94.0293 67.9882 94.072 67.8815 94.136C67.7748 94.2 67.6842 94.296 67.6095 94.424C67.5348 94.552 67.4655 94.7227 67.4015 94.936C67.3162 95.224 67.2095 95.56 67.0815 95.944C66.9642 96.3173 66.8308 96.6693 66.6815 97H65.1295Z" fill="white" data-color-group="0"/><path d="M1.05552 70.0558H7.19052L4.12302 73.1233L1.05552 76.1908V70.0558Z" fill="white" data-color-group="0"/><path d="M1.05552 70.0558H7.19052L4.12302 73.1233L1.05552 76.1908V70.0558Z" fill="white" data-color-group="0"/></svg>