<?xml version="1.0" encoding="utf-8"?>
<!-- Generator: Adobe Illustrator 19.1.1, SVG Export Plug-In . SVG Version: 6.00 Build 0)  -->
<svg version="1.1" id="Layer_1" xmlns="http://www.w3.org/2000/svg" xmlns:xlink="http://www.w3.org/1999/xlink" x="0px" y="0px"
	 viewBox="0 0 100 100" style="enable-background:new 0 0 100 100;" xml:space="preserve">
<style type="text/css">
	.st0{fill:#FFFFFF;}
	.st1{fill:#87CCEE;}
	.st2{fill:#FDC168;}
	.st3{fill:#463014;}
	.st4{fill:#D1D3D4;}
</style>
<g id="Layer_1_1_">
	<g>
		<path class="st0" d="M17.7,24.3c0,0,1.7,6.6,2,8.8c0.2,2.2-4.4,7.1-4.4,9.5c0,2.4,1,6.9,6.4,9.1c5.4,2.2,6.1,7.8,6.1,11.3
			c0,3.4-2,10-2,10s-1.2,16.4,5.4,19.3c6.6,2.9,5.1,2.9,6.6,2.9c1.5,0,12.2,4.4,18.6,2.7c6.4-1.7,8.1-3.7,8.1-3.7s6.4,0.5,8.3-5.1
			c2-5.6,3.2-17.4,2.4-22.8c-0.7-5.4-1.7-12.5,2.7-14.9c4.4-2.4,9.1-5.4,8.3-7.8c-0.7-2.4-4.6-5.9-4.6-5.9s-1-6.1-0.2-7.6
			c0.7-1.5,5.1-5.1,2.7-7.8c-2.4-2.7-6.9-2.7-6.9-2.7l-5.6,0.5c0,0-9.5-8.6-22-8.1c-12.5,0.5-20.3,8.1-20.3,8.1s-4.2-1.5-7.8,0
			C17.7,21.6,17,20.1,17.7,24.3z"/>
		<path class="st0" d="M40.1,60.7c0,0-4.8,7.4-8.4,12.7c-0.5,0.8,3.6,0.9,3.6,0.9L40.1,60.7z"/>
		<path class="st0" d="M42.4,45.4c0,0-1.5,3.6-2.3,5.6c-0.9,2.1-4.2,3.1-4.2,3.1s1.7-1.8,1.7-6.4c0-1.9,2.5-2.7,2.5-2.7L42.4,45.4z"
			/>
		<path class="st0" d="M40.9,47.4c0,0-3,3.6-8.5,1.6c-5.6-2-6.1-9.1-6.1-11.1c0-2,10.5,2,12,2.8S42.3,45,40.9,47.4z"/>
		<path class="st0" d="M19.9,9.4c0,0,5.1-1,8.5,1.7c3.4,2.7,4.4,4.8,4.4,4.8l-5.8,4.6c0,0-2.8-1.3-3.6-5
			C22.6,11.8,23.2,10.1,19.9,9.4z"/>
		<path class="st0" d="M39.4,37.1c-2.2-3.1-5.8-4.5-8.8-4.7c-5-0.4-7.3,1.4-7.3,1.4s8.1,0.3,10.5,3.4c4.4,5.7,10.7,6.2,11.7,4.9
			c-1.2,0.1-2.5-0.5-3.8-1.8C40.8,39.5,40.1,38.1,39.4,37.1z"/>
		<path class="st0" d="M37.5,14.9c-3.8,1.9-8.9,4.6-8.9,4.6l2,1c-0.2,0.3-0.3,0.5-0.3,0.5l2.1,0.9c0,0,5.1,3.7,8.2,6.1
			c-1-3.2-4.1-8.2-4.1-8.2S35.6,17.5,37.5,14.9z"/>
		<path class="st0" d="M50,93.1c-11.6,0-15.5-5.9-15.5-5.9l1.8,4.4c0.7,1.9,8,7.9,13.7,7.9"/>
		<path class="st0" d="M35.8,83.2c0,0,1.1,6.5,5.3,6.5c3.6,0,4.7-5.5,4.7-6.6L35.8,83.2z"/>
		<path class="st0" d="M18.3,44.8c0,0,2.4-0.9,3.1-6.1c0.7-5.3-0.9-9.8-0.9-9.8s0.1,7.3-0.7,8.7c-0.9,1.4-1.6,1.9-2.6,3.7
			C16.3,43.1,17.8,44.3,18.3,44.8z"/>
		<path class="st1" d="M31.2,20.6"/>
		<path class="st2" d="M21.2,10.6l-0.5-0.3C19.3,10.4,21.2,10.6,21.2,10.6z"/>
		<path class="st0" d="M39.5,13.4c0,0-2.3-0.4-3.4-2.1c-1.1-1.7-4.4-5.1-9.5-5.2c-5.1,0-10.2,1.4-10.2,1.4l4.4,2.8
			c0.5,0,1.3,0,2.7,0c5.6,0.2,6.4,5.7,6.4,5.7l19.7-2.7"/>
		<path class="st3" d="M40.8,77"/>
		<path class="st3" d="M39.8,12.1c-0.2-5.2,4-9.4,5.5-9.5c0.1,0.9-0.1,4.3,1.4,5.4C47.1,5.1,48.6,2,54.3,0c-1.2,3.3-0.2,6,0.3,7.3
			c3.9-3.6,6.6-3,6.6-3s-2.7,4.7-1.7,7.8C51.7,11.5,39.8,12.9,39.8,12.1z"/>
		<path class="st3" d="M23.1,20c-1.9-1.6-0.5-3-0.6-4.8c-0.1-0.9-0.2-1.8-0.5-2.3c-1.7-2.7-5.8-3.6-5.9-3.6L14.2,9l1.3-1.5
			c0.2-0.2,5.4-5.2,13.4-2.6c5.6,1.8,9.8,8,10,8.2l-2.8,1.3c0-0.1-3.3-5.9-8.2-7.4C24,5.8,20.4,7,18.8,7.8c1.6,0.7,3.8,1.8,5.1,3.9
			c0.6,1,0.7,2.2,0.8,3.4c0.1,1.6,0.3,3,1.4,4L23.1,20z"/>
		<path class="st3" d="M18,42.8c0,0,2.4-2.9,3.1-8.7c0.3-2.3-0.2-6.7-1-8.4c0.1,4.2-0.9,8.4-0.9,8.4S18.5,42,18,42.8z"/>
		<path class="st3" d="M30.5,17.1c0,0-0.8-3.3-2.9-5c-3-2.4-6.6-1.1-6.6-1.1l-0.5-1.6c0.2-0.1,4.3-1.4,8.1,1.3
			c3.8,2.7,4.3,5.1,4.3,5.4L30.5,17.1z"/>
		<path class="st3" d="M25.5,40.7c0,0-1.2-1.8-1-3.7c0.1-1,0.6-2,1.4-2.3c1.5-0.7,2.1,1,2.1,1S25.9,36.2,25.5,40.7z"/>
		<path class="st3" d="M40.8,77"/>
		<path class="st3" d="M39.1,43.4c0.1,0.1,0.1,0.2,0.1,0.2s-3.9,2.9-7.9,0c-2.1-1.6-1.9-5.5-1.3-7.2c1.7,0.4,3.1,1.1,4.3,1.9
			c-1.5-1.4-2.8-2.4-2.8-2.4l-1.7-0.5l-3.4-1.2c0,0.3-1.3,6,2.3,9.9c1.6,1.7,8.9,5.6,12.4-1L39.1,43.4z"/>
		<path class="st3" d="M38.8,43.9c2.2,3.3,7.7,1.4,7.6-2.1c0,0-3.7,2-6.9-1.7c-1.9-2.2-8-8.2-16.2-6.2
			C28.9,35.1,36.4,40.3,38.8,43.9z"/>
		<g>
			<path class="st3" d="M40.8,77"/>
		</g>
		<path class="st3" d="M22.4,53.2c0.5,0.3,2.4,2.2,2.4,5.1c0,1.4-0.1,8.7-0.9,13.1c1.1,0.7,1.8,0.8,2.9,1.6
			c0.5-5.1,0.9-12.5,0.7-15.5c-0.2-3.4-2-5.7-3.7-6.7c-0.5-0.3-1.1-0.6-1.6-0.9c-2.9-1.6-5.9-3.2-5.9-6c0-2.2,0.8-2.8,1.7-3.6
			l0.1-0.1c0.6-0.5,1.3-1,1.7-1.9c1.1-2.4,1.3-8.6,0-10.2c-0.6-0.8-2.3-3.4-1.8-5.2c0.2-0.7,0.6-1.2,1.3-1.5
			c0.7-0.4,1.7-0.6,2.9-0.6c2.4,0,5.1,0.7,6.4,1.2c4.9,1.6,10.8,6,12.5,7.4c0,0,0.1,0.1,0.1,0.1l1.1,0.8l-0.7-1.1
			c0-0.1-4.3-7.1-12-9.7c-1.5-0.5-4.4-1.3-7.3-1.3c-1.7,0-3.2,0.3-4.3,0.9c-1.4,0.7-2.4,1.9-2.8,3.3c-1,3.6,2.2,7.5,2.3,7.6
			c0.4,0.7,0.5,5.4-0.3,7.3c-0.1,0.3-0.4,0.5-0.8,0.9c-0.1,0.1-0.3,0.2-0.4,0.3c-1.2,0.9-3,2.3-3,5.4c0,4.3,4.4,6.7,7.9,8.5
			C21.4,52.7,21.9,52.9,22.4,53.2z"/>
		<g>
			<g>
				<path class="st3" d="M23.1,20c-1.9-1.6-0.5-3-0.6-4.8c-0.1-0.9-0.2-1.8-0.5-2.3c-1.7-2.7-5.8-3.6-5.9-3.6L14.2,9l1.3-1.5
					c0.2-0.2,5.4-5.2,13.4-2.6c5.6,1.8,9.8,8,10,8.2l-2.8,1.3c0-0.1-3.3-5.9-8.2-7.4C24,5.8,20.4,7,18.8,7.8
					c1.6,0.7,3.8,1.8,5.1,3.9c0.6,1,0.7,2.2,0.8,3.4c0.1,1.6,0.3,3,1.4,4L23.1,20z"/>
			</g>
			<g>
				<path class="st3" d="M23,20.4l-0.1-0.1c-1.4-1.2-1.1-2.3-0.9-3.4c0.1-0.5,0.2-1,0.2-1.6c-0.1-0.9-0.1-1.8-0.4-2.2
					c-1.6-2.6-5.6-3.4-5.7-3.4l-2.4-0.5l1.6-1.9c0,0,3.4-3.4,9-3.4c1.5,0,3.1,0.3,4.7,0.8C34.9,6.6,39.1,13,39.1,13l0.2,0.3
					l-3.3,1.6l-0.1-0.2c-0.4-0.6-3.5-5.8-8-7.3c-1.1-0.4-2.3-0.5-3.5-0.5c-2.2,0-3.9,0.6-4.8,1c1.6,0.7,3.4,1.9,4.6,3.7
					c0.6,1,0.8,2.3,0.9,3.5c0.1,1.5,0.2,2.9,1.3,3.8l0.4,0.3L23,20.4z"/>
			</g>
		</g>
		<g>
			<g>
				<path class="st3" d="M30.5,17.1c0,0-0.8-3.3-2.9-5c-3-2.4-6.6-1.1-6.6-1.1l-0.5-1.6c0.2-0.1,4.3-1.4,8.1,1.3
					c3.8,2.7,4.3,5.1,4.3,5.4L30.5,17.1z"/>
			</g>
			<g>
				<path class="st3" d="M30.3,17.5l-0.1-0.3c0,0-0.8-3.2-2.8-4.8c-1.1-0.9-2.5-1.4-4.1-1.4c-1.2,0-2.1,0.3-2.2,0.3l-0.3,0.1
					l-0.7-2.2l0.3-0.1c0.1,0,1.2-0.4,2.8-0.4c2.1,0,4,0.6,5.6,1.7c3.9,2.8,4.4,5.3,4.5,5.6l0,0.2L30.3,17.5z M23.4,10.3
					c1.7,0,3.2,0.5,4.5,1.5c1.8,1.4,2.6,3.9,2.9,4.8l1.9-0.8c-0.2-0.7-0.9-2.7-4.2-5c-1.5-1.1-3.3-1.6-5.3-1.6
					c-1.1,0-1.9,0.2-2.3,0.3l0.3,1.1C21.6,10.5,22.4,10.3,23.4,10.3z"/>
			</g>
		</g>
		<path class="st3" d="M40.9,88.2L40.9,88.2c-0.8,0-1.7-0.3-2.3-0.8c-0.5-0.4-2-1.8-2.7-3.5c-0.3-0.6-0.2-1.2,0.2-1.5
			c0.3-0.3,0.8-0.6,1.8-0.6l0.8,0c0.9,0,2.4,0,3.7,0h1.3c0.8,0,1.4,0.2,1.7,0.5c0.4,0.4,0.3,1,0.2,1.3c-0.2,0.5-1.1,2.2-2.5,3.8
			C42.6,87.9,41.8,88.2,40.9,88.2z"/>
		<path class="st3" d="M41.8,44l-3-0.2c0,0,0.8,1.4,1.3,3.1c0.6,2-0.5,4.9-0.5,4.9S43.6,47.3,41.8,44z"/>
		<g>
			<path class="st3" d="M38,96.2C27.2,95.4,23.4,85.2,23.4,83l2.8,0l-1.4,0h1.4c0,0.9,2.9,9.7,12,10.4L38,96.2z"/>
		</g>
		<path class="st0" d="M35,77.9c-0.2-1-0.2-1.9,0-2.8c-0.8-0.6-2.3-0.8-3.4-1.2c-0.9-0.6-5.5,0.6-8.9-3.5c-4.2-5.1-3.3-8.1-3.3-8.1
			c-1.1,1.2-2.1,0.7-3.8,6.3c-1.6,5.6,0.8,9.5,5.3,13.4c2.1,1.8,5.1,2.6,7.7,2.9c-0.9-0.9,1.5-1,3.1-1.6c-0.1-1.3,0.1-2.6,1.1-3.6
			c0.6-0.6,1.3-1,2.1-1.3c0-0.1,0.1-0.2,0.1-0.3C35,78.1,35,78,35,77.9z"/>
		<path class="st4" d="M31.7,83.3c-0.1-0.3-0.2-0.6-0.2-0.8c-0.1-0.3-0.4-1.2,0-0.2c-0.1-0.3-0.2-0.5-0.3-0.8
			c-7.3,0-13.7-5-12.4-15.6c-1-1.3-2.3,2.6-2.3,2.6s-3.7,10.6,5.8,14.7c3.1,1.4,5.9,2.4,6.6,2c1.4,0.3,2.6-0.7,3.1-1.3
			C31.9,83.7,31.8,83.5,31.7,83.3z"/>
		<path class="st3" d="M34.9,76.4c0-0.9,0.2-1.8,0.6-2.6c0-0.1,0.1-0.1,0.1-0.2c-2.8,0-6.1-0.3-8.8-1.4c-3-1.2-6.8-5.4-7.5-10.2
			c0,0-5.7,4.4-4,13.8c1.6,8.9,9,11.7,17.4,12.2c0-0.1-1-2-0.6-3.2c-4.8,0.3-10.2-1.5-12.8-5.8c-2.4-3.9-1.7-10.6-0.7-11.5
			C20.9,75,29.5,76.5,34.9,76.4z"/>
		<path class="st3" d="M50,88"/>
		<path class="st3" d="M35.7,71c-1.5,4.5-4.6,8.1-4.6,8.1s4.3-0.2,4.5-1c0.2-0.6,3.9-9.2,5.3-19.3C39.6,61,35.9,70.6,35.7,71z"/>
		<path class="st0" d="M59.9,60.7c0,0,4.8,7.4,8.4,12.7c0.5,0.8-3.6,0.9-3.6,0.9L59.9,60.7z"/>
		<path class="st0" d="M57.6,45.4c0,0,1.5,3.6,2.3,5.6c0.9,2.1,4.2,3.1,4.2,3.1s-1.7-1.8-1.7-6.4c0-1.9-2.5-2.7-2.5-2.7L57.6,45.4z"
			/>
		<path class="st0" d="M59.1,47.4c0,0,3,3.6,8.5,1.6s6.1-9.1,6.1-11.1c0-2-10.5,2-12,2.8C60.4,41.6,57.7,45,59.1,47.4z"/>
		<path class="st0" d="M80.1,9.4c0,0-5.1-1-8.5,1.7c-3.4,2.7-4.4,4.8-4.4,4.8l5.8,4.6c0,0,2.8-1.3,3.6-5
			C77.4,11.8,76.8,10.1,80.1,9.4z"/>
		<path class="st0" d="M60.6,37.1c2.2-3.1,5.8-4.5,8.8-4.7c5-0.4,7.3,1.4,7.3,1.4s-8.1,0.3-10.5,3.4c-4.4,5.7-10.7,6.2-11.7,4.9
			c1.2,0.1,2.5-0.5,3.8-1.8C59.2,39.5,59.9,38.1,60.6,37.1z"/>
		<path class="st0" d="M62.5,14.9c3.8,1.9,8.9,4.6,8.9,4.6l-2,1c0.2,0.3,0.3,0.5,0.3,0.5L67.6,22c0,0-5.1,3.7-8.2,6.1
			c1-3.2,4.1-8.2,4.1-8.2S64.4,17.5,62.5,14.9z"/>
		<path class="st0" d="M50,93.1c11.6,0,15.5-5.9,15.5-5.9l-1.8,4.4c-0.7,1.9-8,7.9-13.7,7.9"/>
		<path class="st0" d="M64.2,83.2c0,0-1.1,6.5-5.3,6.5c-3.6,0-4.7-5.5-4.7-6.6L64.2,83.2z"/>
		<path class="st0" d="M81.7,44.8c0,0-2.4-0.9-3.1-6.1c-0.7-5.3,0.9-9.8,0.9-9.8s-0.1,7.3,0.7,8.7c0.9,1.4,1.6,1.9,2.6,3.7
			C83.7,43.1,82.2,44.3,81.7,44.8z"/>
		<path class="st1" d="M68.8,20.6"/>
		<path class="st2" d="M78.8,10.6l0.5-0.3C80.7,10.4,78.8,10.6,78.8,10.6z"/>
		<path class="st0" d="M60.5,13.4c0,0,2.3-0.4,3.4-2.1c1.1-1.7,4.4-5.1,9.5-5.2c5.1,0,10.2,1.4,10.2,1.4l-4.4,2.8
			c-0.5,0-1.3,0-2.7,0C71,10.5,70.2,16,70.2,16l-19.7-2.7"/>
		<path class="st3" d="M59.2,77"/>
		<path class="st3" d="M76.9,20c1.9-1.6,0.5-3,0.6-4.8c0.1-0.9,0.2-1.8,0.5-2.3c1.7-2.7,5.8-3.6,5.9-3.6L85.8,9l-1.3-1.5
			c-0.2-0.2-5.4-5.2-13.4-2.6c-5.6,1.8-9.8,8-10,8.2l2.8,1.3c0-0.1,3.3-5.9,8.2-7.4C76,5.8,79.6,7,81.2,7.8
			c-1.6,0.7-3.8,1.8-5.1,3.9c-0.6,1-0.7,2.2-0.8,3.4c-0.1,1.6-0.3,3-1.4,4L76.9,20z"/>
		<path class="st3" d="M82,42.8c0,0-2.4-2.9-3.1-8.7c-0.3-2.3,0.2-6.7,1-8.4c-0.1,4.2,0.9,8.4,0.9,8.4S81.5,42,82,42.8z"/>
		<path class="st3" d="M69.5,17.1c0,0,0.8-3.3,2.9-5c3-2.4,6.6-1.1,6.6-1.1l0.5-1.6c-0.2-0.1-4.3-1.4-8.1,1.3
			c-3.8,2.7-4.3,5.1-4.3,5.4L69.5,17.1z"/>
		<path class="st3" d="M74.5,40.7c0,0,1.2-1.8,1-3.7c-0.1-1-0.6-2-1.4-2.3c-1.5-0.7-2.1,1-2.1,1S74.1,36.2,74.5,40.7z"/>
		<path class="st3" d="M59.2,77"/>
		<path class="st3" d="M60.9,43.4c-0.1,0.1-0.1,0.2-0.1,0.2s3.9,2.9,7.9,0c2.1-1.6,1.9-5.5,1.3-7.2c-1.7,0.4-3.1,1.1-4.3,1.9
			c1.5-1.4,2.8-2.4,2.8-2.4l1.7-0.5l3.4-1.1c0,0.3,1.3,6-2.3,9.9c-1.6,1.7-8.9,5.6-12.4-1L60.9,43.4z"/>
		<path class="st3" d="M61.2,43.9c-2.2,3.3-7.7,1.4-7.6-2.1c0,0,3.7,2,6.9-1.7c1.9-2.2,8-8.2,16.2-6.2
			C71.1,35.1,63.6,40.3,61.2,43.9z"/>
		<g>
			<path class="st3" d="M59.2,77"/>
		</g>
		<path class="st3" d="M77.6,53.2c-0.5,0.3-2.4,2.2-2.4,5.1c0,1.4,0.1,8.7,0.9,13.1c-1.1,0.7-1.8,0.8-2.9,1.6
			c-0.5-5.1-0.9-12.5-0.7-15.5c0.2-3.4,2-5.7,3.7-6.7c0.5-0.3,1.1-0.6,1.6-0.9c2.9-1.6,5.9-3.2,5.9-6c0-2.2-0.8-2.8-1.7-3.6
			l-0.1-0.1c-0.6-0.5-1.3-1-1.7-1.9c-1.1-2.4-1.3-8.6,0-10.2c0.6-0.8,2.3-3.4,1.8-5.2c-0.2-0.7-0.6-1.2-1.3-1.5
			C80,21,79,20.9,77.8,20.9c-2.4,0-5.1,0.7-6.4,1.2c-4.9,1.6-10.8,6-12.5,7.4c0,0-0.1,0.1-0.1,0.1l-1.1,0.8l0.7-1.1
			c0-0.1,4.3-7.1,12-9.7c1.5-0.5,4.4-1.3,7.3-1.3c1.7,0,3.2,0.3,4.3,0.9c1.4,0.7,2.4,1.9,2.8,3.3c1,3.6-2.2,7.5-2.3,7.6
			c-0.4,0.7-0.5,5.4,0.3,7.3c0.1,0.3,0.4,0.5,0.8,0.9c0.1,0.1,0.3,0.2,0.4,0.3c1.2,0.9,3,2.3,3,5.4c0,4.3-4.4,6.7-7.9,8.5
			C78.6,52.7,78.1,52.9,77.6,53.2z"/>
		<path class="st3" d="M72.3,19.5c-0.7-1.2-2.5-3.5-6.6-5.5c-4.6-2.2-9.9-3.4-15.8-3.4v0c0,0,0,0,0,0c0,0,0,0,0,0v0
			c-5.9,0-11.2,1.1-15.8,3.4c-4.1,2-5.9,4.3-6.6,5.5l-0.3,0.4l3.5,0.8l0.1-0.1l0.1-0.1c0.1-0.2,0.5-1.5,4.4-3.4
			C39.7,15,44.6,14,50,14c5.4,0,10.3,1,14.5,3.1c3.9,1.9,4.4,3.2,4.4,3.4l0.1,0.1l0.1,0.1l3.5-0.8L72.3,19.5z"/>
		<g>
			<g>
				<path class="st3" d="M76.9,20c1.9-1.6,0.5-3,0.6-4.8c0.1-0.9,0.2-1.8,0.5-2.3c1.7-2.7,5.8-3.6,5.9-3.6L85.8,9l-1.3-1.5
					c-0.2-0.2-5.4-5.2-13.4-2.6c-5.6,1.8-9.8,8-10,8.2l2.8,1.3c0-0.1,3.3-5.9,8.2-7.4C76,5.8,79.6,7,81.2,7.8
					c-1.6,0.7-3.8,1.8-5.1,3.9c-0.6,1-0.7,2.2-0.8,3.4c-0.1,1.6-0.3,3-1.4,4L76.9,20z"/>
			</g>
			<g>
				<path class="st3" d="M73.3,19.1l0.4-0.3c1.1-0.9,1.2-2.3,1.3-3.8c0.1-1.2,0.2-2.5,0.9-3.5c1.2-1.9,3.1-3.1,4.6-3.8
					c-0.9-0.4-2.7-1-4.8-1c-1.2,0-2.3,0.2-3.4,0.5c-4.5,1.4-7.7,6.7-8,7.3l-0.1,0.2l-3.3-1.6l0.2-0.3c0-0.1,4.2-6.5,10.1-8.4
					c1.6-0.5,3.2-0.8,4.7-0.8c5.7,0,9,3.4,9,3.4l1.6,1.9l-2.4,0.5c0,0-4,0.8-5.7,3.4c-0.3,0.4-0.3,1.3-0.4,2.2
					c0,0.5,0.1,1.1,0.2,1.6c0.2,1.1,0.5,2.2-0.9,3.4L77,20.4L73.3,19.1z"/>
			</g>
		</g>
		<g>
			<g>
				<path class="st3" d="M69.5,17.1c0,0,0.8-3.3,2.9-5c3-2.4,6.6-1.1,6.6-1.1l0.5-1.6c-0.2-0.1-4.3-1.4-8.1,1.3
					c-3.8,2.7-4.3,5.1-4.3,5.4L69.5,17.1z"/>
			</g>
			<g>
				<path class="st3" d="M66.7,16.3l0-0.2c0-0.3,0.5-2.8,4.5-5.6c1.6-1.1,3.6-1.7,5.6-1.7c1.6,0,2.7,0.3,2.8,0.4l0.3,0.1l-0.7,2.2
					l-0.3-0.1c-0.1,0-1-0.3-2.2-0.3c-1.6,0-3,0.5-4.1,1.4c-2,1.6-2.8,4.8-2.8,4.8l-0.1,0.3L66.7,16.3z M78.8,10.6l0.4-1.1
					c-0.4-0.1-1.3-0.3-2.3-0.3c-2,0-3.7,0.6-5.3,1.6c-3.2,2.3-4,4.3-4.2,5l1.9,0.8c0.3-0.9,1.1-3.4,2.9-4.8c1.2-1,2.8-1.5,4.5-1.5
					C77.6,10.3,78.4,10.5,78.8,10.6z"/>
			</g>
		</g>
		<path class="st3" d="M56.9,87.3c-1.5-1.6-2.3-3.3-2.5-3.8c-0.1-0.3-0.3-0.9,0.2-1.3c0.3-0.3,0.9-0.5,1.7-0.5h1.3
			c1.3,0,2.8,0,3.7,0l0.8,0c1.1,0,1.6,0.3,1.8,0.6c0.4,0.4,0.4,0.9,0.2,1.5c-0.7,1.7-2.2,3.2-2.7,3.5c-0.6,0.5-1.5,0.8-2.3,0.8l0,0
			C58.2,88.2,57.4,87.9,56.9,87.3z"/>
		<path class="st3" d="M58.2,44l3-0.2c0,0-0.8,1.4-1.3,3.1c-0.6,2,0.5,4.9,0.5,4.9S56.4,47.3,58.2,44z"/>
		<path class="st0" d="M50,33.2c-1.9,0-4.5-0.1-6.4-1.4c0,0,2.5,4.3,6.4,4.3l0-0.6l0,0.6c3.9,0,6.4-4.3,6.4-4.3
			C54.5,33.1,51.9,33.2,50,33.2z"/>
		<path class="st3" d="M55.3,33.2c-1.9,1.2-3.7,1.6-5.3,1.6c-1.7,0-3.4-0.4-5.3-1.6c0,0,2.8,3.5,5.3,3.5v0c0,0,0,0,0,0c0,0,0,0,0,0
			v0C52.5,36.6,55.3,33.2,55.3,33.2z"/>
		<g>
			<path class="st3" d="M62,96.2l-0.2-2.8c9.1-0.7,12-9.4,12-10.4h2.8C76.6,85.2,72.8,95.4,62,96.2z"/>
		</g>
		<path class="st0" d="M65,77.9c0.2-1,0.2-1.9,0-2.8c0.8-0.6,2.3-0.8,3.4-1.2c0.9-0.6,5.5,0.6,8.9-3.5c4.2-5.1,3.3-8.1,3.3-8.1
			c1.1,1.2,2.1,0.7,3.8,6.3c1.6,5.6-0.8,9.5-5.3,13.4c-2.1,1.8-5.1,2.6-7.7,2.9c0.9-0.9-1.5-1-3.1-1.6c0.1-1.3-0.1-2.6-1.1-3.6
			c-0.6-0.6-1.3-1-2.1-1.3c0-0.1-0.1-0.2-0.1-0.3C65,78.1,65,78,65,77.9z"/>
		<path class="st4" d="M68.3,83.3c0.1-0.3,0.2-0.6,0.2-0.8c0.1-0.3,0.4-1.2,0-0.2c0.1-0.3,0.2-0.5,0.3-0.8c7.3,0,13.7-5,12.4-15.6
			c1-1.3,2.3,2.6,2.3,2.6s3.7,10.6-5.8,14.7c-3.1,1.4-5.9,2.4-6.6,2c-1.4,0.3-2.6-0.7-3.1-1.3C68.1,83.7,68.2,83.5,68.3,83.3z"/>
		<path class="st3" d="M65.1,76.4c0-0.9-0.2-1.8-0.6-2.6c0-0.1-0.1-0.1-0.1-0.2c2.8,0,6.1-0.3,8.8-1.4c3-1.2,6.8-5.4,7.5-10.2
			c0,0,5.7,4.4,4,13.8c-1.6,8.9-9,11.7-17.4,12.2c0-0.1,1-2,0.6-3.2c4.8,0.3,10.2-1.5,12.8-5.8c2.4-3.9,1.7-10.6,0.7-11.5
			C79.1,75,70.5,76.5,65.1,76.4z"/>
		<g>
			<path class="st3" d="M50,88"/>
			<path class="st3" d="M68.6,78.6c-1-1.1-2.9-2.4-7.1-2.4c0,0-8.1,0-11.4,0l0,0c0,0,0,0,0,0c0,0,0,0,0,0l0,0c-3.3,0-11.4,0-11.4,0
				c-4.3,0-6.1,1.3-7.1,2.4c-1.5,1.6-1.7,3.8-0.7,6.6C33.5,92.5,37.3,100,50,100v0c0,0,0,0,0,0c0,0,0,0,0,0v0
				c12.7,0,16.5-7.5,19.2-14.8C70.3,82.4,70,80.2,68.6,78.6z M66.6,84.7c-1.3,3.7-4.8,12.6-16.6,12.6c-11.8,0-15.3-9-16.6-12.6
				c-0.7-2-0.7-3.6,0.2-4.5c0.6-0.6,1.9-1.4,4.8-1.4l3.1,0c2.3,0,5.1,0,8.5,0c3.4,0,6.2,0,8.5,0l3.1,0c3,0,4.2,0.8,4.8,1.4
				C67.2,81.1,67.3,82.6,66.6,84.7z"/>
		</g>
		<path class="st3" d="M64.3,71c1.5,4.5,4.6,8.1,4.6,8.1s-4.3-0.2-4.5-1c-0.2-0.6-3.9-9.2-5.3-19.3C60.4,61,64.1,70.6,64.3,71z"/>
	</g>
</g>
</svg>
