<?xml version="1.0" encoding="utf-8"?>
<!-- Generator: Adobe Illustrator 19.1.1, SVG Export Plug-In . SVG Version: 6.00 Build 0)  -->
<svg version="1.1" id="Layer_1" xmlns="http://www.w3.org/2000/svg" xmlns:xlink="http://www.w3.org/1999/xlink" x="0px" y="0px"
	 viewBox="0 0 100 100" style="enable-background:new 0 0 100 100;" xml:space="preserve">
<style type="text/css">
	.st0{fill:#FFFFFF;}
</style>
<path class="st0" d="M91.1,14c-0.3-1.9-1.1-3.7-2.3-5.4c-4-5.5-11.2-7.5-17.6-8.2C63.9-0.4,56.3,0,49.1,1.8c-2,0.5-3.9,1.1-5.9,1.8
	c-4.5,1.7-8.8,4.1-12.8,6.8c-3.7,2.5-7.4,5.2-10.8,8.2c-4.2,3.8-7.6,8.7-9.7,14C9,35.6,8.2,39.1,8.9,43c0.6,3.6,2.2,6.8,4,9.5
	c1.9,2.7,3.9,4.8,6,6.8c3.9,3.7,7.8,6.7,10.9,9.8c-1.1,0.5-2.3,1-3.5,1.5c-1,0.5-2,1-3.1,1.6c-1,0.7-2,1.3-2.9,2.1
	c-1.8,1.5-3.6,3.1-5.2,5c-1.6,2-3.2,4.2-3.9,7.3c-0.2,0.7-0.2,1.6-0.3,2.4c0,0.8,0,1.5,0.2,2.3c0.2,1.6,0.8,3.4,2.1,4.9
	c1.2,1.5,3.2,2.6,4.6,3c1.6,0.6,3.2,0.7,4.8,0.8c3.2,0,6.1-1,8.8-2.3c2.7-1.4,5-3.1,7.2-5.6c1.1-1.2,1.9-2.7,2.7-4.2
	c0.7-1.5,1.2-2.9,1.5-4.5c0.8-3.1,0.7-6.7-0.3-10c-0.4-1.2-0.9-2.3-1.4-3.3c0.6-0.2,1.2-0.4,1.7-0.6c4.7-1.4,10.9-1.7,15.4,0.6
	c1.3,0.7,2.3,1.6,3.4,2.5c0.8,0.7,1.3,1.6,1.9,2.5c1.3,2,1.2,4.7,0.4,6.8c-0.4,1-0.8,2.1-1.7,2.8c-0.4,0.3-2.4,1.2-2.1,1.9
	c0.2,0.6,1,1.2,3.3-0.2c4.9-2.9,5.5-9.6,2.8-14.2c-2.1-3.6-5.7-6-9.6-7.2c-2.2-0.6-4.5-1-6.8-1.1c-2-0.1-4.1,0-6,0.4
	c-0.6,0.1-5.2,1.7-5.3,1.5c-0.3-0.4-0.5-0.7-0.8-1.1c-4-4.7-8.5-8.1-12.4-11.8C21.9,50,18,45.9,17.7,41c-0.3-5.9,4.8-11.6,8.7-15.5
	c1.3-1.3,2.6-2.4,4-3.5c6.3-4.9,14.1-8.8,21.7-11.3c2.2-0.7,4.4-1.3,6.6-1.8c3.1-0.7,6.4-1,9.5-1c4.5,0,9,0.8,12.7,3.4
	c2.3,1.7,3.5,4.2,3.5,7c-0.2,8.2-8,14.7-14.9,17.7c-7.7,3.4-18,6.4-24.2,3.6c-3-1.4-5.9-3.9-6.7-2.5c-0.6,1,6,5.5,6.7,5.8
	c6,3.2,15.6,2.3,22.9,0.1c8.1-2.4,15.4-7.7,19.8-14.9C90.4,23.9,92,18.8,91.1,14z M35,79.3c0,1.7-0.4,3.4-0.9,5.1
	c-0.7,1.4-1.3,2.7-2.4,3.9c-2.2,2.4-5.2,4-7.7,4.3c-0.3,0.1-0.6,0-0.9,0c-0.3,0-0.6,0-0.9-0.1c-0.5-0.2-1.2-0.3-1.4-0.5
	c-0.3-0.2-0.4-0.3-0.6-0.7c-0.2-0.3-0.3-0.8-0.4-1.4c-0.1-0.3-0.1-0.7-0.1-0.9c0-0.3,0-0.5,0-0.8c0.1-0.6,0.2-1.2,0.4-1.8
	c0.4-1.2,1.2-2.5,2-3.7c1.7-2.4,3.8-4.6,5.9-6.1c1.7-1.1,3.5-2.2,5.4-3.2C34.5,75.3,35,77.3,35,79.3z"/>
</svg>
